<?xml version="1.0" encoding="utf-8"?>
<!-- Generator: Adobe Illustrator 21.1.0, SVG Export Plug-In . SVG Version: 6.00 Build 0)  -->
<svg version="1.1" id="Layer_1" xmlns="http://www.w3.org/2000/svg" xmlns:xlink="http://www.w3.org/1999/xlink" x="0px" y="0px"
	 viewBox="0 0 260.8 153.1" style="enable-background:new 0 0 260.8 153.1;" xml:space="preserve">
<style type="text/css">
	.st0{fill:none;}
	.st1{fill:#FFE0BD;}
	.st2{enable-background:new    ;}
	.st3{fill:#FFD135;}
	.st4{fill:#FFFFFF;}
</style>
<path class="st0" d="M125.2,20.9"/>
<path class="st0" d="M125.2,27.3"/>
<path class="st0" d="M310.9,33.8"/>
<path class="st0" d="M210.9-23.7"/>
<g>
	<g>
		<g>
			<path class="st1" d="M177.2,44.7l-27.4-0.1c-1.9-0.4-2-2.5,0.1-3l14.8,0.1c0.8,0,0.8-1.3,0-1.4l-6.8-0.1
				c-2.2-0.3-1.9-2.7-0.1-2.9l6.9-0.1c1-0.1,0.8-1.3,0-1.4h-5.1c-2-0.6-1.7-2.7,0.2-3h4.8c1.2-0.1,0.8-1.3,0-1.3h-3.4
				c-1.9-0.2-2.1-2.8-0.1-3l12.6,0.1c5.5,0.5,9.5,5.3,10.3,9.1l0.1,14.5c-0.8,2-3.6,2.1-4.1,0v-5.1C180.1,46,178.4,44.7,177.2,44.7
				L177.2,44.7z"/>
			<path class="st1" d="M144,64.7l27.4,0.1c1.9,0.4,2,2.5-0.1,3h-14.8c-0.8,0-0.8,1.3,0,1.4l6.8,0.1c2.2,0.3,1.9,2.7,0.1,2.9
				l-6.9,0.1c-1,0.1-0.8,1.3,0,1.4h5.1c2,0.6,1.7,2.7-0.2,3h-4.8c-1.2,0.1-0.8,1.3,0,1.3h3.2c1.9,0.2,2.1,2.8,0.1,3l-12.7-0.1
				c-5.5-0.5-9.5-5.3-10.3-9.1l-0.1-14.5c0.8-2,3.6-2.1,4.1,0v5C141,63.4,142.7,64.8,144,64.7L144,64.7z"/>
			<g>
				<g class="st2">
					<path class="st3" d="M84.7,48.8v-0.3h2.9v0.3c-0.5,0-0.8,0.1-1,0.3c-0.2,0.2-0.3,0.6-0.3,1.2v7.8h-0.3l-6.8-8.3v6.7
						c0,0.5,0.1,0.8,0.3,1c0.2,0.2,0.5,0.3,1,0.3v0.3h-2.9v-0.3c0.5,0,0.8-0.1,0.9-0.4c0.2-0.2,0.2-0.7,0.2-1.3v-5.6
						c0-0.6-0.1-1-0.3-1.3s-0.6-0.4-1.1-0.5v-0.3h2.5l6,7.4v-5.6c0-0.6-0.1-1-0.2-1.2C85.4,49,85.1,48.8,84.7,48.8z"/>
				</g>
				<g class="st2">
					<path class="st3" d="M91.8,52.1h0.3v5c0,0.3,0.1,0.5,0.2,0.7c0.1,0.1,0.4,0.2,0.8,0.2v0.3h-3.2v-0.3c0.5,0,0.8-0.1,0.9-0.2
						S91,57.4,91,57v-3.6c0-0.4-0.1-0.6-0.2-0.7c-0.1-0.1-0.4-0.2-0.9-0.2v-0.3L91.8,52.1z M91.5,49c0.2,0,0.4,0.1,0.5,0.2
						s0.2,0.3,0.2,0.5s-0.1,0.4-0.2,0.5c-0.1,0.1-0.3,0.2-0.5,0.2c-0.2,0-0.4-0.1-0.5-0.2c-0.1-0.1-0.2-0.3-0.2-0.5s0.1-0.4,0.2-0.5
						S91.3,49,91.5,49z"/>
				</g>
				<g class="st2">
					<path class="st3" d="M99.8,53.2l-1.5,1.4l2.5,2.5c0.3,0.3,0.5,0.5,0.7,0.6s0.4,0.2,0.7,0.2v0.3h-1.9l-3.1-3
						c0,1.6,0.1,2.4,0.2,2.5c0.1,0.1,0.4,0.2,0.8,0.2v0.3H95v-0.3c0.5,0,0.7-0.1,0.9-0.2c0.1-0.1,0.2-0.4,0.2-0.9v-7.8
						c0-0.3-0.1-0.6-0.2-0.7c-0.1-0.1-0.4-0.1-0.9-0.1v-0.3l1.9-0.2h0.3v7.5l1.6-1.5c0.3-0.3,0.5-0.5,0.5-0.7c0-0.3-0.2-0.4-0.7-0.4
						v-0.3h3.2v0.3h-0.3C100.8,52.5,100.3,52.8,99.8,53.2z"/>
				</g>
				<g class="st2">
					<path class="st3" d="M108.6,56.9V54c0-0.4-0.1-0.7-0.3-0.9s-0.5-0.4-0.9-0.4c-0.3,0-0.6,0.1-0.9,0.3c-0.3,0.2-0.5,0.5-0.8,0.9
						v3.2c0,0.3,0.1,0.5,0.2,0.6c0.1,0.1,0.4,0.2,0.8,0.2v0.3h-3.2v-0.3c0.5,0,0.7-0.1,0.9-0.2c0.1-0.1,0.2-0.4,0.2-0.9V49
						c0-0.4-0.1-0.6-0.2-0.7c-0.1-0.1-0.4-0.2-0.9-0.2v-0.3l1.9-0.2h0.3v5.6c0.4-0.4,0.7-0.7,1-0.9s0.7-0.3,1-0.3
						c0.6,0,1,0.2,1.4,0.6s0.6,0.9,0.6,1.5v2.6c0,0.5,0.1,0.8,0.2,0.9c0.1,0.1,0.4,0.2,0.8,0.2v0.3h-3.1v-0.3c0.4,0,0.7-0.1,0.8-0.2
						C108.6,57.5,108.6,57.3,108.6,56.9z"/>
				</g>
				<g class="st2">
					<path class="st3" d="M114.4,52.1h0.3v5c0,0.3,0.1,0.5,0.2,0.7c0.1,0.1,0.4,0.2,0.8,0.2v0.3h-3.2v-0.3c0.5,0,0.8-0.1,0.9-0.2
						s0.2-0.3,0.2-0.7v-3.6c0-0.4-0.1-0.6-0.2-0.7c-0.1-0.1-0.4-0.2-0.9-0.2v-0.3L114.4,52.1z M114.2,49c0.2,0,0.4,0.1,0.5,0.2
						s0.2,0.3,0.2,0.5s-0.1,0.4-0.2,0.5c-0.1,0.1-0.3,0.2-0.5,0.2c-0.2,0-0.4-0.1-0.5-0.2c-0.1-0.1-0.2-0.3-0.2-0.5s0.1-0.4,0.2-0.5
						S113.9,49,114.2,49z"/>
				</g>
				<g class="st2">
					<path class="st3" d="M121,57.9h0.2v0.3h-3.3v-0.3h0.3c0.3,0,0.5-0.1,0.6-0.2c0.1-0.2,0.2-0.5,0.2-0.9v-7.8
						c0-0.3-0.1-0.5-0.2-0.6c-0.1-0.1-0.3-0.2-0.6-0.2h-0.4v-0.3l2-0.2h0.3V57c0,0.3,0.1,0.5,0.2,0.7
						C120.4,57.8,120.6,57.9,121,57.9z"/>
				</g>
				<g class="st2">
					<path class="st3" d="M124.2,51.5v-0.3c0.7-0.4,1-1,1-1.8c0-0.1,0-0.2-0.1-0.2c0-0.1-0.2-0.1-0.3-0.2c-0.2-0.1-0.4-0.1-0.4-0.2
						c-0.1-0.1-0.1-0.2-0.1-0.4c0-0.2,0.1-0.4,0.2-0.5c0.1-0.1,0.3-0.2,0.5-0.2c0.3,0,0.6,0.1,0.7,0.3s0.3,0.5,0.3,0.9
						c0,0.6-0.2,1.2-0.5,1.6C125.2,51,124.8,51.3,124.2,51.5z"/>
				</g>
				<g class="st2">
					<path class="st3" d="M134.8,48.4h0.3v2.2h-0.3c-0.1-0.6-0.3-1.1-0.7-1.5s-0.9-0.5-1.4-0.5c-0.5,0-0.9,0.1-1.2,0.4
						s-0.5,0.6-0.5,1c0,0.4,0.1,0.8,0.4,1.1c0.3,0.3,0.8,0.8,1.7,1.3c1,0.6,1.7,1.1,2,1.6s0.5,1,0.5,1.5c0,0.8-0.3,1.4-0.8,1.9
						c-0.5,0.5-1.2,0.8-1.9,0.8c-0.4,0-1-0.1-1.7-0.4c-0.3-0.1-0.5-0.1-0.5-0.1c-0.2,0-0.3,0.1-0.4,0.4H130v-2.6h0.3
						c0,0.7,0.2,1.3,0.7,1.7c0.5,0.4,1,0.6,1.6,0.6c0.6,0,1-0.2,1.4-0.5c0.3-0.3,0.5-0.7,0.5-1.2c0-0.4-0.1-0.8-0.4-1.1
						c-0.3-0.4-0.9-0.8-1.8-1.4c-0.7-0.5-1.2-0.8-1.5-1.1s-0.4-0.6-0.6-0.9c-0.1-0.3-0.2-0.7-0.2-1c0-0.7,0.2-1.3,0.7-1.8
						c0.5-0.5,1.1-0.7,1.9-0.7c0.4,0,0.9,0.1,1.4,0.3c0.2,0.1,0.4,0.1,0.5,0.1c0.1,0,0.1,0,0.2,0C134.7,48.6,134.7,48.5,134.8,48.4z
						"/>
				</g>
			</g>
			<g transform="matrix(0.99109 0 0 1 550.402 139.141)">
				<g class="st2">
					<path class="st3" d="M-409.5-81c-0.5,0-0.9-0.2-1.2-0.5c-0.3-0.3-0.5-0.7-0.5-1.1c0-0.4,0.1-0.8,0.4-1c0.3-0.3,0.9-0.5,1.7-0.8
						c0.5-0.2,0.9-0.3,1.1-0.4v-0.4c0-0.4-0.1-0.8-0.4-1c-0.2-0.3-0.6-0.4-1-0.4c-0.4,0-0.7,0.1-1,0.3c-0.3,0.2-0.5,0.5-0.6,0.9
						l-0.3-0.1c0.1-0.5,0.4-1,0.8-1.3c0.4-0.3,0.9-0.5,1.4-0.5c0.6,0,1.2,0.2,1.5,0.6c0.4,0.4,0.6,0.9,0.6,1.6v2.5
						c0,0.4,0,0.6,0.1,0.7c0,0.1,0.1,0.2,0.3,0.2c0.1,0,0.2,0,0.2-0.1c0.1-0.1,0.1-0.2,0.2-0.5h0.3c0,0.4-0.1,0.7-0.3,0.9
						c-0.2,0.2-0.5,0.3-0.8,0.3c-0.5,0-0.8-0.3-1-0.8c-0.3,0.3-0.6,0.5-0.8,0.7C-408.9-81.1-409.2-81-409.5-81z M-407.9-82.4v-2
						c-0.2,0.1-0.4,0.2-0.7,0.3c-0.6,0.2-1,0.4-1.1,0.6c-0.2,0.2-0.2,0.5-0.2,0.8c0,0.3,0.1,0.5,0.3,0.8c0.2,0.2,0.4,0.3,0.6,0.3
						c0.2,0,0.5-0.1,0.7-0.2C-408.2-82-408-82.2-407.9-82.4z"/>
				</g>
				<g class="st2">
					<path class="st3" d="M-401.9-87.3v1.2c0.7-0.8,1.4-1.2,2.1-1.2c0.6,0,1,0.2,1.4,0.6s0.6,0.9,0.6,1.5v2.7c0,0.4,0.1,0.7,0.2,0.8
						c0.1,0.1,0.4,0.2,0.8,0.2v0.3h-3.2v-0.3c0.4,0,0.7-0.1,0.8-0.2s0.2-0.3,0.2-0.6v-3.1c0-0.4-0.1-0.7-0.4-1
						c-0.2-0.2-0.6-0.4-0.9-0.4c-0.6,0-1.1,0.4-1.7,1.2v2.9c0,0.5,0.1,0.8,0.2,0.9c0.1,0.1,0.4,0.2,0.8,0.2v0.3h-3.1v-0.3
						c0.5,0,0.7-0.1,0.8-0.2c0.1-0.1,0.2-0.5,0.2-0.9V-86c0-0.4-0.1-0.6-0.2-0.7c-0.1-0.1-0.4-0.2-0.8-0.2v-0.3l1.8-0.2H-401.9z"/>
				</g>
				<g class="st2">
					<path class="st3" d="M-390.3-87.2h1.9v0.7h-1.6c0.4,0.5,0.7,1.1,0.7,1.7c0,0.6-0.2,1.1-0.6,1.6c-0.4,0.5-0.9,0.7-1.6,0.7
						c-0.4,0-0.9,0.2-1.3,0.4c-0.4,0.3-0.6,0.5-0.6,0.7c0,0.2,0.1,0.4,0.3,0.5c0.2,0.1,0.8,0.2,1.6,0.4c0.9,0.2,1.6,0.3,1.9,0.5
						c0.4,0.1,0.6,0.3,0.8,0.6c0.2,0.3,0.3,0.5,0.3,0.9c0,0.7-0.4,1.3-1.1,1.8c-0.7,0.5-1.6,0.7-2.6,0.7c-0.9,0-1.6-0.2-2.1-0.5
						c-0.5-0.3-0.8-0.8-0.8-1.3c0-0.4,0.2-0.7,0.5-1c0.3-0.3,0.8-0.6,1.5-0.9v0c-0.4-0.1-0.7-0.2-0.9-0.4c-0.2-0.2-0.3-0.4-0.3-0.7
						c0-0.7,0.6-1.2,1.8-1.6v0c-0.6-0.2-1.1-0.4-1.4-0.8c-0.3-0.4-0.5-0.9-0.5-1.4c0-0.7,0.2-1.3,0.7-1.8c0.5-0.5,1.1-0.7,1.8-0.7
						c0.1,0,0.4,0,0.8,0C-390.7-87.2-390.4-87.2-390.3-87.2z M-389-78.1c0-0.4-0.2-0.7-0.7-0.9c-0.5-0.2-1.4-0.4-2.7-0.7
						c-1.1,0.3-1.7,0.8-1.7,1.4c0,0.4,0.3,0.8,0.8,1.1c0.6,0.3,1.3,0.4,2.1,0.4c0.7,0,1.2-0.1,1.6-0.4
						C-389.2-77.4-389-77.7-389-78.1z M-393.3-84.9c0,0.6,0.1,1.2,0.4,1.5c0.3,0.4,0.6,0.6,1.1,0.6c0.5,0,0.8-0.2,1.1-0.6
						c0.3-0.4,0.4-0.9,0.4-1.6c0-0.6-0.1-1.1-0.4-1.5c-0.3-0.4-0.6-0.6-1-0.6c-0.4,0-0.8,0.2-1.1,0.6
						C-393.2-86-393.3-85.5-393.3-84.9z"/>
				</g>
				<g class="st2">
					<path class="st3" d="M-383.3-81.5h0.2v0.3h-3.3v-0.3h0.3c0.3,0,0.5-0.1,0.6-0.2c0.1-0.2,0.2-0.5,0.2-0.9v-7.8
						c0-0.3-0.1-0.5-0.2-0.6c-0.1-0.1-0.3-0.2-0.6-0.2h-0.4v-0.3l2-0.2h0.3v9.4c0,0.3,0.1,0.5,0.2,0.7
						C-383.9-81.5-383.6-81.5-383.3-81.5z"/>
				</g>
				<g class="st2">
					<path class="st3" d="M-375.2-82.7v0.4c-0.4,0.5-0.7,0.8-1.1,1s-0.8,0.3-1.3,0.3c-0.9,0-1.7-0.3-2.3-0.9
						c-0.6-0.6-0.9-1.3-0.9-2.2c0-0.9,0.3-1.7,0.9-2.3c0.6-0.6,1.3-0.9,2.1-0.9c0.7,0,1.3,0.2,1.8,0.7c0.5,0.5,0.8,1,0.8,1.7v0.1
						h-4.3v0.1c0,0.7,0.1,1.2,0.3,1.7c0.2,0.5,0.5,0.9,0.9,1.1c0.4,0.3,0.8,0.4,1.2,0.4c0.4,0,0.7-0.1,1-0.2
						C-376-81.9-375.6-82.2-375.2-82.7z M-379.6-85.1h3.2v-0.1c0-0.5-0.2-0.9-0.5-1.3c-0.3-0.3-0.7-0.5-1.1-0.5
						c-0.5,0-0.9,0.2-1.2,0.5S-379.6-85.7-379.6-85.1z"/>
				</g>
			</g>
		</g>
		<g class="st2">
			<path class="st3" d="M102.2,88.3L102.2,88.3c-0.1,0.1-0.2,0.1-0.3,0.2c-0.1,0.1-0.1,0.2-0.2,0.4l-0.8,2.2h-0.1l-0.8-2l-0.7,2
				h-0.1l-0.8-2.3c0-0.1-0.1-0.2-0.1-0.3s-0.1-0.1-0.1-0.1s-0.1,0-0.2,0v-0.1h1v0.1c-0.2,0-0.2,0.1-0.2,0.2c0,0,0,0.1,0,0.2l0.6,1.8
				l0.6-1.6l-0.1-0.2c0-0.1-0.1-0.2-0.1-0.2s-0.1-0.1-0.2-0.1v-0.1h1v0.1c-0.2,0-0.3,0.1-0.3,0.2c0,0,0,0.1,0,0.2l0.6,1.8l0.6-1.6
				c0-0.1,0.1-0.2,0.1-0.3c0-0.2-0.1-0.2-0.3-0.2v-0.1H102.2z"/>
			<path class="st3" d="M103.6,90.7v0.1c-0.1,0.1-0.2,0.2-0.3,0.3c-0.1,0.1-0.2,0.1-0.4,0.1c-0.3,0-0.5-0.1-0.7-0.3
				c-0.2-0.2-0.3-0.4-0.3-0.6c0-0.3,0.1-0.5,0.2-0.7c0.2-0.2,0.4-0.3,0.6-0.3c0.2,0,0.4,0.1,0.5,0.2c0.1,0.1,0.2,0.3,0.2,0.5v0h-1.3
				v0c0,0.2,0,0.4,0.1,0.5c0.1,0.1,0.1,0.2,0.3,0.3c0.1,0.1,0.2,0.1,0.3,0.1c0.1,0,0.2,0,0.3-0.1C103.3,90.9,103.4,90.8,103.6,90.7z
				 M102.3,90h0.9v0c0-0.2,0-0.3-0.1-0.4s-0.2-0.1-0.3-0.1c-0.1,0-0.3,0-0.3,0.1C102.3,89.7,102.3,89.8,102.3,90z"/>
			<path class="st3" d="M105.5,88.1L105.5,88.1l0.1,2.7c0,0.1,0,0.2,0.1,0.2s0.1,0.1,0.2,0.1v0.1h-1c-0.3,0-0.6-0.1-0.7-0.3
				c-0.2-0.2-0.3-0.4-0.3-0.6c0-0.2,0.1-0.4,0.2-0.6c0.2-0.2,0.3-0.3,0.6-0.3c0.2,0,0.4,0.1,0.6,0.2v-1.1c0-0.1,0-0.2,0-0.2
				c0,0-0.1-0.1-0.2-0.1h-0.1v-0.1L105.5,88.1z M105.3,90.8v-1c-0.1-0.1-0.1-0.2-0.2-0.2c-0.1-0.1-0.2-0.1-0.3-0.1
				c-0.2,0-0.3,0.1-0.4,0.2c-0.1,0.1-0.1,0.3-0.1,0.5c0,0.3,0.1,0.5,0.2,0.6c0.1,0.2,0.3,0.2,0.6,0.2c0.1,0,0.2,0,0.2-0.1
				S105.3,90.9,105.3,90.8z"/>
			<path class="st3" d="M107.7,88.1L107.7,88.1l0.1,2.7c0,0.1,0,0.2,0.1,0.2s0.1,0.1,0.2,0.1v0.1h-1c-0.3,0-0.6-0.1-0.7-0.3
				c-0.2-0.2-0.3-0.4-0.3-0.6c0-0.2,0.1-0.4,0.2-0.6c0.2-0.2,0.3-0.3,0.6-0.3c0.2,0,0.4,0.1,0.6,0.2v-1.1c0-0.1,0-0.2,0-0.2
				c0,0-0.1-0.1-0.2-0.1h-0.1v-0.1L107.7,88.1z M107.5,90.8v-1c-0.1-0.1-0.1-0.2-0.2-0.2c-0.1-0.1-0.2-0.1-0.3-0.1
				c-0.2,0-0.3,0.1-0.4,0.2c-0.1,0.1-0.1,0.3-0.1,0.5c0,0.3,0.1,0.5,0.2,0.6c0.1,0.2,0.3,0.2,0.6,0.2c0.1,0,0.2,0,0.2-0.1
				S107.5,90.9,107.5,90.8z"/>
			<path class="st3" d="M108.8,89.3L108.8,89.3l0.1,1.4c0,0.1,0,0.2,0.1,0.2c0,0,0.1,0,0.2,0v0.1h-0.9V91c0.1,0,0.2,0,0.3,0
				c0,0,0.1-0.1,0.1-0.2v-1.1c0-0.1,0-0.2-0.1-0.2s-0.1,0-0.3,0v-0.1L108.8,89.3z M108.7,88.5c0.1,0,0.1,0,0.1,0.1s0.1,0.1,0.1,0.1
				c0,0.1,0,0.1-0.1,0.2c0,0-0.1,0.1-0.1,0.1c-0.1,0-0.1,0-0.2-0.1s-0.1-0.1-0.1-0.2c0-0.1,0-0.1,0.1-0.1
				C108.6,88.5,108.7,88.5,108.7,88.5z"/>
			<path class="st3" d="M109.9,89.3v0.3c0.2-0.2,0.4-0.3,0.6-0.3c0.2,0,0.3,0.1,0.4,0.2s0.2,0.3,0.2,0.4v0.8c0,0.1,0,0.2,0.1,0.2
				c0,0,0.1,0.1,0.2,0.1v0.1h-0.9V91c0.1,0,0.2,0,0.2,0c0,0,0.1-0.1,0.1-0.2v-0.9c0-0.1,0-0.2-0.1-0.3c-0.1-0.1-0.2-0.1-0.3-0.1
				c-0.2,0-0.3,0.1-0.5,0.3v0.8c0,0.1,0,0.2,0.1,0.3c0,0,0.1,0.1,0.2,0.1v0.1h-0.9V91c0.1,0,0.2,0,0.2-0.1c0,0,0-0.1,0-0.3v-1
				c0-0.1,0-0.2-0.1-0.2s-0.1,0-0.2,0v-0.1L109.9,89.3L109.9,89.3z"/>
			<path class="st3" d="M112.9,89.4h0.6v0.2H113c0.1,0.2,0.2,0.3,0.2,0.5c0,0.2-0.1,0.3-0.2,0.5s-0.3,0.2-0.5,0.2
				c-0.1,0-0.2,0-0.4,0.1c-0.1,0.1-0.2,0.1-0.2,0.2c0,0.1,0,0.1,0.1,0.1c0.1,0,0.2,0.1,0.5,0.1c0.3,0,0.5,0.1,0.6,0.1
				s0.2,0.1,0.2,0.2s0.1,0.2,0.1,0.3c0,0.2-0.1,0.4-0.3,0.5c-0.2,0.1-0.5,0.2-0.7,0.2c-0.3,0-0.5,0-0.6-0.1
				c-0.2-0.1-0.2-0.2-0.2-0.4c0-0.1,0-0.2,0.1-0.3c0.1-0.1,0.2-0.2,0.4-0.2v0c-0.1,0-0.2-0.1-0.3-0.1c-0.1-0.1-0.1-0.1-0.1-0.2
				c0-0.2,0.2-0.3,0.5-0.5v0c-0.2,0-0.3-0.1-0.4-0.2c-0.1-0.1-0.1-0.2-0.1-0.4c0-0.2,0.1-0.4,0.2-0.5c0.1-0.1,0.3-0.2,0.5-0.2
				c0,0,0.1,0,0.2,0C112.8,89.4,112.9,89.4,112.9,89.4z M113.3,92c0-0.1-0.1-0.2-0.2-0.3c-0.1-0.1-0.4-0.1-0.8-0.2
				c-0.3,0.1-0.5,0.2-0.5,0.4c0,0.1,0.1,0.2,0.2,0.3c0.2,0.1,0.4,0.1,0.6,0.1c0.2,0,0.3,0,0.5-0.1C113.2,92.2,113.3,92.1,113.3,92z
				 M112,90c0,0.2,0,0.3,0.1,0.4s0.2,0.2,0.3,0.2c0.1,0,0.2-0.1,0.3-0.2c0.1-0.1,0.1-0.3,0.1-0.5c0-0.2,0-0.3-0.1-0.4
				c-0.1-0.1-0.2-0.2-0.3-0.2c-0.1,0-0.2,0.1-0.3,0.2C112.1,89.7,112,89.8,112,90z"/>
			<path class="st3" d="M113.9,91.9L113.9,91.9c0.1-0.1,0.2-0.2,0.3-0.3c0.1-0.1,0.1-0.2,0.1-0.3c0,0,0-0.1,0-0.1c0,0,0,0-0.1,0
				c-0.1,0-0.1,0-0.2-0.1s-0.1-0.1-0.1-0.2c0-0.1,0-0.1,0.1-0.2c0,0,0.1-0.1,0.2-0.1c0.1,0,0.2,0,0.3,0.1c0.1,0.1,0.1,0.2,0.1,0.3
				c0,0.2-0.1,0.3-0.2,0.4S114,91.9,113.9,91.9z"/>
			<path class="st3" d="M117.7,89.4L117.7,89.4l0.1,0.7h-0.1c0-0.1-0.1-0.2-0.1-0.2c0,0-0.1,0-0.3,0h-0.7v1c0,0.1,0,0.1,0,0.1
				c0,0,0.1,0,0.2,0h0.5c0.2,0,0.3,0,0.4,0c0.1,0,0.1-0.1,0.2-0.1c0-0.1,0.1-0.1,0.1-0.2h0.1l-0.1,0.5h-2V91c0.1,0,0.2,0,0.3-0.1
				c0-0.1,0.1-0.2,0.1-0.3v-1.7c0-0.2,0-0.3-0.1-0.3c0-0.1-0.1-0.1-0.2-0.1v-0.1h2v0.5h-0.1c0-0.1-0.1-0.2-0.1-0.3
				c-0.1,0-0.2-0.1-0.3-0.1h-0.8v1.2h0.8c0.1,0,0.2,0,0.2-0.1C117.6,89.6,117.6,89.5,117.7,89.4z"/>
			<path class="st3" d="M119.1,89.4L119.1,89.4c-0.1,0.1-0.2,0.1-0.2,0.2c0,0,0,0.1,0,0.2l0.4,0.9l0.3-0.9c0-0.1,0.1-0.2,0.1-0.2
				c0-0.1-0.1-0.1-0.2-0.1v-0.1h0.6v0.1c-0.1,0-0.2,0-0.2,0.1c0,0-0.1,0.1-0.1,0.2l-0.6,1.4h-0.1l-0.5-1.3c-0.1-0.1-0.1-0.2-0.1-0.3
				c0,0-0.1-0.1-0.2-0.1v-0.1H119.1z"/>
			<path class="st3" d="M121.9,90.7v0.1c-0.1,0.1-0.2,0.2-0.3,0.3c-0.1,0.1-0.2,0.1-0.4,0.1c-0.3,0-0.5-0.1-0.7-0.3
				c-0.2-0.2-0.3-0.4-0.3-0.6c0-0.3,0.1-0.5,0.2-0.7c0.2-0.2,0.4-0.3,0.6-0.3c0.2,0,0.4,0.1,0.5,0.2c0.1,0.1,0.2,0.3,0.2,0.5v0h-1.3
				v0c0,0.2,0,0.4,0.1,0.5c0.1,0.1,0.1,0.2,0.3,0.3c0.1,0.1,0.2,0.1,0.3,0.1c0.1,0,0.2,0,0.3-0.1C121.7,90.9,121.8,90.8,121.9,90.7z
				 M120.6,90h0.9v0c0-0.2,0-0.3-0.1-0.4s-0.2-0.1-0.3-0.1c-0.1,0-0.3,0-0.3,0.1C120.7,89.7,120.7,89.8,120.6,90z"/>
			<path class="st3" d="M122.8,89.3v0.3c0.2-0.2,0.4-0.3,0.6-0.3c0.2,0,0.3,0.1,0.4,0.2s0.2,0.3,0.2,0.4v0.8c0,0.1,0,0.2,0.1,0.2
				c0,0,0.1,0.1,0.2,0.1v0.1h-0.9V91c0.1,0,0.2,0,0.2,0c0,0,0.1-0.1,0.1-0.2v-0.9c0-0.1,0-0.2-0.1-0.3c-0.1-0.1-0.2-0.1-0.3-0.1
				c-0.2,0-0.3,0.1-0.5,0.3v0.8c0,0.1,0,0.2,0.1,0.3c0,0,0.1,0.1,0.2,0.1v0.1h-0.9V91c0.1,0,0.2,0,0.2-0.1c0,0,0-0.1,0-0.3v-1
				c0-0.1,0-0.2-0.1-0.2s-0.1,0-0.2,0v-0.1L122.8,89.3L122.8,89.3z"/>
			<path class="st3" d="M125,88.8L125,88.8l0.1,0.6h0.6v0.1H125v1.1c0,0.1,0,0.2,0.1,0.3c0.1,0.1,0.1,0.1,0.2,0.1
				c0.1,0,0.2-0.1,0.3-0.2l0.1,0.1c-0.1,0.2-0.3,0.3-0.5,0.3c-0.1,0-0.3,0-0.4-0.1s-0.1-0.2-0.1-0.4v-1.1h-0.3v-0.1
				C124.6,89.3,124.8,89.1,125,88.8z"/>
			<path class="st3" d="M127,89.3v0.5h-0.1c0-0.1-0.1-0.2-0.1-0.3c-0.1-0.1-0.2-0.1-0.3-0.1c-0.1,0-0.2,0-0.2,0.1
				c-0.1,0-0.1,0.1-0.1,0.2c0,0.1,0,0.1,0.1,0.2c0,0.1,0.2,0.1,0.3,0.2c0.2,0.1,0.3,0.2,0.4,0.3c0.1,0.1,0.1,0.2,0.1,0.3
				c0,0.1-0.1,0.3-0.2,0.4s-0.2,0.2-0.4,0.2c-0.1,0-0.2,0-0.3-0.1c-0.1,0-0.1,0-0.1,0c0,0-0.1,0-0.1,0c0,0,0,0,0,0.1h-0.1v-0.6h0.1
				c0,0.2,0.1,0.3,0.2,0.4c0.1,0.1,0.2,0.1,0.4,0.1c0.1,0,0.2,0,0.2-0.1c0.1-0.1,0.1-0.1,0.1-0.2c0-0.1,0-0.2-0.1-0.2
				c-0.1-0.1-0.2-0.1-0.3-0.2c-0.2-0.1-0.3-0.2-0.4-0.2c-0.1-0.1-0.1-0.2-0.1-0.3c0-0.1,0.1-0.2,0.2-0.3c0.1-0.1,0.2-0.1,0.4-0.1
				c0.1,0,0.1,0,0.2,0c0.1,0,0.1,0,0.1,0C126.9,89.4,126.9,89.4,127,89.3L127,89.3z"/>
			<path class="st3" d="M127.7,91.9L127.7,91.9c0.1-0.1,0.2-0.2,0.3-0.3c0.1-0.1,0.1-0.2,0.1-0.3c0,0,0-0.1,0-0.1c0,0,0,0-0.1,0
				c-0.1,0-0.1,0-0.2-0.1s-0.1-0.1-0.1-0.2c0-0.1,0-0.1,0.1-0.2c0,0,0.1-0.1,0.2-0.1c0.1,0,0.2,0,0.3,0.1c0.1,0.1,0.1,0.2,0.1,0.3
				c0,0.2-0.1,0.3-0.2,0.4S127.8,91.9,127.7,91.9z"/>
			<path class="st3" d="M129.7,88.3h1c0.3,0,0.6,0.1,0.8,0.2c0.2,0.1,0.3,0.3,0.3,0.6c0,0.2-0.1,0.4-0.3,0.5
				c-0.2,0.1-0.4,0.2-0.7,0.2c-0.1,0-0.3,0-0.4,0v0.8c0,0.2,0,0.3,0.1,0.3c0,0.1,0.1,0.1,0.2,0.1v0.1h-1V91c0.1,0,0.2,0,0.2-0.1
				s0.1-0.2,0.1-0.3v-1.7c0-0.2,0-0.3-0.1-0.3S129.8,88.4,129.7,88.3L129.7,88.3z M130.8,88.4h-0.3v1.2c0.1,0,0.2,0,0.3,0
				c0.2,0,0.4-0.1,0.5-0.2c0.1-0.1,0.2-0.3,0.2-0.4c0-0.2-0.1-0.4-0.2-0.5C131.1,88.5,131,88.4,130.8,88.4z"/>
			<path class="st3" d="M133.8,90.2c0,0.3-0.1,0.5-0.3,0.6c-0.2,0.2-0.4,0.3-0.7,0.3s-0.5-0.1-0.7-0.3c-0.2-0.2-0.3-0.4-0.3-0.6
				c0-0.3,0.1-0.5,0.3-0.7c0.2-0.2,0.4-0.3,0.7-0.3c0.3,0,0.5,0.1,0.7,0.3C133.7,89.8,133.8,90,133.8,90.2z M133.5,90.2
				c0-0.2-0.1-0.4-0.2-0.6c-0.1-0.2-0.2-0.2-0.4-0.2s-0.3,0.1-0.4,0.2c-0.1,0.1-0.2,0.3-0.2,0.6c0,0.2,0.1,0.4,0.2,0.6
				c0.1,0.1,0.2,0.2,0.4,0.2c0.2,0,0.3-0.1,0.4-0.2S133.5,90.5,133.5,90.2z"/>
			<path class="st3" d="M134.7,89.3v0.4c0.2-0.1,0.3-0.2,0.4-0.3c0.1-0.1,0.2-0.1,0.2-0.1c0.1,0,0.2,0,0.3,0.1l-0.1,0.3
				c-0.2-0.1-0.3-0.2-0.4-0.2c-0.1,0-0.2,0.1-0.4,0.2v0.9c0,0.1,0,0.2,0.1,0.2c0,0,0.1,0,0.2,0v0.1h-0.9V91c0.1,0,0.2,0,0.2-0.1
				c0,0,0.1-0.1,0.1-0.3v-0.9c0-0.1,0-0.2-0.1-0.2c0,0-0.1-0.1-0.3-0.1v-0.1L134.7,89.3L134.7,89.3z"/>
			<path class="st3" d="M136.5,88.8L136.5,88.8l0.1,0.6h0.6v0.1h-0.6v1.1c0,0.1,0,0.2,0.1,0.3c0.1,0.1,0.1,0.1,0.2,0.1
				c0.1,0,0.2-0.1,0.3-0.2l0.1,0.1c-0.1,0.2-0.3,0.3-0.5,0.3c-0.1,0-0.3,0-0.4-0.1c-0.1-0.1-0.1-0.2-0.1-0.4v-1.1h-0.3v-0.1
				C136.1,89.3,136.3,89.1,136.5,88.8z"/>
			<path class="st3" d="M137.9,89.3v0.4c0.2-0.1,0.3-0.2,0.4-0.3c0.1-0.1,0.2-0.1,0.2-0.1c0.1,0,0.2,0,0.3,0.1l-0.1,0.3
				c-0.2-0.1-0.3-0.2-0.4-0.2c-0.1,0-0.2,0.1-0.4,0.2v0.9c0,0.1,0,0.2,0.1,0.2c0,0,0.1,0,0.2,0v0.1h-0.9V91c0.1,0,0.2,0,0.2-0.1
				c0,0,0.1-0.1,0.1-0.3v-0.9c0-0.1,0-0.2-0.1-0.2c0,0-0.1-0.1-0.3-0.1v-0.1L137.9,89.3L137.9,89.3z"/>
			<path class="st3" d="M139.5,91.2c-0.1,0-0.2,0-0.3-0.1c-0.1-0.1-0.1-0.2-0.1-0.3c0-0.1,0-0.2,0.1-0.3c0.1-0.1,0.3-0.2,0.5-0.2
				c0.2,0,0.3-0.1,0.3-0.1v-0.1c0-0.1,0-0.2-0.1-0.3c-0.1-0.1-0.2-0.1-0.3-0.1c-0.1,0-0.2,0-0.3,0.1c-0.1,0.1-0.1,0.2-0.2,0.3
				l-0.1,0c0-0.2,0.1-0.3,0.2-0.4c0.1-0.1,0.3-0.1,0.4-0.1c0.2,0,0.3,0.1,0.4,0.2c0.1,0.1,0.2,0.3,0.2,0.5v0.7c0,0.1,0,0.2,0,0.2
				s0,0.1,0.1,0.1c0,0,0,0,0.1,0c0,0,0-0.1,0.1-0.1h0.1c0,0.1,0,0.2-0.1,0.3c-0.1,0.1-0.1,0.1-0.2,0.1c-0.1,0-0.2-0.1-0.3-0.2
				c-0.1,0.1-0.2,0.2-0.2,0.2C139.7,91.1,139.6,91.2,139.5,91.2z M140,90.8v-0.6c0,0-0.1,0-0.2,0.1c-0.2,0.1-0.3,0.1-0.3,0.2
				s-0.1,0.1-0.1,0.2c0,0.1,0,0.2,0.1,0.2c0.1,0.1,0.1,0.1,0.2,0.1c0.1,0,0.1,0,0.2-0.1C139.9,90.9,140,90.8,140,90.8z"/>
			<path class="st3" d="M141.3,89.3L141.3,89.3l0.1,1.4c0,0.1,0,0.2,0.1,0.2c0,0,0.1,0,0.2,0v0.1h-0.9V91c0.1,0,0.2,0,0.3,0
				c0,0,0.1-0.1,0.1-0.2v-1.1c0-0.1,0-0.2-0.1-0.2s-0.1,0-0.3,0v-0.1L141.3,89.3z M141.2,88.5c0.1,0,0.1,0,0.1,0.1s0.1,0.1,0.1,0.1
				c0,0.1,0,0.1-0.1,0.2c0,0-0.1,0.1-0.1,0.1s-0.1,0-0.2-0.1c0,0-0.1-0.1-0.1-0.2c0-0.1,0-0.1,0.1-0.1
				C141.1,88.5,141.2,88.5,141.2,88.5z"/>
			<path class="st3" d="M142.4,88.8L142.4,88.8l0.1,0.6h0.6v0.1h-0.6v1.1c0,0.1,0,0.2,0.1,0.3c0.1,0.1,0.1,0.1,0.2,0.1
				c0.1,0,0.2-0.1,0.3-0.2l0.1,0.1c-0.1,0.2-0.3,0.3-0.5,0.3c-0.1,0-0.3,0-0.4-0.1c-0.1-0.1-0.1-0.2-0.1-0.4v-1.1h-0.3v-0.1
				C142.1,89.3,142.3,89.1,142.4,88.8z"/>
			<path class="st3" d="M144.5,89.3v0.5h-0.1c0-0.1-0.1-0.2-0.1-0.3s-0.2-0.1-0.3-0.1c-0.1,0-0.2,0-0.2,0.1c-0.1,0-0.1,0.1-0.1,0.2
				c0,0.1,0,0.1,0.1,0.2c0,0.1,0.2,0.1,0.3,0.2c0.2,0.1,0.3,0.2,0.4,0.3c0.1,0.1,0.1,0.2,0.1,0.3c0,0.1-0.1,0.3-0.2,0.4
				c-0.1,0.1-0.2,0.2-0.4,0.2c-0.1,0-0.2,0-0.3-0.1c-0.1,0-0.1,0-0.1,0c0,0-0.1,0-0.1,0c0,0,0,0,0,0.1h-0.1v-0.6h0.1
				c0,0.2,0.1,0.3,0.2,0.4c0.1,0.1,0.2,0.1,0.4,0.1c0.1,0,0.2,0,0.2-0.1s0.1-0.1,0.1-0.2c0-0.1,0-0.2-0.1-0.2
				c-0.1-0.1-0.2-0.1-0.3-0.2c-0.2-0.1-0.3-0.2-0.4-0.2c-0.1-0.1-0.1-0.2-0.1-0.3c0-0.1,0.1-0.2,0.2-0.3c0.1-0.1,0.2-0.1,0.4-0.1
				c0.1,0,0.1,0,0.2,0c0.1,0,0.1,0,0.1,0C144.3,89.4,144.3,89.4,144.5,89.3L144.5,89.3z"/>
			<path class="st3" d="M146.3,89.1c0-0.2,0.1-0.3,0.2-0.5s0.3-0.2,0.5-0.2c0.2,0,0.3,0,0.4,0.1c0.1,0.1,0.2,0.2,0.2,0.4
				c0,0.2-0.2,0.4-0.5,0.6c0.2,0.2,0.4,0.4,0.7,0.8c0.1-0.2,0.2-0.4,0.2-0.6c0-0.1,0-0.1,0-0.2c0,0-0.1-0.1-0.2-0.1v-0.1h0.8v0.1
				c-0.1,0-0.2,0-0.3,0.1c0,0-0.1,0.1-0.1,0.1c0,0.1-0.1,0.1-0.1,0.3c-0.1,0.2-0.1,0.3-0.2,0.5c0.2,0.2,0.3,0.4,0.4,0.4
				s0.1,0.1,0.2,0.1c0.1,0,0.1,0,0.2-0.1l0.1,0.1c-0.1,0.2-0.3,0.2-0.4,0.2c-0.1,0-0.2,0-0.2-0.1c-0.1,0-0.2-0.1-0.3-0.2
				c0-0.1-0.1-0.1-0.1-0.1c-0.2,0.3-0.5,0.4-0.8,0.4c-0.2,0-0.4-0.1-0.5-0.2c-0.2-0.1-0.2-0.3-0.2-0.5c0-0.1,0.1-0.3,0.2-0.4
				c0.1-0.1,0.3-0.3,0.4-0.4C146.4,89.5,146.3,89.3,146.3,89.1z M146.3,90.3c0,0.2,0.1,0.3,0.2,0.4c0.1,0.1,0.3,0.2,0.4,0.2
				c0.1,0,0.2,0,0.3-0.1c0.1,0,0.2-0.1,0.3-0.2c-0.3-0.4-0.6-0.7-0.8-0.9c-0.1,0.1-0.2,0.1-0.2,0.2S146.3,90.2,146.3,90.3z
				 M146.5,88.9c0,0.1,0,0.2,0.1,0.3s0.2,0.2,0.3,0.3c0.2-0.1,0.3-0.3,0.3-0.5c0-0.1,0-0.2-0.1-0.3c-0.1-0.1-0.2-0.1-0.3-0.1
				c-0.1,0-0.2,0-0.3,0.1S146.5,88.8,146.5,88.9z"/>
			<path class="st3" d="M152.6,88.3h0.7v0.1c-0.2,0-0.3,0.1-0.3,0.4c0,0,0,0,0,0.1l0.1,1.7c0,0.2,0,0.3,0.1,0.4
				c0,0.1,0.1,0.1,0.3,0.1v0.1h-1V91c0.1,0,0.2-0.1,0.2-0.1c0-0.1,0.1-0.1,0.1-0.2c0,0,0,0,0-0.1l-0.1-1.8l-0.9,2.3h-0.1l-0.9-2.3
				l-0.2,1.7c0,0,0,0.1,0,0.1c0,0.2,0.1,0.4,0.4,0.4v0.1H150V91c0.1,0,0.2-0.1,0.2-0.1c0.1-0.1,0.1-0.2,0.1-0.4l0.2-1.9
				c-0.1-0.1-0.2-0.2-0.4-0.2v-0.1h0.7l0.9,2.2L152.6,88.3z"/>
			<path class="st3" d="M155.6,90.2c0,0.3-0.1,0.5-0.3,0.6c-0.2,0.2-0.4,0.3-0.7,0.3s-0.5-0.1-0.7-0.3c-0.2-0.2-0.3-0.4-0.3-0.6
				c0-0.3,0.1-0.5,0.3-0.7c0.2-0.2,0.4-0.3,0.7-0.3c0.3,0,0.5,0.1,0.7,0.3C155.5,89.8,155.6,90,155.6,90.2z M155.3,90.2
				c0-0.2-0.1-0.4-0.2-0.6c-0.1-0.2-0.2-0.2-0.4-0.2s-0.3,0.1-0.4,0.2c-0.1,0.1-0.2,0.3-0.2,0.6c0,0.2,0.1,0.4,0.2,0.6
				c0.1,0.1,0.2,0.2,0.4,0.2c0.2,0,0.3-0.1,0.4-0.2S155.3,90.5,155.3,90.2z"/>
			<path class="st3" d="M156.5,89.3v0.4c0.2-0.1,0.3-0.2,0.4-0.3c0.1-0.1,0.2-0.1,0.2-0.1c0.1,0,0.2,0,0.3,0.1l-0.1,0.3
				c-0.2-0.1-0.3-0.2-0.4-0.2c-0.1,0-0.2,0.1-0.4,0.2v0.9c0,0.1,0,0.2,0.1,0.2c0,0,0.1,0,0.2,0v0.1h-0.9V91c0.1,0,0.2,0,0.2-0.1
				c0,0,0.1-0.1,0.1-0.3v-0.9c0-0.1,0-0.2-0.1-0.2c0,0-0.1-0.1-0.3-0.1v-0.1L156.5,89.3L156.5,89.3z"/>
			<path class="st3" d="M159.2,90.7v0.1c-0.1,0.1-0.2,0.2-0.3,0.3c-0.1,0.1-0.2,0.1-0.4,0.1c-0.3,0-0.5-0.1-0.7-0.3
				c-0.2-0.2-0.3-0.4-0.3-0.6c0-0.3,0.1-0.5,0.2-0.7c0.2-0.2,0.4-0.3,0.6-0.3c0.2,0,0.4,0.1,0.5,0.2s0.2,0.3,0.2,0.5v0h-1.3v0
				c0,0.2,0,0.4,0.1,0.5c0.1,0.1,0.1,0.2,0.3,0.3c0.1,0.1,0.2,0.1,0.3,0.1c0.1,0,0.2,0,0.3-0.1S159.1,90.8,159.2,90.7z M157.9,90
				h0.9v0c0-0.2,0-0.3-0.1-0.4c-0.1-0.1-0.2-0.1-0.3-0.1c-0.1,0-0.3,0-0.3,0.1S157.9,89.8,157.9,90z"/>
			<path class="st3" d="M160,90.8c0.1,0,0.1,0,0.2,0.1s0.1,0.1,0.1,0.2c0,0.1,0,0.1-0.1,0.2s-0.1,0.1-0.2,0.1c-0.1,0-0.1,0-0.2-0.1
				c0,0-0.1-0.1-0.1-0.2c0-0.1,0-0.1,0.1-0.2C159.9,90.8,159.9,90.8,160,90.8z"/>
			<path class="st3" d="M161.4,90.8c0.1,0,0.1,0,0.2,0.1c0,0,0.1,0.1,0.1,0.2c0,0.1,0,0.1-0.1,0.2s-0.1,0.1-0.2,0.1
				c-0.1,0-0.1,0-0.2-0.1s-0.1-0.1-0.1-0.2c0-0.1,0-0.1,0.1-0.2S161.3,90.8,161.4,90.8z"/>
			<path class="st3" d="M162.8,90.8c0.1,0,0.1,0,0.2,0.1s0.1,0.1,0.1,0.2c0,0.1,0,0.1-0.1,0.2s-0.1,0.1-0.2,0.1
				c-0.1,0-0.1,0-0.2-0.1c0,0-0.1-0.1-0.1-0.2c0-0.1,0-0.1,0.1-0.2C162.7,90.8,162.8,90.8,162.8,90.8z"/>
		</g>
	</g>
	<g class="st2">
		<path class="st4" d="M94.6,110.5c0,0,0.1,0,0.1,0c0.1,0,0.1,0,0.2,0s0.1,0,0.2,0c0.1,0,0.1,0,0.1,0l0.7,3.2l0.8-3.2
			c0,0,0.1,0,0.1,0c0.1,0,0.1,0,0.1,0c0,0,0.1,0,0.1,0c0.1,0,0.1,0,0.1,0l0.8,3.2l0.7-3.2c0,0,0.1,0,0.1,0c0,0,0.1,0,0.1,0
			c0,0,0.1,0,0.2,0c0.1,0,0.1,0,0.1,0l-0.9,3.9c0,0-0.1,0-0.2,0c-0.1,0-0.1,0-0.2,0c0,0-0.1,0-0.2,0c-0.1,0-0.1,0-0.2,0l-0.8-3
			l-0.8,3c-0.1,0-0.1,0-0.2,0c-0.1,0-0.1,0-0.2,0c0,0-0.1,0-0.1,0c-0.1,0-0.1,0-0.1,0L94.6,110.5z"/>
		<path class="st4" d="M100,113.1c0,0.3,0.1,0.5,0.2,0.7c0.1,0.1,0.4,0.2,0.7,0.2c0.3,0,0.5,0,0.7-0.1c0,0.1,0.1,0.1,0.1,0.2
			c0,0.1,0,0.2,0,0.2c-0.1,0-0.2,0.1-0.4,0.1c-0.1,0-0.3,0-0.5,0c-0.3,0-0.5,0-0.6-0.1c-0.2-0.1-0.3-0.2-0.4-0.3s-0.2-0.3-0.3-0.5
			s-0.1-0.4-0.1-0.6c0-0.2,0-0.4,0.1-0.6c0.1-0.2,0.1-0.3,0.2-0.5s0.2-0.2,0.4-0.3c0.2-0.1,0.4-0.1,0.6-0.1c0.2,0,0.4,0,0.5,0.1
			s0.3,0.2,0.4,0.3c0.1,0.1,0.2,0.2,0.2,0.4c0.1,0.2,0.1,0.3,0.1,0.5c0,0.1,0,0.1,0,0.2c0,0.1,0,0.1,0,0.1H100z M101.4,112.7
			c0-0.1,0-0.2,0-0.3c0-0.1-0.1-0.2-0.1-0.2c-0.1-0.1-0.1-0.1-0.2-0.2c-0.1,0-0.2-0.1-0.3-0.1c-0.2,0-0.4,0.1-0.5,0.2
			c-0.1,0.1-0.2,0.3-0.2,0.6H101.4z"/>
		<path class="st4" d="M102.6,110.4c0,0,0.1,0,0.1,0c0,0,0.1,0,0.1,0c0,0,0.1,0,0.1,0c0.1,0,0.1,0,0.1,0v1.5
			c0.1-0.1,0.2-0.2,0.3-0.3c0.1-0.1,0.3-0.1,0.5-0.1c0.2,0,0.3,0,0.5,0.1s0.3,0.1,0.4,0.2s0.2,0.3,0.2,0.4c0.1,0.2,0.1,0.4,0.1,0.6
			c0,0.5-0.1,0.8-0.4,1.1s-0.7,0.4-1.2,0.4c-0.2,0-0.3,0-0.5,0s-0.3-0.1-0.4-0.1V110.4z M103.2,113.9c0.1,0,0.1,0,0.2,0s0.1,0,0.2,0
			c0.1,0,0.3,0,0.4-0.1s0.2-0.1,0.3-0.2c0.1-0.1,0.1-0.2,0.2-0.3s0.1-0.3,0.1-0.5c0-0.3-0.1-0.5-0.2-0.7c-0.1-0.2-0.3-0.2-0.5-0.2
			c-0.1,0-0.2,0-0.2,0c-0.1,0-0.2,0.1-0.2,0.1c-0.1,0.1-0.1,0.1-0.2,0.2c0,0.1-0.1,0.2-0.1,0.4V113.9z"/>
		<path class="st4" d="M105.8,113.9c0.1,0,0.2,0.1,0.3,0.1s0.2,0,0.3,0c0.1,0,0.2,0,0.2,0c0.1,0,0.1,0,0.2-0.1
			c0.1,0,0.1-0.1,0.1-0.1c0-0.1,0.1-0.1,0.1-0.2c0-0.1,0-0.1,0-0.2c0,0-0.1-0.1-0.1-0.1c0,0-0.1-0.1-0.2-0.1c-0.1,0-0.1,0-0.2-0.1
			l-0.2-0.1c-0.2-0.1-0.4-0.2-0.5-0.3c-0.1-0.1-0.2-0.3-0.2-0.4c0-0.2,0.1-0.4,0.3-0.6c0.2-0.1,0.4-0.2,0.8-0.2c0.1,0,0.3,0,0.4,0
			c0.1,0,0.3,0.1,0.4,0.1c0,0.1,0,0.1,0,0.2c0,0.1,0,0.1-0.1,0.2c-0.1,0-0.2-0.1-0.3-0.1c-0.1,0-0.2,0-0.4,0c-0.1,0-0.2,0-0.4,0.1
			c-0.1,0-0.2,0.1-0.2,0.2c0,0.1,0,0.1,0,0.2s0.1,0.1,0.1,0.1c0,0,0.1,0.1,0.1,0.1c0.1,0,0.1,0,0.2,0.1l0.2,0.1
			c0.1,0,0.2,0.1,0.2,0.1s0.1,0.1,0.2,0.1c0.1,0.1,0.1,0.1,0.1,0.2c0,0.1,0.1,0.2,0.1,0.3c0,0.1,0,0.3-0.1,0.4s-0.1,0.2-0.2,0.3
			c-0.1,0.1-0.2,0.1-0.4,0.2s-0.3,0.1-0.5,0.1c-0.2,0-0.3,0-0.5,0s-0.2-0.1-0.4-0.1c0-0.1,0-0.1,0-0.2
			C105.7,114,105.7,113.9,105.8,113.9z"/>
		<path class="st4" d="M108.4,112h-0.3c0,0,0-0.1,0-0.1c0,0,0-0.1,0-0.1c0,0,0-0.1,0-0.1c0,0,0-0.1,0-0.1h0.9v2.8c0,0-0.1,0-0.1,0
			c0,0-0.1,0-0.1,0c0,0-0.1,0-0.1,0c0,0-0.1,0-0.1,0V112z M108.3,111c0,0,0-0.1,0-0.1c0,0,0-0.1,0-0.1s0-0.1,0-0.1
			c0-0.1,0-0.1,0-0.1c0,0,0.1,0,0.2,0c0.1,0,0.1,0,0.1,0c0,0,0.1,0,0.1,0c0.1,0,0.1,0,0.1,0c0,0,0,0.1,0,0.1c0,0,0,0.1,0,0.1
			s0,0.1,0,0.1c0,0.1,0,0.1,0,0.1c0,0-0.1,0-0.1,0c-0.1,0-0.1,0-0.1,0c0,0-0.1,0-0.1,0C108.4,111,108.3,111,108.3,111z"/>
		<path class="st4" d="M109.9,112h-0.4l0-0.1l0.9-1h0v0.7h0.7c0,0.1,0,0.1,0,0.2c0,0,0,0.1,0,0.1c0,0,0,0.1,0,0.1h-0.7v1.3
			c0,0.2,0,0.3,0,0.4c0,0.1,0,0.2,0.1,0.2c0,0,0.1,0.1,0.1,0.1c0.1,0,0.1,0,0.2,0c0.1,0,0.1,0,0.2,0s0.1,0,0.1,0c0,0.1,0,0.1,0,0.2
			s0,0.1,0,0.2c-0.1,0-0.1,0-0.2,0s-0.2,0-0.3,0c-0.3,0-0.5-0.1-0.6-0.2c-0.1-0.1-0.2-0.3-0.2-0.6V112z"/>
		<path class="st4" d="M112.1,113.1c0,0.3,0.1,0.5,0.2,0.7c0.1,0.1,0.4,0.2,0.7,0.2c0.3,0,0.5,0,0.7-0.1c0,0.1,0.1,0.1,0.1,0.2
			c0,0.1,0,0.2,0,0.2c-0.1,0-0.2,0.1-0.4,0.1c-0.1,0-0.3,0-0.5,0c-0.3,0-0.5,0-0.6-0.1c-0.2-0.1-0.3-0.2-0.4-0.3s-0.2-0.3-0.3-0.5
			s-0.1-0.4-0.1-0.6c0-0.2,0-0.4,0.1-0.6c0.1-0.2,0.1-0.3,0.2-0.5s0.2-0.2,0.4-0.3c0.2-0.1,0.4-0.1,0.6-0.1c0.2,0,0.4,0,0.5,0.1
			s0.3,0.2,0.4,0.3c0.1,0.1,0.2,0.2,0.2,0.4c0.1,0.2,0.1,0.3,0.1,0.5c0,0.1,0,0.1,0,0.2c0,0.1,0,0.1,0,0.1H112.1z M113.5,112.7
			c0-0.1,0-0.2,0-0.3c0-0.1-0.1-0.2-0.1-0.2c-0.1-0.1-0.1-0.1-0.2-0.2c-0.1,0-0.2-0.1-0.3-0.1c-0.2,0-0.4,0.1-0.5,0.2
			c-0.1,0.1-0.2,0.3-0.2,0.6H113.5z"/>
		<path class="st4" d="M116.1,112h-0.3c0,0,0-0.1,0-0.1c0,0,0-0.1,0-0.1c0,0,0-0.1,0-0.1c0,0,0-0.1,0-0.1h0.9v2.8c0,0-0.1,0-0.1,0
			c0,0-0.1,0-0.1,0c0,0-0.1,0-0.1,0c0,0-0.1,0-0.1,0V112z M116,111c0,0,0-0.1,0-0.1c0,0,0-0.1,0-0.1s0-0.1,0-0.1c0-0.1,0-0.1,0-0.1
			c0,0,0.1,0,0.2,0c0.1,0,0.1,0,0.1,0c0,0,0.1,0,0.1,0c0.1,0,0.1,0,0.1,0c0,0,0,0.1,0,0.1c0,0,0,0.1,0,0.1s0,0.1,0,0.1
			c0,0.1,0,0.1,0,0.1c0,0-0.1,0-0.1,0c-0.1,0-0.1,0-0.1,0c0,0-0.1,0-0.1,0C116.1,111,116.1,111,116,111z"/>
		<path class="st4" d="M117.5,113.9c0.1,0,0.2,0.1,0.3,0.1s0.2,0,0.3,0c0.1,0,0.2,0,0.2,0c0.1,0,0.1,0,0.2-0.1
			c0.1,0,0.1-0.1,0.1-0.1c0-0.1,0.1-0.1,0.1-0.2c0-0.1,0-0.1,0-0.2c0,0-0.1-0.1-0.1-0.1c0,0-0.1-0.1-0.2-0.1c-0.1,0-0.1,0-0.2-0.1
			l-0.2-0.1c-0.2-0.1-0.4-0.2-0.5-0.3c-0.1-0.1-0.2-0.3-0.2-0.4c0-0.2,0.1-0.4,0.3-0.6c0.2-0.1,0.4-0.2,0.8-0.2c0.1,0,0.3,0,0.4,0
			c0.1,0,0.3,0.1,0.4,0.1c0,0.1,0,0.1,0,0.2c0,0.1,0,0.1-0.1,0.2c-0.1,0-0.2-0.1-0.3-0.1c-0.1,0-0.2,0-0.4,0c-0.1,0-0.2,0-0.4,0.1
			c-0.1,0-0.2,0.1-0.2,0.2c0,0.1,0,0.1,0,0.2s0.1,0.1,0.1,0.1c0,0,0.1,0.1,0.1,0.1c0.1,0,0.1,0,0.2,0.1l0.2,0.1
			c0.1,0,0.2,0.1,0.2,0.1s0.1,0.1,0.2,0.1c0.1,0.1,0.1,0.1,0.1,0.2c0,0.1,0.1,0.2,0.1,0.3c0,0.1,0,0.3-0.1,0.4s-0.1,0.2-0.2,0.3
			c-0.1,0.1-0.2,0.1-0.4,0.2s-0.3,0.1-0.5,0.1c-0.2,0-0.3,0-0.5,0s-0.2-0.1-0.4-0.1c0-0.1,0-0.1,0-0.2
			C117.4,114,117.4,113.9,117.5,113.9z"/>
		<path class="st4" d="M121.2,111.6c0,0,0.1,0,0.1,0c0.1,0,0.1,0,0.1,0c0,0,0.1,0,0.1,0c0,0,0.1,0,0.1,0v1.5c0,0.2,0,0.3,0,0.4
			s0.1,0.2,0.1,0.3s0.1,0.1,0.2,0.1c0.1,0,0.2,0,0.3,0c0.2,0,0.3,0,0.5-0.1v-2.3c0,0,0.1,0,0.1,0c0,0,0.1,0,0.1,0c0,0,0.1,0,0.1,0
			c0,0,0.1,0,0.1,0v2.7c-0.1,0-0.3,0.1-0.4,0.1c-0.2,0-0.4,0-0.5,0c-0.2,0-0.3,0-0.5,0c-0.2,0-0.3-0.1-0.4-0.2
			c-0.1-0.1-0.2-0.2-0.3-0.4c-0.1-0.2-0.1-0.4-0.1-0.7V111.6z"/>
		<path class="st4" d="M124.3,111.6c0,0,0.1,0,0.1,0c0,0,0.1,0,0.1,0c0,0,0.1,0,0.1,0c0,0,0.1,0,0.1,0c0,0.1,0,0.1,0,0.2
			c0,0.1,0,0.2,0,0.2c0-0.1,0.1-0.1,0.1-0.2c0.1-0.1,0.1-0.1,0.2-0.2c0.1,0,0.2-0.1,0.2-0.1c0.1,0,0.2,0,0.3,0
			c0.3,0,0.5,0.1,0.7,0.3c0.2,0.2,0.2,0.4,0.2,0.8v1.7c0,0-0.1,0-0.1,0c-0.1,0-0.1,0-0.1,0c0,0-0.1,0-0.1,0c0,0-0.1,0-0.1,0v-1.6
			c0-0.3,0-0.4-0.1-0.6c-0.1-0.1-0.2-0.2-0.4-0.2c-0.1,0-0.2,0-0.3,0.1c-0.1,0-0.2,0.1-0.2,0.2c-0.1,0.1-0.1,0.2-0.2,0.3
			c0,0.1-0.1,0.3-0.1,0.4v1.4c0,0-0.1,0-0.1,0c0,0-0.1,0-0.1,0c0,0-0.1,0-0.1,0c-0.1,0-0.1,0-0.1,0V111.6z"/>
		<path class="st4" d="M129.2,110.4c0,0,0.1,0,0.1,0c0,0,0.1,0,0.1,0c0,0,0.1,0,0.1,0c0,0,0.1,0,0.1,0v3.9c-0.1,0-0.3,0.1-0.5,0.1
			c-0.2,0-0.4,0-0.6,0c-0.2,0-0.4,0-0.6-0.1c-0.2,0-0.3-0.1-0.5-0.2c-0.1-0.1-0.2-0.3-0.3-0.4c-0.1-0.2-0.1-0.4-0.1-0.6
			c0-0.2,0-0.4,0.1-0.6c0.1-0.2,0.2-0.3,0.3-0.5s0.3-0.2,0.4-0.3c0.2-0.1,0.4-0.1,0.6-0.1c0.1,0,0.2,0,0.3,0c0.1,0,0.2,0,0.2,0.1
			V110.4z M129.2,112.1c-0.1,0-0.1,0-0.2-0.1c-0.1,0-0.2,0-0.3,0c-0.1,0-0.3,0-0.4,0.1c-0.1,0.1-0.2,0.1-0.3,0.2
			c-0.1,0.1-0.1,0.2-0.2,0.3c0,0.1-0.1,0.3-0.1,0.4c0,0.3,0.1,0.6,0.2,0.7c0.2,0.1,0.4,0.2,0.6,0.2c0.1,0,0.2,0,0.3,0s0.1,0,0.2,0
			V112.1z"/>
		<path class="st4" d="M130.9,113.1c0,0.3,0.1,0.5,0.2,0.7c0.1,0.1,0.4,0.2,0.7,0.2c0.3,0,0.5,0,0.7-0.1c0,0.1,0.1,0.1,0.1,0.2
			c0,0.1,0,0.2,0,0.2c-0.1,0-0.2,0.1-0.4,0.1c-0.1,0-0.3,0-0.5,0c-0.3,0-0.5,0-0.6-0.1c-0.2-0.1-0.3-0.2-0.4-0.3s-0.2-0.3-0.3-0.5
			s-0.1-0.4-0.1-0.6c0-0.2,0-0.4,0.1-0.6c0.1-0.2,0.1-0.3,0.2-0.5s0.2-0.2,0.4-0.3c0.2-0.1,0.4-0.1,0.6-0.1c0.2,0,0.4,0,0.5,0.1
			c0.1,0.1,0.3,0.2,0.4,0.3c0.1,0.1,0.2,0.2,0.2,0.4c0,0.2,0.1,0.3,0.1,0.5c0,0.1,0,0.1,0,0.2c0,0.1,0,0.1,0,0.1H130.9z
			 M132.3,112.7c0-0.1,0-0.2,0-0.3c0-0.1-0.1-0.2-0.1-0.2s-0.1-0.1-0.2-0.2c-0.1,0-0.2-0.1-0.3-0.1c-0.2,0-0.4,0.1-0.5,0.2
			c-0.1,0.1-0.2,0.3-0.2,0.6H132.3z"/>
		<path class="st4" d="M133.5,111.6c0,0,0.1,0,0.1,0c0,0,0.1,0,0.1,0s0.1,0,0.1,0c0,0,0.1,0,0.1,0c0,0.1,0,0.1,0,0.2s0,0.2,0,0.2
			c0.1-0.1,0.2-0.2,0.3-0.3c0.1-0.1,0.3-0.1,0.5-0.1c0,0,0.1,0,0.1,0c0,0,0.1,0,0.1,0c0,0,0,0.1,0,0.1c0,0,0,0.1,0,0.1
			c0,0,0,0.1,0,0.1c0,0,0,0.1,0,0.1c0,0-0.1,0-0.1,0s-0.1,0-0.1,0c-0.1,0-0.2,0-0.3,0c-0.1,0-0.2,0.1-0.2,0.1
			c-0.1,0.1-0.1,0.2-0.2,0.3c0,0.1-0.1,0.3-0.1,0.5v1.4c0,0-0.1,0-0.1,0c0,0-0.1,0-0.1,0s-0.1,0-0.1,0c0,0-0.1,0-0.1,0V111.6z"/>
		<path class="st4" d="M138.6,113.9c0,0,0.1,0.1,0.1,0.2s0,0.2,0,0.2c-0.2,0.1-0.5,0.1-0.7,0.1c-0.5,0-0.8-0.1-1-0.4
			c-0.2-0.3-0.3-0.6-0.3-1c0-0.2,0-0.4,0.1-0.6c0.1-0.2,0.1-0.3,0.3-0.5c0.1-0.1,0.3-0.2,0.4-0.3c0.2-0.1,0.4-0.1,0.6-0.1
			c0.2,0,0.3,0,0.4,0c0.1,0,0.2,0,0.3,0.1c0,0.1,0,0.1,0,0.2c0,0.1,0,0.2-0.1,0.2c-0.2-0.1-0.4-0.1-0.6-0.1c-0.3,0-0.5,0.1-0.6,0.3
			c-0.1,0.2-0.2,0.4-0.2,0.7c0,0.3,0.1,0.6,0.2,0.8c0.2,0.2,0.4,0.2,0.6,0.2c0.1,0,0.2,0,0.3,0C138.5,114,138.5,113.9,138.6,113.9z"
			/>
		<path class="st4" d="M140.4,114.4c-0.2,0-0.4,0-0.6-0.1s-0.3-0.2-0.4-0.3s-0.2-0.3-0.2-0.5c-0.1-0.2-0.1-0.4-0.1-0.6
			s0-0.4,0.1-0.6c0.1-0.2,0.1-0.3,0.2-0.5s0.2-0.2,0.4-0.3c0.2-0.1,0.3-0.1,0.6-0.1s0.4,0,0.6,0.1c0.2,0.1,0.3,0.2,0.4,0.3
			s0.2,0.3,0.2,0.5c0.1,0.2,0.1,0.4,0.1,0.6s0,0.4-0.1,0.6c-0.1,0.2-0.1,0.3-0.2,0.5s-0.2,0.2-0.4,0.3S140.6,114.4,140.4,114.4z
			 M140.4,114c0.2,0,0.4-0.1,0.5-0.3s0.2-0.4,0.2-0.7s-0.1-0.6-0.2-0.7c-0.1-0.2-0.3-0.3-0.5-0.3s-0.4,0.1-0.5,0.3
			c-0.1,0.2-0.2,0.4-0.2,0.7s0.1,0.6,0.2,0.7S140.2,114,140.4,114z"/>
		<path class="st4" d="M142.4,111.6c0,0,0.1,0,0.1,0c0,0,0.1,0,0.1,0c0,0,0.1,0,0.1,0c0,0,0.1,0,0.1,0c0,0.1,0,0.1,0,0.2
			c0,0.1,0,0.2,0,0.2c0-0.1,0.1-0.1,0.1-0.2c0.1-0.1,0.1-0.1,0.2-0.2c0.1,0,0.2-0.1,0.2-0.1c0.1,0,0.2,0,0.3,0
			c0.3,0,0.5,0.1,0.7,0.3s0.2,0.4,0.2,0.8v1.7c0,0-0.1,0-0.1,0c0,0-0.1,0-0.1,0s-0.1,0-0.1,0c0,0-0.1,0-0.1,0v-1.6
			c0-0.3,0-0.4-0.1-0.6c-0.1-0.1-0.2-0.2-0.4-0.2c-0.1,0-0.2,0-0.3,0.1c-0.1,0-0.2,0.1-0.2,0.2c-0.1,0.1-0.1,0.2-0.2,0.3
			c0,0.1-0.1,0.3-0.1,0.4v1.4c0,0-0.1,0-0.1,0c0,0-0.1,0-0.1,0s-0.1,0-0.1,0c-0.1,0-0.1,0-0.1,0V111.6z"/>
		<path class="st4" d="M145.4,113.9c0.1,0,0.2,0.1,0.3,0.1s0.2,0,0.3,0c0.1,0,0.2,0,0.2,0c0.1,0,0.1,0,0.2-0.1
			c0.1,0,0.1-0.1,0.1-0.1s0.1-0.1,0.1-0.2c0-0.1,0-0.1,0-0.2c0,0-0.1-0.1-0.1-0.1c0,0-0.1-0.1-0.2-0.1c-0.1,0-0.1,0-0.2-0.1
			l-0.2-0.1c-0.2-0.1-0.4-0.2-0.5-0.3c-0.1-0.1-0.2-0.3-0.2-0.4c0-0.2,0.1-0.4,0.3-0.6c0.2-0.1,0.4-0.2,0.8-0.2c0.1,0,0.3,0,0.4,0
			c0.1,0,0.3,0.1,0.4,0.1c0,0.1,0,0.1,0,0.2c0,0.1,0,0.1-0.1,0.2c-0.1,0-0.2-0.1-0.3-0.1c-0.1,0-0.2,0-0.4,0c-0.1,0-0.3,0-0.4,0.1
			c-0.1,0-0.2,0.1-0.2,0.2c0,0.1,0,0.1,0,0.2c0,0,0.1,0.1,0.1,0.1c0,0,0.1,0.1,0.1,0.1c0.1,0,0.1,0,0.2,0.1l0.2,0.1
			c0.1,0,0.2,0.1,0.2,0.1s0.1,0.1,0.2,0.1c0.1,0.1,0.1,0.1,0.1,0.2s0.1,0.2,0.1,0.3c0,0.1,0,0.3-0.1,0.4s-0.1,0.2-0.2,0.3
			s-0.2,0.1-0.4,0.2s-0.3,0.1-0.5,0.1c-0.2,0-0.3,0-0.5,0s-0.2-0.1-0.4-0.1c0-0.1,0-0.1,0-0.2C145.4,114,145.4,113.9,145.4,113.9z"
			/>
		<path class="st4" d="M148,112h-0.4l0-0.1l0.9-1h0v0.7h0.7c0,0.1,0,0.1,0,0.2c0,0,0,0.1,0,0.1c0,0,0,0.1,0,0.1h-0.7v1.3
			c0,0.2,0,0.3,0,0.4c0,0.1,0,0.2,0.1,0.2c0,0,0.1,0.1,0.1,0.1c0.1,0,0.1,0,0.2,0c0.1,0,0.1,0,0.2,0s0.1,0,0.1,0c0,0.1,0,0.1,0,0.2
			c0,0.1,0,0.1,0,0.2c-0.1,0-0.1,0-0.2,0c-0.1,0-0.2,0-0.3,0c-0.3,0-0.5-0.1-0.6-0.2c-0.1-0.1-0.2-0.3-0.2-0.6V112z"/>
		<path class="st4" d="M149.8,111.6c0,0,0.1,0,0.1,0c0,0,0.1,0,0.1,0c0,0,0.1,0,0.1,0c0,0,0.1,0,0.1,0c0,0.1,0,0.1,0,0.2
			s0,0.2,0,0.2c0.1-0.1,0.2-0.2,0.3-0.3c0.1-0.1,0.3-0.1,0.5-0.1c0,0,0.1,0,0.1,0c0,0,0.1,0,0.1,0c0,0,0,0.1,0,0.1s0,0.1,0,0.1
			c0,0,0,0.1,0,0.1c0,0,0,0.1,0,0.1c0,0-0.1,0-0.1,0s-0.1,0-0.1,0c-0.1,0-0.2,0-0.3,0c-0.1,0-0.2,0.1-0.2,0.1
			c-0.1,0.1-0.1,0.2-0.2,0.3s-0.1,0.3-0.1,0.5v1.4c0,0-0.1,0-0.1,0c0,0-0.1,0-0.1,0c0,0-0.1,0-0.1,0c0,0-0.1,0-0.1,0V111.6z"/>
		<path class="st4" d="M151.8,111.6c0,0,0.1,0,0.1,0c0.1,0,0.1,0,0.1,0c0,0,0.1,0,0.1,0c0,0,0.1,0,0.1,0v1.5c0,0.2,0,0.3,0,0.4
			s0.1,0.2,0.1,0.3s0.1,0.1,0.2,0.1c0.1,0,0.2,0,0.3,0c0.2,0,0.3,0,0.5-0.1v-2.3c0,0,0.1,0,0.1,0c0,0,0.1,0,0.1,0c0,0,0.1,0,0.1,0
			c0,0,0.1,0,0.1,0v2.7c-0.1,0-0.3,0.1-0.4,0.1c-0.2,0-0.4,0-0.5,0c-0.2,0-0.3,0-0.5,0c-0.2,0-0.3-0.1-0.4-0.2
			c-0.1-0.1-0.2-0.2-0.3-0.4c-0.1-0.2-0.1-0.4-0.1-0.7V111.6z"/>
		<path class="st4" d="M156.8,113.9c0,0,0.1,0.1,0.1,0.2s0,0.2,0,0.2c-0.2,0.1-0.5,0.1-0.7,0.1c-0.5,0-0.8-0.1-1-0.4
			c-0.2-0.3-0.3-0.6-0.3-1c0-0.2,0-0.4,0.1-0.6c0.1-0.2,0.1-0.3,0.3-0.5s0.3-0.2,0.4-0.3c0.2-0.1,0.4-0.1,0.6-0.1c0.2,0,0.3,0,0.4,0
			c0.1,0,0.2,0,0.3,0.1c0,0.1,0,0.1,0,0.2c0,0.1,0,0.2-0.1,0.2c-0.2-0.1-0.4-0.1-0.6-0.1c-0.3,0-0.5,0.1-0.6,0.3
			c-0.1,0.2-0.2,0.4-0.2,0.7c0,0.3,0.1,0.6,0.2,0.8c0.2,0.2,0.4,0.2,0.6,0.2c0.1,0,0.2,0,0.3,0C156.6,114,156.7,113.9,156.8,113.9z"
			/>
		<path class="st4" d="M157.6,112h-0.4l0-0.1l0.9-1h0v0.7h0.7c0,0.1,0,0.1,0,0.2c0,0,0,0.1,0,0.1c0,0,0,0.1,0,0.1h-0.7v1.3
			c0,0.2,0,0.3,0,0.4c0,0.1,0,0.2,0.1,0.2c0,0,0.1,0.1,0.1,0.1c0.1,0,0.1,0,0.2,0c0.1,0,0.1,0,0.2,0s0.1,0,0.1,0c0,0.1,0,0.1,0,0.2
			c0,0.1,0,0.1,0,0.2c-0.1,0-0.1,0-0.2,0c-0.1,0-0.2,0-0.3,0c-0.3,0-0.5-0.1-0.6-0.2c-0.1-0.1-0.2-0.3-0.2-0.6V112z"/>
		<path class="st4" d="M159.6,112h-0.3c0,0,0-0.1,0-0.1c0,0,0-0.1,0-0.1c0,0,0-0.1,0-0.1c0,0,0-0.1,0-0.1h0.9v2.8c0,0-0.1,0-0.1,0
			c0,0-0.1,0-0.1,0c0,0-0.1,0-0.1,0c0,0-0.1,0-0.1,0V112z M159.5,111c0,0,0-0.1,0-0.1c0,0,0-0.1,0-0.1s0-0.1,0-0.1
			c0-0.1,0-0.1,0-0.1c0,0,0.1,0,0.2,0c0.1,0,0.1,0,0.1,0s0.1,0,0.1,0c0.1,0,0.1,0,0.1,0c0,0,0,0.1,0,0.1c0,0,0,0.1,0,0.1
			s0,0.1,0,0.1c0,0.1,0,0.1,0,0.1c0,0-0.1,0-0.1,0c-0.1,0-0.1,0-0.1,0c0,0-0.1,0-0.1,0C159.5,111,159.5,111,159.5,111z"/>
		<path class="st4" d="M162.1,114.4c-0.2,0-0.4,0-0.6-0.1s-0.3-0.2-0.4-0.3s-0.2-0.3-0.2-0.5c-0.1-0.2-0.1-0.4-0.1-0.6
			s0-0.4,0.1-0.6c0.1-0.2,0.1-0.3,0.2-0.5s0.2-0.2,0.4-0.3c0.2-0.1,0.3-0.1,0.6-0.1s0.4,0,0.6,0.1c0.2,0.1,0.3,0.2,0.4,0.3
			s0.2,0.3,0.2,0.5c0.1,0.2,0.1,0.4,0.1,0.6s0,0.4-0.1,0.6c-0.1,0.2-0.1,0.3-0.2,0.5s-0.2,0.2-0.4,0.3S162.3,114.4,162.1,114.4z
			 M162.1,114c0.2,0,0.4-0.1,0.5-0.3s0.2-0.4,0.2-0.7s-0.1-0.6-0.2-0.7c-0.1-0.2-0.3-0.3-0.5-0.3s-0.4,0.1-0.5,0.3
			c-0.1,0.2-0.2,0.4-0.2,0.7s0.1,0.6,0.2,0.7S161.8,114,162.1,114z"/>
		<path class="st4" d="M164,111.6c0,0,0.1,0,0.1,0c0,0,0.1,0,0.1,0c0,0,0.1,0,0.1,0c0,0,0.1,0,0.1,0c0,0.1,0,0.1,0,0.2
			c0,0.1,0,0.2,0,0.2c0-0.1,0.1-0.1,0.1-0.2c0.1-0.1,0.1-0.1,0.2-0.2c0.1,0,0.2-0.1,0.2-0.1c0.1,0,0.2,0,0.3,0
			c0.3,0,0.5,0.1,0.7,0.3s0.2,0.4,0.2,0.8v1.7c0,0-0.1,0-0.1,0c0,0-0.1,0-0.1,0s-0.1,0-0.1,0c0,0-0.1,0-0.1,0v-1.6
			c0-0.3,0-0.4-0.1-0.6c-0.1-0.1-0.2-0.2-0.4-0.2c-0.1,0-0.2,0-0.3,0.1c-0.1,0-0.2,0.1-0.2,0.2c-0.1,0.1-0.1,0.2-0.2,0.3
			c0,0.1-0.1,0.3-0.1,0.4v1.4c0,0-0.1,0-0.1,0c0,0-0.1,0-0.1,0s-0.1,0-0.1,0c-0.1,0-0.1,0-0.1,0V111.6z"/>
	</g>
	<g class="st2">
		<path class="st4" d="M117.8,120.8h1.4c0,0,0,0.1,0,0.1s0,0.1,0,0.1s0,0.1,0,0.1c0,0,0,0.1,0,0.1h-1v0.8h0.8c0,0,0,0.1,0,0.1
			c0,0,0,0.1,0,0.1s0,0.1,0,0.1c0,0,0,0.1,0,0.1h-0.8v1.2c0,0-0.1,0-0.1,0c0,0-0.1,0-0.1,0c0,0-0.1,0-0.1,0c0,0-0.1,0-0.1,0V120.8z"
			/>
		<path class="st4" d="M120.2,123.5c-0.1,0-0.3,0-0.4-0.1c-0.1,0-0.2-0.1-0.3-0.2c-0.1-0.1-0.1-0.2-0.2-0.3s-0.1-0.2-0.1-0.4
			s0-0.3,0.1-0.4c0-0.1,0.1-0.2,0.2-0.3c0.1-0.1,0.2-0.2,0.3-0.2s0.2-0.1,0.4-0.1s0.3,0,0.4,0.1c0.1,0.1,0.2,0.1,0.3,0.2
			c0.1,0.1,0.1,0.2,0.2,0.3c0,0.1,0.1,0.2,0.1,0.4s0,0.3-0.1,0.4c0,0.1-0.1,0.2-0.2,0.3c-0.1,0.1-0.2,0.2-0.3,0.2
			C120.5,123.5,120.4,123.5,120.2,123.5z M120.2,123.2c0.2,0,0.3-0.1,0.4-0.2c0.1-0.1,0.1-0.3,0.1-0.5c0-0.2,0-0.4-0.1-0.5
			c-0.1-0.1-0.2-0.2-0.4-0.2c-0.2,0-0.3,0.1-0.4,0.2c-0.1,0.1-0.1,0.3-0.1,0.5c0,0.2,0,0.4,0.1,0.5S120.1,123.2,120.2,123.2z"/>
		<path class="st4" d="M121.5,121.6C121.6,121.6,121.6,121.6,121.5,121.6c0.1,0,0.1,0,0.2,0c0,0,0.1,0,0.1,0c0,0,0.1,0,0.1,0
			c0,0,0,0.1,0,0.1c0,0.1,0,0.1,0,0.1c0.1-0.1,0.1-0.2,0.2-0.2c0.1-0.1,0.2-0.1,0.3-0.1c0,0,0,0,0.1,0c0,0,0,0,0.1,0c0,0,0,0,0,0.1
			c0,0,0,0,0,0.1c0,0,0,0.1,0,0.1c0,0,0,0.1,0,0.1c0,0,0,0-0.1,0c0,0,0,0,0,0c-0.1,0-0.1,0-0.2,0c-0.1,0-0.1,0-0.2,0.1
			s-0.1,0.1-0.1,0.2c0,0.1,0,0.2,0,0.3v0.9c0,0-0.1,0-0.1,0s-0.1,0-0.1,0s-0.1,0-0.1,0c0,0-0.1,0-0.1,0V121.6z"/>
		<path class="st4" d="M123.7,121.6C123.8,121.6,123.8,121.6,123.7,121.6c0.1,0,0.1,0,0.2,0s0.1,0,0.1,0c0,0,0,0,0.1,0
			c0,0,0,0.1,0,0.1c0,0.1,0,0.1,0,0.1c0,0,0-0.1,0.1-0.1c0,0,0.1-0.1,0.1-0.1s0.1-0.1,0.2-0.1s0.1,0,0.2,0c0.1,0,0.3,0,0.3,0.1
			c0.1,0.1,0.1,0.1,0.2,0.2c0,0,0.1-0.1,0.1-0.1s0.1-0.1,0.1-0.1c0,0,0.1-0.1,0.1-0.1s0.1,0,0.2,0c0.2,0,0.4,0.1,0.5,0.2
			s0.1,0.3,0.1,0.5v1.2c0,0-0.1,0-0.1,0s-0.1,0-0.1,0s-0.1,0-0.1,0c0,0-0.1,0-0.1,0v-1.1c0-0.2,0-0.3-0.1-0.4s-0.1-0.1-0.2-0.1
			c-0.1,0-0.2,0-0.3,0.1s-0.1,0.2-0.1,0.4v1c0,0-0.1,0-0.1,0s-0.1,0-0.1,0s-0.1,0-0.1,0c0,0-0.1,0-0.1,0v-1.1c0-0.2,0-0.3-0.1-0.4
			c0-0.1-0.1-0.1-0.2-0.1c-0.1,0-0.1,0-0.2,0s-0.1,0.1-0.1,0.1c0,0.1-0.1,0.1-0.1,0.2c0,0.1,0,0.2,0,0.3v0.9c0,0-0.1,0-0.1,0
			s-0.1,0-0.1,0s-0.1,0-0.1,0s-0.1,0-0.1,0V121.6z"/>
		<path class="st4" d="M127.6,123.5c-0.1,0-0.3,0-0.4-0.1c-0.1,0-0.2-0.1-0.3-0.2c-0.1-0.1-0.1-0.2-0.2-0.3s-0.1-0.2-0.1-0.4
			s0-0.3,0.1-0.4c0-0.1,0.1-0.2,0.2-0.3c0.1-0.1,0.2-0.2,0.3-0.2s0.2-0.1,0.4-0.1s0.3,0,0.4,0.1c0.1,0.1,0.2,0.1,0.3,0.2
			c0.1,0.1,0.1,0.2,0.2,0.3c0,0.1,0.1,0.2,0.1,0.4s0,0.3-0.1,0.4c0,0.1-0.1,0.2-0.2,0.3c-0.1,0.1-0.2,0.2-0.3,0.2
			C127.8,123.5,127.7,123.5,127.6,123.5z M127.6,123.2c0.2,0,0.3-0.1,0.4-0.2c0.1-0.1,0.1-0.3,0.1-0.5c0-0.2,0-0.4-0.1-0.5
			c-0.1-0.1-0.2-0.2-0.4-0.2c-0.2,0-0.3,0.1-0.4,0.2c-0.1,0.1-0.1,0.3-0.1,0.5c0,0.2,0,0.4,0.1,0.5S127.4,123.2,127.6,123.2z"/>
		<path class="st4" d="M128.9,121.6C128.9,121.6,128.9,121.6,128.9,121.6c0.1,0,0.1,0,0.2,0c0,0,0.1,0,0.1,0c0,0,0.1,0,0.1,0
			c0,0,0,0.1,0,0.1c0,0.1,0,0.1,0,0.1c0.1-0.1,0.1-0.2,0.2-0.2c0.1-0.1,0.2-0.1,0.3-0.1c0,0,0,0,0.1,0c0,0,0,0,0.1,0c0,0,0,0,0,0.1
			c0,0,0,0,0,0.1c0,0,0,0.1,0,0.1c0,0,0,0.1,0,0.1c0,0,0,0-0.1,0c0,0,0,0,0,0c-0.1,0-0.1,0-0.2,0c-0.1,0-0.1,0-0.2,0.1
			s-0.1,0.1-0.1,0.2c0,0.1,0,0.2,0,0.3v0.9c0,0-0.1,0-0.1,0s-0.1,0-0.1,0s-0.1,0-0.1,0c0,0-0.1,0-0.1,0V121.6z"/>
		<path class="st4" d="M130.4,122.6c0,0.2,0.1,0.3,0.2,0.4s0.2,0.1,0.4,0.1c0.2,0,0.3,0,0.5-0.1c0,0,0,0.1,0,0.1c0,0.1,0,0.1,0,0.2
			c-0.1,0-0.2,0.1-0.3,0.1c-0.1,0-0.2,0-0.3,0c-0.2,0-0.3,0-0.4-0.1s-0.2-0.1-0.3-0.2c-0.1-0.1-0.1-0.2-0.2-0.3s-0.1-0.2-0.1-0.4
			c0-0.1,0-0.3,0.1-0.4c0-0.1,0.1-0.2,0.2-0.3c0.1-0.1,0.2-0.2,0.3-0.2s0.2-0.1,0.4-0.1c0.1,0,0.2,0,0.3,0.1c0.1,0,0.2,0.1,0.2,0.2
			c0.1,0.1,0.1,0.2,0.1,0.3c0,0.1,0.1,0.2,0.1,0.3c0,0,0,0.1,0,0.1c0,0,0,0.1,0,0.1H130.4z M131.4,122.3c0-0.1,0-0.1,0-0.2
			c0-0.1,0-0.1-0.1-0.2c0,0-0.1-0.1-0.1-0.1c-0.1,0-0.1,0-0.2,0c-0.1,0-0.3,0-0.3,0.1s-0.1,0.2-0.1,0.4H131.4z"/>
		<path class="st4" d="M134.2,120.8C134.2,120.8,134.3,120.8,134.2,120.8c0.1,0,0.2,0,0.2,0c0,0,0.1,0,0.1,0c0,0,0.1,0,0.1,0v2.6
			c-0.1,0-0.2,0-0.3,0.1c-0.1,0-0.2,0-0.4,0c-0.1,0-0.3,0-0.4,0c-0.1,0-0.2-0.1-0.3-0.2c-0.1-0.1-0.2-0.2-0.2-0.3
			c0-0.1-0.1-0.3-0.1-0.4c0-0.1,0-0.3,0.1-0.4c0-0.1,0.1-0.2,0.2-0.3c0.1-0.1,0.2-0.2,0.3-0.2s0.2-0.1,0.4-0.1c0.1,0,0.1,0,0.2,0
			c0.1,0,0.1,0,0.2,0V120.8z M134.2,121.9c0,0-0.1,0-0.2,0c-0.1,0-0.1,0-0.2,0c-0.1,0-0.2,0-0.3,0.1c-0.1,0-0.1,0.1-0.2,0.1
			s-0.1,0.1-0.1,0.2s0,0.2,0,0.3c0,0.2,0.1,0.4,0.2,0.5s0.2,0.1,0.4,0.1c0.1,0,0.1,0,0.2,0s0.1,0,0.1,0V121.9z"/>
		<path class="st4" d="M135.4,122.6c0,0.2,0.1,0.3,0.2,0.4s0.2,0.1,0.4,0.1c0.2,0,0.3,0,0.5-0.1c0,0,0,0.1,0,0.1c0,0.1,0,0.1,0,0.2
			c-0.1,0-0.2,0.1-0.3,0.1c-0.1,0-0.2,0-0.3,0c-0.2,0-0.3,0-0.4-0.1s-0.2-0.1-0.3-0.2c-0.1-0.1-0.1-0.2-0.2-0.3s-0.1-0.2-0.1-0.4
			c0-0.1,0-0.3,0.1-0.4c0-0.1,0.1-0.2,0.2-0.3c0.1-0.1,0.2-0.2,0.3-0.2s0.2-0.1,0.4-0.1c0.1,0,0.2,0,0.3,0.1s0.2,0.1,0.2,0.2
			c0.1,0.1,0.1,0.2,0.1,0.3s0.1,0.2,0.1,0.3c0,0,0,0.1,0,0.1c0,0,0,0.1,0,0.1H135.4z M136.3,122.3c0-0.1,0-0.1,0-0.2
			c0-0.1,0-0.1-0.1-0.2c0,0-0.1-0.1-0.1-0.1c-0.1,0-0.1,0-0.2,0c-0.1,0-0.3,0-0.3,0.1s-0.1,0.2-0.1,0.4H136.3z"/>
		<path class="st4" d="M137.2,121.9h-0.3l0-0.1l0.6-0.7h0v0.5h0.5c0,0,0,0.1,0,0.1c0,0,0,0.1,0,0.1c0,0,0,0,0,0.1h-0.5v0.8
			c0,0.1,0,0.2,0,0.2c0,0.1,0,0.1,0,0.1c0,0,0,0.1,0.1,0.1c0,0,0.1,0,0.1,0c0,0,0.1,0,0.1,0c0,0,0.1,0,0.1,0c0,0,0,0.1,0,0.1
			c0,0.1,0,0.1,0,0.1c0,0-0.1,0-0.2,0s-0.1,0-0.2,0c-0.2,0-0.3,0-0.4-0.1c-0.1-0.1-0.1-0.2-0.1-0.4V121.9z"/>
		<path class="st4" d="M139.4,122.2c0-0.1,0-0.2-0.1-0.3c-0.1-0.1-0.2-0.1-0.3-0.1c-0.1,0-0.2,0-0.2,0c-0.1,0-0.1,0-0.2,0.1
			c0-0.1-0.1-0.2-0.1-0.3c0.1,0,0.2,0,0.3-0.1s0.2,0,0.3,0c0.2,0,0.4,0.1,0.5,0.2c0.1,0.1,0.2,0.3,0.2,0.5v1.2c-0.1,0-0.2,0-0.3,0.1
			s-0.2,0-0.4,0c-0.1,0-0.2,0-0.3,0s-0.2-0.1-0.2-0.1c-0.1,0-0.1-0.1-0.2-0.2s-0.1-0.2-0.1-0.3c0-0.1,0-0.2,0.1-0.3
			c0-0.1,0.1-0.1,0.2-0.2c0.1-0.1,0.2-0.1,0.2-0.1c0.1,0,0.2,0,0.3,0c0.1,0,0.1,0,0.2,0C139.3,122.3,139.4,122.3,139.4,122.2
			L139.4,122.2z M139.4,122.6c0,0-0.1,0-0.1,0c-0.1,0-0.1,0-0.1,0c-0.1,0-0.3,0-0.3,0.1c-0.1,0.1-0.1,0.1-0.1,0.3c0,0.1,0,0.1,0,0.2
			c0,0,0.1,0.1,0.1,0.1c0,0,0.1,0,0.1,0s0.1,0,0.1,0c0.1,0,0.1,0,0.2,0c0.1,0,0.1,0,0.2,0V122.6z"/>
		<path class="st4" d="M140.4,121.9h-0.2c0,0,0,0,0-0.1s0,0,0-0.1c0,0,0,0,0-0.1s0,0,0-0.1h0.6v1.8c0,0-0.1,0-0.1,0s-0.1,0-0.1,0
			c0,0-0.1,0-0.1,0s-0.1,0-0.1,0V121.9z M140.3,121.2C140.3,121.2,140.3,121.1,140.3,121.2c0-0.1,0-0.2,0-0.2s0-0.1,0-0.1
			c0,0,0-0.1,0-0.1c0,0,0.1,0,0.1,0s0.1,0,0.1,0s0.1,0,0.1,0c0,0,0.1,0,0.1,0c0,0,0,0.1,0,0.1c0,0,0,0.1,0,0.1s0,0.1,0,0.1
			c0,0,0,0.1,0,0.1c0,0-0.1,0-0.1,0c0,0-0.1,0-0.1,0c0,0-0.1,0-0.1,0C140.4,121.2,140.4,121.2,140.3,121.2z"/>
		<path class="st4" d="M141.3,120.8C141.4,120.8,141.4,120.8,141.3,120.8c0.1,0,0.1,0,0.2,0s0.1,0,0.1,0c0,0,0.1,0,0.1,0v2.1
			c0,0.1,0,0.1,0,0.2c0,0,0,0.1,0,0.1s0,0,0.1,0s0.1,0,0.1,0c0,0,0,0,0.1,0c0,0,0.1,0,0.1,0c0,0.1,0,0.2,0,0.3c0,0-0.1,0-0.1,0
			c0,0-0.1,0-0.1,0c-0.1,0-0.1,0-0.2,0c-0.1,0-0.1,0-0.2-0.1c0,0-0.1-0.1-0.1-0.2c0-0.1,0-0.1,0-0.2V120.8z"/>
		<path class="st4" d="M142.4,123.1c0.1,0,0.1,0,0.2,0.1s0.2,0,0.2,0c0.1,0,0.1,0,0.2,0c0,0,0.1,0,0.1-0.1s0.1-0.1,0.1-0.1
			c0,0,0-0.1,0-0.1c0,0,0-0.1,0-0.1c0,0,0-0.1-0.1-0.1s-0.1,0-0.1-0.1c0,0-0.1,0-0.1,0l-0.1,0c-0.2-0.1-0.3-0.1-0.3-0.2
			c-0.1-0.1-0.1-0.2-0.1-0.3c0-0.2,0.1-0.3,0.2-0.4c0.1-0.1,0.3-0.1,0.5-0.1c0.1,0,0.2,0,0.3,0c0.1,0,0.2,0,0.2,0.1c0,0,0,0.1,0,0.1
			c0,0,0,0.1,0,0.1c-0.1,0-0.1,0-0.2-0.1c-0.1,0-0.2,0-0.2,0c-0.1,0-0.2,0-0.2,0s-0.1,0.1-0.1,0.2c0,0,0,0.1,0,0.1
			c0,0,0,0.1,0.1,0.1c0,0,0.1,0,0.1,0.1c0,0,0.1,0,0.1,0l0.2,0.1c0.1,0,0.1,0,0.2,0.1s0.1,0.1,0.1,0.1c0,0,0.1,0.1,0.1,0.1
			c0,0.1,0,0.1,0,0.2c0,0.1,0,0.2-0.1,0.2s-0.1,0.1-0.2,0.2c-0.1,0.1-0.1,0.1-0.2,0.1c-0.1,0-0.2,0-0.3,0c-0.1,0-0.2,0-0.3,0
			c-0.1,0-0.2,0-0.2-0.1c0,0,0-0.1,0-0.1C142.3,123.2,142.4,123.1,142.4,123.1z"/>
	</g>
	<g class="st2">
		<path class="st4" d="M109.7,133.8c0,0,0,0.1,0.1,0.1c0,0.1,0,0.1,0,0.2c-0.1,0.1-0.3,0.1-0.5,0.1c-0.3,0-0.5-0.1-0.7-0.3
			c-0.2-0.2-0.2-0.4-0.2-0.7c0-0.1,0-0.3,0.1-0.4c0-0.1,0.1-0.2,0.2-0.3c0.1-0.1,0.2-0.2,0.3-0.2c0.1-0.1,0.2-0.1,0.4-0.1
			c0.1,0,0.2,0,0.3,0c0.1,0,0.1,0,0.2,0.1c0,0,0,0.1,0,0.1s0,0.1,0,0.1c-0.1,0-0.3-0.1-0.4-0.1c-0.2,0-0.3,0.1-0.4,0.2
			c-0.1,0.1-0.1,0.3-0.1,0.5c0,0.2,0.1,0.4,0.2,0.5c0.1,0.1,0.2,0.2,0.4,0.2c0.1,0,0.1,0,0.2,0C109.6,133.9,109.7,133.9,109.7,133.8
			z"/>
		<path class="st4" d="M110.9,134.2c-0.1,0-0.3,0-0.4-0.1c-0.1-0.1-0.2-0.1-0.3-0.2c-0.1-0.1-0.1-0.2-0.2-0.3s-0.1-0.2-0.1-0.4
			s0-0.3,0.1-0.4s0.1-0.2,0.2-0.3c0.1-0.1,0.2-0.2,0.3-0.2s0.2-0.1,0.4-0.1s0.3,0,0.4,0.1c0.1,0.1,0.2,0.1,0.3,0.2
			c0.1,0.1,0.1,0.2,0.2,0.3c0,0.1,0.1,0.2,0.1,0.4s0,0.3-0.1,0.4c0,0.1-0.1,0.2-0.2,0.3c-0.1,0.1-0.2,0.2-0.3,0.2
			C111.2,134.2,111.1,134.2,110.9,134.2z M110.9,133.9c0.2,0,0.3-0.1,0.4-0.2c0.1-0.1,0.1-0.3,0.1-0.5c0-0.2,0-0.4-0.1-0.5
			c-0.1-0.1-0.2-0.2-0.4-0.2c-0.2,0-0.3,0.1-0.4,0.2s-0.1,0.3-0.1,0.5c0,0.2,0,0.4,0.1,0.5C110.6,133.9,110.8,133.9,110.9,133.9z"/>
		<path class="st4" d="M112.3,132.3C112.3,132.3,112.3,132.3,112.3,132.3c0.1,0,0.1,0,0.2,0s0.1,0,0.1,0s0,0,0.1,0c0,0,0,0.1,0,0.1
			c0,0.1,0,0.1,0,0.2c0,0,0.1-0.1,0.1-0.1c0,0,0.1-0.1,0.1-0.1c0,0,0.1-0.1,0.2-0.1c0.1,0,0.1,0,0.2,0c0.2,0,0.4,0.1,0.5,0.2
			c0.1,0.1,0.2,0.3,0.2,0.5v1.2c0,0-0.1,0-0.1,0c0,0-0.1,0-0.1,0s-0.1,0-0.1,0c0,0-0.1,0-0.1,0v-1.1c0-0.2,0-0.3-0.1-0.4
			c-0.1-0.1-0.1-0.1-0.3-0.1c-0.1,0-0.1,0-0.2,0s-0.1,0.1-0.2,0.1c0,0.1-0.1,0.1-0.1,0.2c0,0.1,0,0.2,0,0.3v0.9c0,0-0.1,0-0.1,0
			s-0.1,0-0.1,0s-0.1,0-0.1,0s-0.1,0-0.1,0V132.3z"/>
		<path class="st4" d="M114.4,132.6h-0.3l0-0.1l0.6-0.7h0v0.5h0.5c0,0,0,0.1,0,0.1c0,0,0,0.1,0,0.1c0,0,0,0,0,0.1h-0.5v0.8
			c0,0.1,0,0.2,0,0.2s0,0.1,0,0.1c0,0,0,0.1,0.1,0.1c0,0,0.1,0,0.1,0c0,0,0.1,0,0.1,0c0,0,0.1,0,0.1,0c0,0,0,0.1,0,0.1
			c0,0.1,0,0.1,0,0.1c0,0-0.1,0-0.2,0c-0.1,0-0.1,0-0.2,0c-0.2,0-0.3,0-0.4-0.1c-0.1-0.1-0.1-0.2-0.1-0.4V132.6z"/>
		<path class="st4" d="M116.6,132.9c0-0.1,0-0.2-0.1-0.3c-0.1-0.1-0.2-0.1-0.3-0.1c-0.1,0-0.2,0-0.2,0s-0.1,0-0.2,0.1
			c0-0.1-0.1-0.2-0.1-0.3c0.1,0,0.2,0,0.3-0.1c0.1,0,0.2,0,0.3,0c0.2,0,0.4,0.1,0.5,0.2c0.1,0.1,0.2,0.3,0.2,0.5v1.2
			c-0.1,0-0.2,0-0.3,0.1c-0.1,0-0.2,0-0.4,0c-0.1,0-0.2,0-0.3,0s-0.2-0.1-0.2-0.1c-0.1,0-0.1-0.1-0.2-0.2c0-0.1-0.1-0.2-0.1-0.3
			c0-0.1,0-0.2,0.1-0.3s0.1-0.1,0.2-0.2c0.1-0.1,0.2-0.1,0.2-0.1c0.1,0,0.2,0,0.3,0c0.1,0,0.1,0,0.2,0
			C116.5,133,116.6,133,116.6,132.9L116.6,132.9z M116.6,133.3c0,0-0.1,0-0.1,0c-0.1,0-0.1,0-0.1,0c-0.1,0-0.3,0-0.3,0.1
			c-0.1,0.1-0.1,0.1-0.1,0.3c0,0.1,0,0.1,0,0.2s0.1,0.1,0.1,0.1s0.1,0,0.1,0c0,0,0.1,0,0.1,0c0.1,0,0.1,0,0.2,0c0.1,0,0.1,0,0.2,0
			V133.3z"/>
		<path class="st4" d="M118.7,133.8c0,0,0,0.1,0.1,0.1c0,0.1,0,0.1,0,0.2c-0.1,0.1-0.3,0.1-0.5,0.1c-0.3,0-0.5-0.1-0.7-0.3
			c-0.2-0.2-0.2-0.4-0.2-0.7c0-0.1,0-0.3,0.1-0.4c0-0.1,0.1-0.2,0.2-0.3c0.1-0.1,0.2-0.2,0.3-0.2c0.1-0.1,0.2-0.1,0.4-0.1
			c0.1,0,0.2,0,0.3,0c0.1,0,0.1,0,0.2,0.1c0,0,0,0.1,0,0.1s0,0.1,0,0.1c-0.1,0-0.3-0.1-0.4-0.1c-0.2,0-0.3,0.1-0.4,0.2
			c-0.1,0.1-0.1,0.3-0.1,0.5c0,0.2,0.1,0.4,0.2,0.5c0.1,0.1,0.2,0.2,0.4,0.2c0.1,0,0.1,0,0.2,0C118.6,133.9,118.7,133.9,118.7,133.8
			z"/>
		<path class="st4" d="M119.3,132.6H119l0-0.1l0.6-0.7h0v0.5h0.5c0,0,0,0.1,0,0.1c0,0,0,0.1,0,0.1c0,0,0,0,0,0.1h-0.5v0.8
			c0,0.1,0,0.2,0,0.2s0,0.1,0,0.1c0,0,0,0.1,0.1,0.1c0,0,0.1,0,0.1,0c0,0,0.1,0,0.1,0c0,0,0.1,0,0.1,0c0,0,0,0.1,0,0.1
			c0,0.1,0,0.1,0,0.1c0,0-0.1,0-0.2,0c-0.1,0-0.1,0-0.2,0c-0.2,0-0.3,0-0.4-0.1c-0.1-0.1-0.1-0.2-0.1-0.4V132.6z"/>
		<path class="st4" d="M123.7,132.7c0,0.1,0,0.3-0.1,0.4c0,0.1-0.1,0.3-0.2,0.4c-0.1,0.1-0.2,0.2-0.3,0.3c-0.1,0.1-0.3,0.1-0.4,0.1
			c-0.2,0-0.3,0-0.4-0.1c-0.1,0-0.1,0.1-0.2,0.1c-0.1,0-0.2,0-0.3,0c-0.2,0-0.3-0.1-0.4-0.2s-0.2-0.2-0.2-0.4c0-0.2,0-0.3,0.1-0.5
			c0.1-0.1,0.1-0.3,0.2-0.4c0.1-0.1,0.2-0.2,0.3-0.2c0.1-0.1,0.3-0.1,0.4-0.1c0.1,0,0.2,0,0.3,0c0.1,0,0.2,0,0.3,0.1l-0.3,1.3
			c0,0,0.1,0,0.1,0c0,0,0.1,0,0.1,0c0.1,0,0.2,0,0.3-0.1s0.1-0.1,0.2-0.2c0.1-0.1,0.1-0.2,0.1-0.3c0-0.1,0-0.2,0-0.3
			c0-0.3-0.1-0.5-0.3-0.7c-0.2-0.2-0.4-0.2-0.8-0.2c-0.3,0-0.5,0-0.7,0.1s-0.4,0.2-0.5,0.3c-0.1,0.1-0.2,0.3-0.3,0.5
			c-0.1,0.2-0.1,0.4-0.1,0.6c0,0.2,0,0.3,0.1,0.5c0.1,0.1,0.1,0.2,0.2,0.3s0.2,0.1,0.3,0.2c0.1,0,0.3,0.1,0.4,0.1c0.1,0,0.2,0,0.3,0
			c0.1,0,0.2,0,0.3-0.1c0,0,0,0.1,0,0.1c0,0,0,0.1,0,0.1c-0.2,0.1-0.4,0.1-0.7,0.1c-0.2,0-0.4,0-0.5-0.1c-0.2-0.1-0.3-0.1-0.4-0.2
			c-0.1-0.1-0.2-0.2-0.3-0.4c-0.1-0.2-0.1-0.4-0.1-0.6c0-0.2,0-0.4,0.1-0.7c0.1-0.2,0.2-0.4,0.4-0.6c0.2-0.2,0.4-0.3,0.6-0.4
			c0.2-0.1,0.5-0.2,0.9-0.2c0.2,0,0.4,0,0.5,0.1c0.2,0.1,0.3,0.1,0.4,0.2c0.1,0.1,0.2,0.2,0.3,0.4S123.7,132.5,123.7,132.7z
			 M122.4,132.6C122.4,132.6,122.3,132.6,122.4,132.6c-0.1,0-0.1,0-0.2,0c-0.1,0-0.2,0-0.3,0.1c-0.1,0-0.2,0.1-0.2,0.2
			c-0.1,0.1-0.1,0.2-0.1,0.2s-0.1,0.2-0.1,0.3c0,0.1,0,0.2,0.1,0.3c0.1,0.1,0.1,0.1,0.2,0.1c0.1,0,0.1,0,0.2,0s0.1,0,0.2-0.1
			L122.4,132.6z"/>
		<path class="st4" d="M124.2,132.3C124.2,132.3,124.2,132.3,124.2,132.3c0.1,0,0.1,0,0.2,0s0.1,0,0.1,0s0,0,0.1,0c0,0,0,0.1,0,0.1
			c0,0.1,0,0.1,0,0.2c0,0,0.1-0.1,0.1-0.1c0,0,0.1-0.1,0.1-0.1c0,0,0.1-0.1,0.2-0.1c0.1,0,0.1,0,0.2,0c0.2,0,0.4,0.1,0.5,0.2
			c0.1,0.1,0.2,0.3,0.2,0.5v1.2c0,0-0.1,0-0.1,0c0,0-0.1,0-0.1,0s-0.1,0-0.1,0c0,0-0.1,0-0.1,0v-1.1c0-0.2,0-0.3-0.1-0.4
			c-0.1-0.1-0.1-0.1-0.3-0.1c-0.1,0-0.1,0-0.2,0s-0.1,0.1-0.2,0.1c0,0.1-0.1,0.1-0.1,0.2c0,0.1,0,0.2,0,0.3v0.9c0,0-0.1,0-0.1,0
			s-0.1,0-0.1,0s-0.1,0-0.1,0s-0.1,0-0.1,0V132.3z"/>
		<path class="st4" d="M126.3,132.6h-0.2c0,0,0,0,0-0.1c0,0,0,0,0-0.1c0,0,0,0,0-0.1c0,0,0,0,0-0.1h0.6v1.8c0,0-0.1,0-0.1,0
			c0,0-0.1,0-0.1,0c0,0-0.1,0-0.1,0c0,0-0.1,0-0.1,0V132.6z M126.3,131.9C126.3,131.9,126.3,131.8,126.3,131.9c0-0.1,0-0.2,0-0.2
			c0,0,0-0.1,0-0.1c0,0,0-0.1,0-0.1c0,0,0.1,0,0.1,0c0,0,0.1,0,0.1,0s0.1,0,0.1,0c0,0,0.1,0,0.1,0c0,0,0,0.1,0,0.1c0,0,0,0.1,0,0.1
			c0,0,0,0.1,0,0.1c0,0,0,0.1,0,0.1c0,0-0.1,0-0.1,0c0,0-0.1,0-0.1,0c0,0-0.1,0-0.1,0C126.3,131.9,126.3,131.9,126.3,131.9z"/>
		<path class="st4" d="M127.3,131.5C127.3,131.5,127.3,131.5,127.3,131.5c0.1,0,0.1,0,0.2,0c0,0,0.1,0,0.1,0c0,0,0.1,0,0.1,0v2.6
			c0,0-0.1,0-0.1,0s-0.1,0-0.1,0c0,0-0.1,0-0.1,0s-0.1,0-0.1,0V131.5z M127.7,133.2l0.6-0.9c0,0,0.1,0,0.1,0s0.1,0,0.1,0
			c0,0,0.1,0,0.1,0s0.1,0,0.1,0l-0.6,0.9l0.7,1c0,0-0.1,0-0.1,0s-0.1,0-0.1,0s-0.1,0-0.1,0c0,0-0.1,0-0.1,0L127.7,133.2z"/>
		<path class="st4" d="M129.1,131.5C129.1,131.5,129.2,131.5,129.1,131.5c0.1,0,0.2,0,0.2,0s0.1,0,0.1,0c0,0,0.1,0,0.1,0v1.1
			c0,0,0-0.1,0.1-0.1c0,0,0.1-0.1,0.1-0.1c0,0,0.1-0.1,0.2-0.1c0.1,0,0.1,0,0.2,0c0.2,0,0.4,0.1,0.5,0.2s0.2,0.3,0.2,0.5v1.2
			c0,0-0.1,0-0.1,0c0,0-0.1,0-0.1,0s-0.1,0-0.1,0c0,0-0.1,0-0.1,0v-1.1c0-0.2,0-0.3-0.1-0.4c-0.1-0.1-0.1-0.1-0.3-0.1
			c-0.1,0-0.1,0-0.2,0s-0.1,0.1-0.2,0.1c0,0.1-0.1,0.1-0.1,0.2s0,0.2,0,0.3v0.9c0,0-0.1,0-0.1,0s-0.1,0-0.1,0c0,0-0.1,0-0.1,0
			s-0.1,0-0.1,0V131.5z"/>
		<path class="st4" d="M131.3,132.6h-0.2c0,0,0,0,0-0.1s0,0,0-0.1c0,0,0,0,0-0.1s0,0,0-0.1h0.6v1.8c0,0-0.1,0-0.1,0s-0.1,0-0.1,0
			c0,0-0.1,0-0.1,0s-0.1,0-0.1,0V132.6z M131.2,131.9C131.2,131.9,131.2,131.8,131.2,131.9c0-0.1,0-0.2,0-0.2c0,0,0-0.1,0-0.1
			c0,0,0-0.1,0-0.1c0,0,0.1,0,0.1,0s0.1,0,0.1,0s0.1,0,0.1,0c0,0,0.1,0,0.1,0c0,0,0,0.1,0,0.1c0,0,0,0.1,0,0.1c0,0,0,0.1,0,0.1
			c0,0,0,0.1,0,0.1c0,0-0.1,0-0.1,0c0,0-0.1,0-0.1,0c0,0-0.1,0-0.1,0S131.3,131.9,131.2,131.9z"/>
		<path class="st4" d="M132.2,131.5C132.3,131.5,132.3,131.5,132.2,131.5c0.1,0,0.2,0,0.2,0s0.1,0,0.1,0c0,0,0.1,0,0.1,0v2.1
			c0,0.1,0,0.1,0,0.2c0,0,0,0.1,0,0.1c0,0,0,0,0.1,0c0,0,0.1,0,0.1,0c0,0,0,0,0.1,0c0,0,0.1,0,0.1,0c0,0.1,0,0.2,0,0.3
			c0,0-0.1,0-0.1,0c0,0-0.1,0-0.1,0c-0.1,0-0.1,0-0.2,0c-0.1,0-0.1,0-0.2-0.1c0,0-0.1-0.1-0.1-0.2c0-0.1,0-0.1,0-0.2V131.5z"/>
		<path class="st4" d="M133.3,133.8c0.1,0,0.1,0,0.2,0.1s0.2,0,0.2,0c0.1,0,0.1,0,0.2,0c0,0,0.1,0,0.1-0.1c0,0,0.1-0.1,0.1-0.1
			c0,0,0-0.1,0-0.1c0,0,0-0.1,0-0.1c0,0,0-0.1-0.1-0.1s-0.1,0-0.1-0.1c0,0-0.1,0-0.1,0l-0.1,0c-0.2-0.1-0.3-0.1-0.3-0.2
			c-0.1-0.1-0.1-0.2-0.1-0.3c0-0.2,0.1-0.3,0.2-0.4c0.1-0.1,0.3-0.1,0.5-0.1c0.1,0,0.2,0,0.3,0c0.1,0,0.2,0,0.2,0.1c0,0,0,0.1,0,0.1
			c0,0,0,0.1,0,0.1c-0.1,0-0.1,0-0.2-0.1s-0.2,0-0.2,0c-0.1,0-0.2,0-0.2,0s-0.1,0.1-0.1,0.2c0,0,0,0.1,0,0.1c0,0,0,0.1,0.1,0.1
			c0,0,0.1,0,0.1,0.1c0,0,0.1,0,0.1,0l0.2,0.1c0.1,0,0.1,0,0.2,0.1c0.1,0,0.1,0.1,0.1,0.1c0,0,0.1,0.1,0.1,0.1c0,0.1,0,0.1,0,0.2
			c0,0.1,0,0.2-0.1,0.2c0,0.1-0.1,0.1-0.2,0.2c-0.1,0.1-0.1,0.1-0.2,0.1c-0.1,0-0.2,0-0.3,0c-0.1,0-0.2,0-0.3,0
			c-0.1,0-0.2,0-0.2-0.1c0,0,0-0.1,0-0.1C133.2,133.9,133.3,133.9,133.3,133.8z"/>
		<path class="st4" d="M135.8,133C135.8,133,135.8,133,135.8,133c0,0.1,0,0.1,0,0.2c0,0,0,0.1,0,0.1c0,0,0,0.1,0,0.1h-0.9
			c0,0,0,0,0-0.1c0,0,0-0.1,0-0.1c0,0,0-0.1,0-0.1c0,0,0-0.1,0-0.1H135.8z"/>
		<path class="st4" d="M137.2,132.9c0-0.1,0-0.2-0.1-0.3s-0.2-0.1-0.3-0.1c-0.1,0-0.2,0-0.2,0s-0.1,0-0.2,0.1c0-0.1-0.1-0.2-0.1-0.3
			c0.1,0,0.2,0,0.3-0.1c0.1,0,0.2,0,0.3,0c0.2,0,0.4,0.1,0.5,0.2c0.1,0.1,0.2,0.3,0.2,0.5v1.2c-0.1,0-0.2,0-0.3,0.1
			c-0.1,0-0.2,0-0.4,0c-0.1,0-0.2,0-0.3,0s-0.2-0.1-0.2-0.1c-0.1,0-0.1-0.1-0.2-0.2s-0.1-0.2-0.1-0.3c0-0.1,0-0.2,0.1-0.3
			s0.1-0.1,0.2-0.2c0.1-0.1,0.2-0.1,0.2-0.1c0.1,0,0.2,0,0.3,0c0.1,0,0.1,0,0.2,0C137.1,133,137.2,133,137.2,132.9L137.2,132.9z
			 M137.2,133.3c0,0-0.1,0-0.1,0c-0.1,0-0.1,0-0.1,0c-0.1,0-0.3,0-0.3,0.1c-0.1,0.1-0.1,0.1-0.1,0.3c0,0.1,0,0.1,0,0.2
			s0.1,0.1,0.1,0.1c0,0,0.1,0,0.1,0c0,0,0.1,0,0.1,0c0.1,0,0.1,0,0.2,0c0.1,0,0.1,0,0.2,0V133.3z"/>
		<path class="st4" d="M138.1,132.3C138.1,132.3,138.2,132.3,138.1,132.3c0.1,0,0.1,0,0.2,0s0.1,0,0.1,0c0,0,0,0,0.1,0
			c0,0,0,0.1,0,0.1c0,0.1,0,0.1,0,0.2c0,0,0.1-0.1,0.1-0.1s0.1-0.1,0.1-0.1c0,0,0.1-0.1,0.2-0.1c0.1,0,0.1,0,0.2,0
			c0.2,0,0.4,0.1,0.5,0.2s0.2,0.3,0.2,0.5v1.2c0,0-0.1,0-0.1,0c0,0-0.1,0-0.1,0s-0.1,0-0.1,0s-0.1,0-0.1,0v-1.1c0-0.2,0-0.3-0.1-0.4
			c-0.1-0.1-0.1-0.1-0.3-0.1c-0.1,0-0.1,0-0.2,0c-0.1,0-0.1,0.1-0.2,0.1s-0.1,0.1-0.1,0.2c0,0.1,0,0.2,0,0.3v0.9c0,0-0.1,0-0.1,0
			s-0.1,0-0.1,0s-0.1,0-0.1,0c0,0-0.1,0-0.1,0V132.3z"/>
		<path class="st4" d="M141.2,133.9c0.2,0,0.4,0,0.5,0.1c0.1,0.1,0.1,0.2,0.1,0.4c0,0.1,0,0.2-0.1,0.3c-0.1,0.1-0.1,0.1-0.2,0.2
			s-0.2,0.1-0.3,0.1c-0.1,0-0.3,0-0.4,0c-0.2,0-0.4,0-0.6-0.1c-0.1-0.1-0.2-0.2-0.2-0.4c0-0.1,0-0.2,0.1-0.3s0.1-0.1,0.2-0.2
			c0,0-0.1-0.1-0.1-0.1c0,0,0-0.1,0-0.2c0-0.1,0-0.2,0.1-0.2c0-0.1,0.1-0.1,0.2-0.2c-0.1-0.1-0.1-0.1-0.2-0.2s-0.1-0.2-0.1-0.3
			c0-0.1,0-0.2,0.1-0.3c0-0.1,0.1-0.1,0.1-0.2s0.1-0.1,0.2-0.1c0.1,0,0.2,0,0.3,0c0.1,0,0.2,0,0.3,0c0.1,0,0.2,0.1,0.2,0.1
			c0,0,0.1-0.1,0.2-0.1c0.1,0,0.2,0,0.3,0c0,0,0,0.1,0,0.2c0,0,0,0.1,0,0.1c0,0,0,0.1,0,0.1h-0.3c0,0,0,0.1,0.1,0.1c0,0,0,0.1,0,0.2
			c0,0.1,0,0.2-0.1,0.3c0,0.1-0.1,0.1-0.2,0.2c-0.1,0.1-0.1,0.1-0.2,0.1c-0.1,0-0.2,0-0.3,0c-0.1,0-0.2,0-0.3,0c0,0-0.1,0-0.1,0.1
			c0,0,0,0.1,0,0.1c0,0,0,0.1,0,0.1c0,0,0.1,0.1,0.2,0.1L141.2,133.9z M140.7,134.2c-0.1,0-0.2,0-0.2,0.1c-0.1,0.1-0.1,0.1-0.1,0.2
			c0,0.1,0,0.1,0,0.1c0,0,0.1,0.1,0.1,0.1c0,0,0.1,0,0.1,0c0.1,0,0.1,0,0.2,0c0.2,0,0.3,0,0.5-0.1c0.1-0.1,0.2-0.1,0.2-0.2
			c0-0.1,0-0.1-0.1-0.2c0,0-0.1-0.1-0.3-0.1L140.7,134.2z M140.9,133.3c0.1,0,0.2,0,0.3-0.1s0.1-0.2,0.1-0.3c0-0.1,0-0.2-0.1-0.3
			c-0.1-0.1-0.2-0.1-0.3-0.1s-0.2,0-0.3,0.1c-0.1,0.1-0.1,0.2-0.1,0.3c0,0.1,0,0.2,0.1,0.3C140.6,133.3,140.7,133.3,140.9,133.3z"/>
		<path class="st4" d="M142.2,131.5C142.2,131.5,142.2,131.5,142.2,131.5c0.1,0,0.2,0,0.2,0s0.1,0,0.1,0c0,0,0.1,0,0.1,0v2.1
			c0,0.1,0,0.1,0,0.2c0,0,0,0.1,0,0.1c0,0,0,0,0.1,0c0,0,0.1,0,0.1,0c0,0,0,0,0.1,0c0,0,0.1,0,0.1,0c0,0.1,0,0.2,0,0.3
			c0,0-0.1,0-0.1,0c0,0-0.1,0-0.1,0c-0.1,0-0.1,0-0.2,0c-0.1,0-0.1,0-0.2-0.1c0,0-0.1-0.1-0.1-0.2c0-0.1,0-0.1,0-0.2V131.5z"/>
		<path class="st4" d="M143.5,133.3c0,0.2,0.1,0.3,0.2,0.4s0.2,0.1,0.4,0.1c0.2,0,0.3,0,0.5-0.1c0,0,0,0.1,0,0.1c0,0.1,0,0.1,0,0.2
			c-0.1,0-0.2,0.1-0.3,0.1c-0.1,0-0.2,0-0.3,0c-0.2,0-0.3,0-0.4-0.1s-0.2-0.1-0.3-0.2s-0.1-0.2-0.2-0.3c0-0.1-0.1-0.2-0.1-0.4
			c0-0.1,0-0.3,0.1-0.4c0-0.1,0.1-0.2,0.2-0.3c0.1-0.1,0.2-0.2,0.3-0.2c0.1-0.1,0.2-0.1,0.4-0.1c0.1,0,0.2,0,0.3,0.1
			s0.2,0.1,0.2,0.2c0.1,0.1,0.1,0.2,0.1,0.3c0,0.1,0.1,0.2,0.1,0.3c0,0,0,0.1,0,0.1c0,0,0,0.1,0,0.1H143.5z M144.4,133.1
			c0-0.1,0-0.1,0-0.2c0-0.1,0-0.1-0.1-0.2c0,0-0.1-0.1-0.1-0.1c-0.1,0-0.1,0-0.2,0c-0.1,0-0.3,0-0.3,0.1c-0.1,0.1-0.1,0.2-0.1,0.4
			H144.4z"/>
		<path class="st4" d="M145.2,134.2C145.2,134.1,145.2,134.1,145.2,134.2c0-0.1,0-0.2,0-0.2s0-0.1,0-0.1c0,0,0-0.1,0-0.1
			c0,0,0.1,0,0.1,0c0,0,0.1,0,0.1,0c0,0,0.1,0,0.1,0c0,0,0.1,0,0.1,0c0,0,0,0.1,0,0.1c0,0,0,0.1,0,0.1s0,0.1,0,0.1c0,0,0,0.1,0,0.1
			c0,0-0.1,0-0.1,0s-0.1,0-0.1,0c0,0-0.1,0-0.1,0S145.2,134.2,145.2,134.2z"/>
		<path class="st4" d="M147.3,133.8c0,0,0,0.1,0.1,0.1s0,0.1,0,0.2c-0.1,0.1-0.3,0.1-0.5,0.1c-0.3,0-0.5-0.1-0.7-0.3
			c-0.2-0.2-0.2-0.4-0.2-0.7c0-0.1,0-0.3,0.1-0.4s0.1-0.2,0.2-0.3c0.1-0.1,0.2-0.2,0.3-0.2c0.1-0.1,0.2-0.1,0.4-0.1
			c0.1,0,0.2,0,0.3,0s0.2,0,0.2,0.1c0,0,0,0.1,0,0.1s0,0.1,0,0.1c-0.1,0-0.3-0.1-0.4-0.1c-0.2,0-0.3,0.1-0.4,0.2
			c-0.1,0.1-0.1,0.3-0.1,0.5c0,0.2,0.1,0.4,0.2,0.5c0.1,0.1,0.2,0.2,0.4,0.2c0.1,0,0.1,0,0.2,0C147.2,133.9,147.3,133.9,147.3,133.8
			z"/>
		<path class="st4" d="M148.5,134.2c-0.1,0-0.3,0-0.4-0.1c-0.1-0.1-0.2-0.1-0.3-0.2c-0.1-0.1-0.1-0.2-0.2-0.3c0-0.1-0.1-0.2-0.1-0.4
			s0-0.3,0.1-0.4c0-0.1,0.1-0.2,0.2-0.3c0.1-0.1,0.2-0.2,0.3-0.2c0.1-0.1,0.2-0.1,0.4-0.1c0.1,0,0.3,0,0.4,0.1
			c0.1,0.1,0.2,0.1,0.3,0.2c0.1,0.1,0.1,0.2,0.2,0.3s0.1,0.2,0.1,0.4s0,0.3-0.1,0.4s-0.1,0.2-0.2,0.3c-0.1,0.1-0.2,0.2-0.3,0.2
			C148.8,134.2,148.7,134.2,148.5,134.2z M148.5,133.9c0.2,0,0.3-0.1,0.4-0.2c0.1-0.1,0.1-0.3,0.1-0.5c0-0.2,0-0.4-0.1-0.5
			c-0.1-0.1-0.2-0.2-0.4-0.2c-0.2,0-0.3,0.1-0.4,0.2s-0.1,0.3-0.1,0.5c0,0.2,0,0.4,0.1,0.5C148.2,133.9,148.4,133.9,148.5,133.9z"/>
		<path class="st4" d="M149.8,132.3C149.9,132.3,149.9,132.3,149.8,132.3c0.1,0,0.1,0,0.2,0s0.1,0,0.1,0c0,0,0,0,0.1,0
			c0,0,0,0.1,0,0.1c0,0.1,0,0.1,0,0.2c0,0,0-0.1,0.1-0.1c0,0,0.1-0.1,0.1-0.1c0,0,0.1-0.1,0.2-0.1s0.1,0,0.2,0c0.1,0,0.3,0,0.3,0.1
			c0.1,0.1,0.1,0.1,0.2,0.2c0,0,0.1-0.1,0.1-0.1c0,0,0.1-0.1,0.1-0.1s0.1-0.1,0.1-0.1c0.1,0,0.1,0,0.2,0c0.2,0,0.4,0.1,0.5,0.2
			c0.1,0.1,0.1,0.3,0.1,0.5v1.2c0,0-0.1,0-0.1,0c0,0-0.1,0-0.1,0s-0.1,0-0.1,0s-0.1,0-0.1,0v-1.1c0-0.2,0-0.3-0.1-0.4
			c0-0.1-0.1-0.1-0.2-0.1c-0.1,0-0.2,0-0.3,0.1c-0.1,0.1-0.1,0.2-0.1,0.4v1c0,0-0.1,0-0.1,0s-0.1,0-0.1,0s-0.1,0-0.1,0
			c0,0-0.1,0-0.1,0v-1.1c0-0.2,0-0.3-0.1-0.4c0-0.1-0.1-0.1-0.2-0.1c-0.1,0-0.1,0-0.2,0c-0.1,0-0.1,0.1-0.1,0.1
			c0,0.1-0.1,0.1-0.1,0.2c0,0.1,0,0.2,0,0.3v0.9c0,0-0.1,0-0.1,0s-0.1,0-0.1,0s-0.1,0-0.1,0c0,0-0.1,0-0.1,0V132.3z"/>
	</g>
	<g>
		<g class="st2">
			<path class="st4" d="M107.5,128.1c0,0.2,0,0.4-0.1,0.6c-0.1,0.2-0.1,0.4-0.2,0.5c-0.1,0.1-0.3,0.3-0.4,0.4
				c-0.2,0.1-0.4,0.1-0.6,0.2c0,0,0-0.1,0-0.2c0,0,0,0,0-0.1s0,0,0-0.1c0.1,0,0.3,0,0.4-0.1c0.1-0.1,0.2-0.1,0.3-0.2
				s0.2-0.2,0.2-0.3c0.1-0.1,0.1-0.2,0.1-0.4c-0.1,0.1-0.1,0.2-0.2,0.2s-0.2,0.1-0.4,0.1c-0.1,0-0.2,0-0.3,0c-0.1,0-0.2-0.1-0.2-0.1
				c-0.1-0.1-0.1-0.2-0.2-0.3c0-0.1-0.1-0.2-0.1-0.4c0-0.1,0-0.3,0.1-0.4c0-0.1,0.1-0.2,0.2-0.3c0.1-0.1,0.2-0.1,0.3-0.2
				s0.2-0.1,0.3-0.1c0.1,0,0.3,0,0.4,0.1c0.1,0,0.2,0.1,0.3,0.2c0.1,0.1,0.1,0.2,0.2,0.3C107.4,127.8,107.5,127.9,107.5,128.1z
				 M106.6,128.5c0.1,0,0.1,0,0.2,0c0.1,0,0.1-0.1,0.2-0.1c0,0,0.1-0.1,0.1-0.2s0-0.1,0-0.2c0-0.2,0-0.3-0.1-0.4
				c-0.1-0.1-0.2-0.1-0.4-0.1c-0.1,0-0.3,0-0.4,0.1c-0.1,0.1-0.1,0.2-0.1,0.4c0,0.1,0,0.2,0,0.2s0.1,0.1,0.1,0.2
				c0,0,0.1,0.1,0.2,0.1C106.4,128.5,106.5,128.5,106.6,128.5z"/>
			<path class="st4" d="M108.6,129.7c-0.1,0-0.1,0-0.2-0.1c-0.1,0-0.1-0.1-0.2-0.1l0.9-2.1h-1.2c0,0,0,0,0-0.1s0-0.1,0-0.1
				c0,0,0-0.1,0-0.1c0,0,0-0.1,0-0.1h1.7l0,0L108.6,129.7z"/>
			<path class="st4" d="M110.7,129.7c-0.1,0-0.1,0-0.2-0.1c-0.1,0-0.1-0.1-0.2-0.1l0.9-2.1h-1.2c0,0,0,0,0-0.1s0-0.1,0-0.1
				c0,0,0-0.1,0-0.1c0,0,0-0.1,0-0.1h1.7l0,0L110.7,129.7z"/>
			<path class="st4" d="M112.8,129.4c0.1,0,0.2,0,0.3,0c0.1,0,0.2,0,0.2-0.1c0.1,0,0.1-0.1,0.1-0.2c0-0.1,0.1-0.2,0.1-0.3
				c0-0.1,0-0.3-0.1-0.3c-0.1-0.1-0.2-0.1-0.4-0.1c0,0-0.1,0-0.1,0c0,0-0.1,0-0.1,0l0,0l0.6-0.9h-0.9c0,0,0-0.1,0-0.2
				c0,0,0-0.1,0-0.1c0,0,0-0.1,0-0.1h1.5l0,0l-0.7,1c0,0,0,0,0,0s0,0,0,0c0.1,0,0.2,0,0.3,0.1c0.1,0,0.2,0.1,0.2,0.2
				s0.1,0.1,0.1,0.2s0,0.2,0,0.2c0,0.2,0,0.3-0.1,0.4c-0.1,0.1-0.1,0.2-0.2,0.3s-0.2,0.1-0.3,0.2c-0.1,0-0.3,0.1-0.4,0.1
				c-0.1,0-0.2,0-0.3,0c-0.1,0-0.2,0-0.3-0.1c0-0.1,0-0.1,0-0.2c0-0.1,0-0.1,0.1-0.1c0.1,0,0.2,0.1,0.2,0.1
				C112.6,129.4,112.7,129.4,112.8,129.4z"/>
			<path class="st4" d="M115.3,127.1c0.2,0,0.3,0,0.4,0.1c0.1,0.1,0.2,0.1,0.3,0.3c0.1,0.1,0.1,0.2,0.2,0.4s0.1,0.3,0.1,0.5
				c0,0.2,0,0.3-0.1,0.5c0,0.1-0.1,0.3-0.2,0.4c-0.1,0.1-0.2,0.2-0.3,0.2s-0.2,0.1-0.4,0.1c-0.2,0-0.3,0-0.4-0.1s-0.2-0.1-0.3-0.2
				s-0.1-0.2-0.2-0.4c0-0.1-0.1-0.3-0.1-0.5c0-0.2,0-0.3,0.1-0.5c0-0.1,0.1-0.3,0.2-0.4c0.1-0.1,0.2-0.2,0.3-0.3
				C115,127.1,115.1,127.1,115.3,127.1z M115.2,127.4c-0.2,0-0.3,0.1-0.4,0.2s-0.1,0.4-0.1,0.7c0,0.3,0,0.5,0.1,0.7s0.2,0.2,0.4,0.2
				s0.3-0.1,0.4-0.2s0.1-0.4,0.1-0.7c0-0.3,0-0.5-0.1-0.7S115.4,127.4,115.2,127.4z"/>
			<path class="st4" d="M117.4,127.1c0.2,0,0.3,0,0.4,0.1c0.1,0.1,0.2,0.1,0.3,0.3c0.1,0.1,0.1,0.2,0.2,0.4s0.1,0.3,0.1,0.5
				c0,0.2,0,0.3-0.1,0.5c0,0.1-0.1,0.3-0.2,0.4c-0.1,0.1-0.2,0.2-0.3,0.2s-0.2,0.1-0.4,0.1c-0.2,0-0.3,0-0.4-0.1s-0.2-0.1-0.3-0.2
				s-0.1-0.2-0.2-0.4c0-0.1-0.1-0.3-0.1-0.5c0-0.2,0-0.3,0.1-0.5c0-0.1,0.1-0.3,0.2-0.4c0.1-0.1,0.2-0.2,0.3-0.3
				C117.1,127.1,117.3,127.1,117.4,127.1z M117.4,127.4c-0.2,0-0.3,0.1-0.4,0.2s-0.1,0.4-0.1,0.7c0,0.3,0,0.5,0.1,0.7
				s0.2,0.2,0.4,0.2s0.3-0.1,0.4-0.2s0.1-0.4,0.1-0.7c0-0.3,0-0.5-0.1-0.7S117.6,127.4,117.4,127.4z"/>
			<path class="st4" d="M119.9,128.1c0.1,0,0.1,0.1,0.2,0.1c0.1,0,0.1,0.1,0.2,0.1c0.1,0.1,0.1,0.1,0.1,0.2c0,0.1,0,0.2,0,0.3
				c0,0.1,0,0.2-0.1,0.3s-0.1,0.2-0.2,0.2s-0.2,0.1-0.3,0.1c-0.1,0-0.2,0-0.3,0c-0.1,0-0.2,0-0.3,0c-0.1,0-0.2-0.1-0.3-0.1
				s-0.2-0.1-0.2-0.2c-0.1-0.1-0.1-0.2-0.1-0.3c0-0.1,0-0.2,0-0.3c0-0.1,0.1-0.1,0.1-0.2c0.1-0.1,0.1-0.1,0.2-0.1
				c0.1,0,0.1-0.1,0.2-0.1c-0.1-0.1-0.2-0.1-0.3-0.2c-0.1-0.1-0.1-0.2-0.1-0.4c0-0.1,0-0.2,0.1-0.3c0-0.1,0.1-0.1,0.2-0.2
				c0.1-0.1,0.1-0.1,0.2-0.1c0.1,0,0.2,0,0.3,0s0.2,0,0.3,0c0.1,0,0.2,0.1,0.2,0.1c0.1,0.1,0.1,0.1,0.2,0.2c0,0.1,0.1,0.2,0.1,0.3
				c0,0.1,0,0.3-0.1,0.4C120.1,127.9,120,128,119.9,128.1z M119.6,128.2c-0.1,0-0.1,0-0.2,0.1s-0.1,0.1-0.2,0.1c0,0-0.1,0.1-0.1,0.1
				c0,0.1,0,0.1,0,0.2c0,0.1,0,0.2,0.1,0.3s0.2,0.1,0.4,0.1c0.2,0,0.3,0,0.4-0.1c0.1-0.1,0.1-0.2,0.1-0.3c0-0.1,0-0.1,0-0.2
				c0-0.1-0.1-0.1-0.1-0.1c0,0-0.1-0.1-0.2-0.1S119.6,128.2,119.6,128.2z M119.6,127.9c0.1,0,0.1,0,0.2-0.1c0.1,0,0.1-0.1,0.1-0.1
				c0,0,0.1-0.1,0.1-0.1c0,0,0-0.1,0-0.2c0-0.1,0-0.2-0.1-0.3c-0.1-0.1-0.2-0.1-0.3-0.1s-0.2,0-0.3,0.1c-0.1,0.1-0.1,0.2-0.1,0.3
				c0,0.1,0,0.1,0,0.2s0.1,0.1,0.1,0.1c0,0,0.1,0.1,0.1,0.1C119.5,127.9,119.5,127.9,119.6,127.9z"/>
			<path class="st4" d="M121.5,129.7c-0.1,0-0.1,0-0.2-0.1c-0.1,0-0.1-0.1-0.2-0.1l0.9-2.1h-1.2c0,0,0,0,0-0.1s0-0.1,0-0.1
				c0,0,0-0.1,0-0.1c0,0,0-0.1,0-0.1h1.7l0,0L121.5,129.7z"/>
			<path class="st4" d="M124.7,128.1c0,0.2,0,0.4-0.1,0.6c-0.1,0.2-0.1,0.4-0.2,0.5c-0.1,0.1-0.3,0.3-0.4,0.4
				c-0.2,0.1-0.4,0.1-0.6,0.2c0,0,0-0.1,0-0.2c0,0,0,0,0-0.1s0,0,0-0.1c0.1,0,0.3,0,0.4-0.1c0.1-0.1,0.2-0.1,0.3-0.2
				s0.2-0.2,0.2-0.3c0.1-0.1,0.1-0.2,0.1-0.4c-0.1,0.1-0.1,0.2-0.2,0.2s-0.2,0.1-0.4,0.1c-0.1,0-0.2,0-0.3,0c-0.1,0-0.2-0.1-0.2-0.1
				c-0.1-0.1-0.1-0.2-0.2-0.3c0-0.1-0.1-0.2-0.1-0.4c0-0.1,0-0.3,0.1-0.4c0-0.1,0.1-0.2,0.2-0.3c0.1-0.1,0.2-0.1,0.3-0.2
				s0.2-0.1,0.3-0.1c0.1,0,0.3,0,0.4,0.1c0.1,0,0.2,0.1,0.3,0.2c0.1,0.1,0.1,0.2,0.2,0.3C124.7,127.8,124.7,127.9,124.7,128.1z
				 M123.9,128.5c0.1,0,0.1,0,0.2,0c0.1,0,0.1-0.1,0.2-0.1c0,0,0.1-0.1,0.1-0.2s0-0.1,0-0.2c0-0.2,0-0.3-0.1-0.4
				c-0.1-0.1-0.2-0.1-0.4-0.1c-0.1,0-0.3,0-0.4,0.1c-0.1,0.1-0.1,0.2-0.1,0.4c0,0.1,0,0.2,0,0.2s0.1,0.1,0.1,0.2
				c0,0,0.1,0.1,0.2,0.1C123.7,128.5,123.8,128.5,123.9,128.5z"/>
			<path class="st4" d="M126.8,128.8c0,0.2,0,0.3-0.1,0.4c-0.1,0.1-0.1,0.2-0.2,0.3c-0.1,0.1-0.2,0.1-0.3,0.2
				c-0.1,0-0.3,0.1-0.4,0.1c-0.1,0-0.2,0-0.3,0c-0.1,0-0.2,0-0.3-0.1c0-0.1,0-0.1,0-0.2c0,0,0-0.1,0.1-0.1c0.1,0,0.1,0,0.2,0.1
				c0.1,0,0.2,0,0.3,0c0.2,0,0.4,0,0.5-0.1c0.1-0.1,0.2-0.2,0.2-0.4c0-0.1,0-0.1,0-0.2c0-0.1-0.1-0.1-0.1-0.2c0,0-0.1-0.1-0.2-0.1
				c-0.1,0-0.2,0-0.3,0c-0.1,0-0.1,0-0.2,0s-0.1,0-0.2,0l0,0c0-0.2,0-0.4,0-0.6c0-0.2,0-0.4,0-0.6h1.2c0,0,0,0.1,0,0.1
				c0,0,0,0.1,0,0.1c0,0,0,0.1,0,0.1c0,0,0,0.1,0,0.1h-0.9l0,0.6c0,0,0.1,0,0.1,0c0,0,0.1,0,0.1,0c0.1,0,0.2,0,0.3,0.1
				c0.1,0,0.2,0.1,0.3,0.1c0.1,0.1,0.1,0.1,0.2,0.2C126.8,128.6,126.8,128.7,126.8,128.8z"/>
		</g>
		<g class="st2">
			<path class="st4" d="M135.5,128.1c0.1,0,0.1,0.1,0.2,0.1s0.1,0.1,0.2,0.1c0.1,0.1,0.1,0.1,0.1,0.2s0,0.2,0,0.3
				c0,0.1,0,0.2-0.1,0.3c-0.1,0.1-0.1,0.2-0.2,0.2s-0.2,0.1-0.3,0.1c-0.1,0-0.2,0-0.3,0c-0.1,0-0.2,0-0.3,0c-0.1,0-0.2-0.1-0.3-0.1
				s-0.2-0.1-0.2-0.2c-0.1-0.1-0.1-0.2-0.1-0.3c0-0.1,0-0.2,0-0.3c0-0.1,0.1-0.1,0.1-0.2c0.1-0.1,0.1-0.1,0.2-0.1
				c0.1,0,0.1-0.1,0.2-0.1c-0.1-0.1-0.2-0.1-0.3-0.2c-0.1-0.1-0.1-0.2-0.1-0.4c0-0.1,0-0.2,0.1-0.3c0-0.1,0.1-0.1,0.2-0.2
				c0.1-0.1,0.1-0.1,0.2-0.1c0.1,0,0.2,0,0.3,0c0.1,0,0.2,0,0.3,0c0.1,0,0.2,0.1,0.2,0.1c0.1,0.1,0.1,0.1,0.2,0.2
				c0,0.1,0.1,0.2,0.1,0.3c0,0.1,0,0.3-0.1,0.4C135.7,127.9,135.6,128,135.5,128.1z M135.2,128.2c-0.1,0-0.1,0-0.2,0.1
				s-0.1,0.1-0.2,0.1c0,0-0.1,0.1-0.1,0.1c0,0.1,0,0.1,0,0.2c0,0.1,0,0.2,0.1,0.3c0.1,0.1,0.2,0.1,0.4,0.1c0.2,0,0.3,0,0.4-0.1
				c0.1-0.1,0.1-0.2,0.1-0.3c0-0.1,0-0.1,0-0.2c0-0.1-0.1-0.1-0.1-0.1c0,0-0.1-0.1-0.2-0.1S135.2,128.2,135.2,128.2z M135.2,127.9
				c0.1,0,0.1,0,0.2-0.1s0.1-0.1,0.1-0.1c0,0,0.1-0.1,0.1-0.1c0,0,0-0.1,0-0.2c0-0.1,0-0.2-0.1-0.3c-0.1-0.1-0.2-0.1-0.3-0.1
				c-0.1,0-0.2,0-0.3,0.1c-0.1,0.1-0.1,0.2-0.1,0.3c0,0.1,0,0.1,0,0.2s0.1,0.1,0.1,0.1c0,0,0.1,0.1,0.1,0.1
				C135,127.9,135.1,127.9,135.2,127.9z"/>
			<path class="st4" d="M136.7,127.8c0,0-0.1-0.1-0.1-0.1c0,0,0-0.1-0.1-0.1l1-0.5h0.1v2h0.5c0,0.1,0,0.1,0,0.2c0,0.1,0,0.1,0,0.2
				h-1.4c0,0,0-0.1,0-0.2c0-0.1,0-0.1,0-0.2h0.5v-1.5L136.7,127.8z"/>
			<path class="st4" d="M138.6,128.4c0-0.2,0-0.4,0.1-0.6c0.1-0.2,0.1-0.4,0.2-0.5c0.1-0.1,0.3-0.3,0.4-0.4c0.2-0.1,0.4-0.1,0.6-0.2
				c0,0.1,0,0.1,0,0.2c0,0,0,0,0,0.1c0,0,0,0,0,0.1c-0.2,0-0.3,0-0.4,0.1c-0.1,0.1-0.2,0.1-0.3,0.2s-0.2,0.2-0.2,0.3
				c-0.1,0.1-0.1,0.2-0.1,0.4c0.1-0.1,0.1-0.2,0.2-0.2c0.1-0.1,0.2-0.1,0.4-0.1c0.1,0,0.2,0,0.3,0c0.1,0,0.2,0.1,0.2,0.1
				c0.1,0.1,0.1,0.2,0.2,0.3s0.1,0.2,0.1,0.4c0,0.1,0,0.3-0.1,0.4c0,0.1-0.1,0.2-0.2,0.3c-0.1,0.1-0.2,0.1-0.3,0.2
				c-0.1,0-0.2,0.1-0.3,0.1c-0.1,0-0.3,0-0.4-0.1c-0.1,0-0.2-0.1-0.3-0.2s-0.1-0.2-0.2-0.3S138.6,128.6,138.6,128.4z M139.5,128.1
				c-0.1,0-0.1,0-0.2,0c-0.1,0-0.1,0.1-0.2,0.1c0,0-0.1,0.1-0.1,0.2s0,0.1,0,0.2c0,0.2,0,0.3,0.1,0.4c0.1,0.1,0.2,0.1,0.4,0.1
				c0.1,0,0.1,0,0.2,0c0.1,0,0.1-0.1,0.2-0.1c0,0,0.1-0.1,0.1-0.2c0-0.1,0-0.1,0-0.2c0-0.1,0-0.2,0-0.2s-0.1-0.1-0.1-0.2
				c0,0-0.1-0.1-0.2-0.1C139.7,128.1,139.6,128.1,139.5,128.1z"/>
			<path class="st4" d="M142.5,128.1c0,0.2,0,0.4-0.1,0.6c-0.1,0.2-0.1,0.4-0.2,0.5c-0.1,0.1-0.3,0.3-0.4,0.4
				c-0.2,0.1-0.4,0.1-0.6,0.2c0,0,0-0.1,0-0.2c0,0,0,0,0-0.1c0,0,0,0,0-0.1c0.1,0,0.3,0,0.4-0.1c0.1-0.1,0.2-0.1,0.3-0.2
				s0.2-0.2,0.2-0.3c0.1-0.1,0.1-0.2,0.1-0.4c-0.1,0.1-0.1,0.2-0.2,0.2s-0.2,0.1-0.4,0.1c-0.1,0-0.2,0-0.3,0c-0.1,0-0.2-0.1-0.2-0.1
				c-0.1-0.1-0.1-0.2-0.2-0.3s-0.1-0.2-0.1-0.4c0-0.1,0-0.3,0.1-0.4c0-0.1,0.1-0.2,0.2-0.3c0.1-0.1,0.2-0.1,0.3-0.2
				c0.1,0,0.2-0.1,0.3-0.1c0.1,0,0.3,0,0.4,0.1c0.1,0,0.2,0.1,0.3,0.2c0.1,0.1,0.1,0.2,0.2,0.3S142.5,127.9,142.5,128.1z
				 M141.6,128.5c0.1,0,0.1,0,0.2,0c0.1,0,0.1-0.1,0.2-0.1c0,0,0.1-0.1,0.1-0.2s0-0.1,0-0.2c0-0.2,0-0.3-0.1-0.4
				c-0.1-0.1-0.2-0.1-0.4-0.1c-0.1,0-0.3,0-0.4,0.1c-0.1,0.1-0.1,0.2-0.1,0.4c0,0.1,0,0.2,0,0.2s0.1,0.1,0.1,0.2
				c0,0,0.1,0.1,0.2,0.1C141.5,128.5,141.5,128.5,141.6,128.5z"/>
			<path class="st4" d="M143.2,127.8c0,0-0.1-0.1-0.1-0.1c0,0,0-0.1-0.1-0.1l1-0.5h0.1v2h0.5c0,0.1,0,0.1,0,0.2c0,0.1,0,0.1,0,0.2
				h-1.4c0,0,0-0.1,0-0.2c0-0.1,0-0.1,0-0.2h0.5v-1.5L143.2,127.8z"/>
			<path class="st4" d="M145.7,129.4c0.1,0,0.2,0,0.3,0c0.1,0,0.2,0,0.2-0.1c0.1,0,0.1-0.1,0.1-0.2s0.1-0.2,0.1-0.3
				c0-0.1,0-0.3-0.1-0.3c-0.1-0.1-0.2-0.1-0.4-0.1c0,0-0.1,0-0.1,0c0,0-0.1,0-0.1,0l0,0l0.6-0.9h-0.9c0,0,0-0.1,0-0.2
				c0,0,0-0.1,0-0.1c0,0,0-0.1,0-0.1h1.5l0,0l-0.7,1c0,0,0,0,0,0s0,0,0,0c0.1,0,0.2,0,0.3,0.1c0.1,0,0.2,0.1,0.2,0.2
				c0.1,0.1,0.1,0.1,0.1,0.2s0,0.2,0,0.2c0,0.2,0,0.3-0.1,0.4c-0.1,0.1-0.1,0.2-0.2,0.3c-0.1,0.1-0.2,0.1-0.3,0.2
				c-0.1,0-0.3,0.1-0.4,0.1c-0.1,0-0.2,0-0.3,0c-0.1,0-0.2,0-0.3-0.1c0-0.1,0-0.1,0-0.2s0-0.1,0.1-0.1c0.1,0,0.2,0.1,0.2,0.1
				C145.5,129.4,145.6,129.4,145.7,129.4z"/>
			<path class="st4" d="M149,128.1c0,0.2,0,0.4-0.1,0.6s-0.1,0.4-0.2,0.5c-0.1,0.1-0.3,0.3-0.4,0.4c-0.2,0.1-0.4,0.1-0.6,0.2
				c0,0,0-0.1,0-0.2c0,0,0,0,0-0.1s0,0,0-0.1c0.1,0,0.3,0,0.4-0.1c0.1-0.1,0.2-0.1,0.3-0.2c0.1-0.1,0.2-0.2,0.2-0.3
				c0.1-0.1,0.1-0.2,0.1-0.4c-0.1,0.1-0.1,0.2-0.2,0.2c-0.1,0.1-0.2,0.1-0.4,0.1c-0.1,0-0.2,0-0.3,0s-0.2-0.1-0.2-0.1
				c-0.1-0.1-0.1-0.2-0.2-0.3c0-0.1-0.1-0.2-0.1-0.4c0-0.1,0-0.3,0.1-0.4c0-0.1,0.1-0.2,0.2-0.3c0.1-0.1,0.2-0.1,0.3-0.2
				s0.2-0.1,0.3-0.1c0.1,0,0.3,0,0.4,0.1c0.1,0,0.2,0.1,0.3,0.2c0.1,0.1,0.1,0.2,0.2,0.3C149,127.8,149,127.9,149,128.1z
				 M148.1,128.5c0.1,0,0.1,0,0.2,0c0.1,0,0.1-0.1,0.2-0.1s0.1-0.1,0.1-0.2c0-0.1,0-0.1,0-0.2c0-0.2,0-0.3-0.1-0.4s-0.2-0.1-0.4-0.1
				c-0.1,0-0.3,0-0.4,0.1c-0.1,0.1-0.1,0.2-0.1,0.4c0,0.1,0,0.2,0,0.2s0.1,0.1,0.1,0.2c0,0,0.1,0.1,0.2,0.1
				C147.9,128.5,148,128.5,148.1,128.5z"/>
			<path class="st4" d="M149.4,129.4L149.4,129.4l0.7-0.9c0.1-0.1,0.1-0.1,0.2-0.2c0.1-0.1,0.1-0.1,0.1-0.2c0-0.1,0.1-0.1,0.1-0.2
				s0-0.1,0-0.2c0-0.1,0-0.2-0.1-0.3s-0.2-0.1-0.3-0.1c-0.1,0-0.2,0-0.3,0c-0.1,0-0.2,0.1-0.2,0.1c0,0,0-0.1-0.1-0.1
				c0-0.1,0-0.1,0-0.2c0.1,0,0.2-0.1,0.3-0.1s0.2,0,0.4,0c0.1,0,0.2,0,0.3,0s0.2,0.1,0.3,0.1s0.1,0.1,0.2,0.2c0,0.1,0.1,0.2,0.1,0.3
				c0,0.2,0,0.3-0.1,0.5c-0.1,0.2-0.2,0.3-0.4,0.5l-0.3,0.4h1c0,0,0,0.1,0,0.1c0,0,0,0.1,0,0.1c0,0,0,0.1,0,0.1c0,0,0,0.1,0,0.1
				H149.4z"/>
			<path class="st4" d="M151.8,127.8c0,0-0.1-0.1-0.1-0.1c0,0,0-0.1-0.1-0.1l1-0.5h0.1v2h0.5c0,0.1,0,0.1,0,0.2c0,0.1,0,0.1,0,0.2
				h-1.4c0,0,0-0.1,0-0.2c0-0.1,0-0.1,0-0.2h0.5v-1.5L151.8,127.8z"/>
			<path class="st4" d="M154.4,129.7c-0.1,0-0.1,0-0.2-0.1c-0.1,0-0.1-0.1-0.2-0.1l0.9-2.1h-1.2c0,0,0,0,0-0.1c0,0,0-0.1,0-0.1
				c0,0,0-0.1,0-0.1c0,0,0-0.1,0-0.1h1.7l0,0L154.4,129.7z"/>
		</g>
	</g>
</g>
</svg>
