<?xml version="1.0" encoding="utf-8"?>
<!-- Generator: Adobe Illustrator 21.1.0, SVG Export Plug-In . SVG Version: 6.00 Build 0)  -->
<svg version="1.1" id="Layer_1" xmlns="http://www.w3.org/2000/svg" xmlns:xlink="http://www.w3.org/1999/xlink" x="0px" y="0px"
	 viewBox="0 0 260.8 153.1" style="enable-background:new 0 0 260.8 153.1;" xml:space="preserve">
<style type="text/css">
	.st0{fill:none;}
	.st1{fill:#FFE0BD;}
	.st2{enable-background:new    ;}
	.st3{fill:#FFD135;}
	.st4{font-family:'Perpetua';}
	.st5{font-size:4.8382px;}
	.st6{fill:#FFFFFF;}
	.st7{font-family:'Aller';}
	.st8{font-size:5.3662px;}
	.st9{font-size:3.6px;}
</style>
<path class="st0" d="M125.2,20.9"/>
<path class="st0" d="M125.2,27.3"/>
<path class="st0" d="M310.9,33.8"/>
<path class="st0" d="M210.9-23.7"/>
<g>
	<path class="st1" d="M177.2,44.7l-27.4-0.1c-1.9-0.4-2-2.5,0.1-3l14.8,0.1c0.8,0,0.8-1.3,0-1.4l-6.8-0.1c-2.2-0.3-1.9-2.7-0.1-2.9
		l6.9-0.1c1-0.1,0.8-1.3,0-1.4h-5.1c-2-0.6-1.7-2.7,0.2-3h4.8c1.2-0.1,0.8-1.3,0-1.3h-3.4c-1.9-0.2-2.1-2.8-0.1-3l12.6,0.1
		c5.5,0.5,9.5,5.3,10.3,9.1l0.1,14.5c-0.8,2-3.6,2.1-4.1,0v-5.1C180.1,46,178.4,44.7,177.2,44.7L177.2,44.7z"/>
	<path class="st1" d="M144,64.7l27.4,0.1c1.9,0.4,2,2.5-0.1,3h-14.8c-0.8,0-0.8,1.3,0,1.4l6.8,0.1c2.2,0.3,1.9,2.7,0.1,2.9l-6.9,0.1
		c-1,0.1-0.8,1.3,0,1.4h5.1c2,0.6,1.7,2.7-0.2,3h-4.8c-1.2,0.1-0.8,1.3,0,1.3h3.2c1.9,0.2,2.1,2.8,0.1,3l-12.7-0.1
		c-5.5-0.5-9.5-5.3-10.3-9.1l-0.1-14.5c0.8-2,3.6-2.1,4.1,0v5C141,63.4,142.7,64.8,144,64.7L144,64.7z"/>
	<g>
		<g class="st2">
			<path class="st3" d="M84.7,48.8v-0.3h2.9v0.3c-0.5,0-0.8,0.1-1,0.3c-0.2,0.2-0.3,0.6-0.3,1.2v7.8h-0.3l-6.8-8.3v6.7
				c0,0.5,0.1,0.8,0.3,1c0.2,0.2,0.5,0.3,1,0.3v0.3h-2.9v-0.3c0.5,0,0.8-0.1,0.9-0.4c0.2-0.2,0.2-0.7,0.2-1.3v-5.6
				c0-0.6-0.1-1-0.3-1.3s-0.6-0.4-1.1-0.5v-0.3h2.5l6,7.4v-5.6c0-0.6-0.1-1-0.2-1.2C85.4,49,85.1,48.8,84.7,48.8z"/>
		</g>
		<g class="st2">
			<path class="st3" d="M91.8,52.1h0.3v5c0,0.3,0.1,0.5,0.2,0.7c0.1,0.1,0.4,0.2,0.8,0.2v0.3h-3.2v-0.3c0.5,0,0.8-0.1,0.9-0.2
				S91,57.4,91,57v-3.6c0-0.4-0.1-0.6-0.2-0.7c-0.1-0.1-0.4-0.2-0.9-0.2v-0.3L91.8,52.1z M91.5,49c0.2,0,0.4,0.1,0.5,0.2
				s0.2,0.3,0.2,0.5s-0.1,0.4-0.2,0.5c-0.1,0.1-0.3,0.2-0.5,0.2c-0.2,0-0.4-0.1-0.5-0.2c-0.1-0.1-0.2-0.3-0.2-0.5s0.1-0.4,0.2-0.5
				S91.3,49,91.5,49z"/>
		</g>
		<g class="st2">
			<path class="st3" d="M99.8,53.2l-1.5,1.4l2.5,2.5c0.3,0.3,0.5,0.5,0.7,0.6s0.4,0.2,0.7,0.2v0.3h-1.9l-3.1-3
				c0,1.6,0.1,2.4,0.2,2.5c0.1,0.1,0.4,0.2,0.8,0.2v0.3H95v-0.3c0.5,0,0.7-0.1,0.9-0.2c0.1-0.1,0.2-0.4,0.2-0.9v-7.8
				c0-0.3-0.1-0.6-0.2-0.7c-0.1-0.1-0.4-0.1-0.9-0.1v-0.3l1.9-0.2h0.3v7.5l1.6-1.5c0.3-0.3,0.5-0.5,0.5-0.7c0-0.3-0.2-0.4-0.7-0.4
				v-0.3h3.2v0.3h-0.3C100.8,52.5,100.3,52.8,99.8,53.2z"/>
		</g>
		<g class="st2">
			<path class="st3" d="M108.6,56.9V54c0-0.4-0.1-0.7-0.3-0.9s-0.5-0.4-0.9-0.4c-0.3,0-0.6,0.1-0.9,0.3c-0.3,0.2-0.5,0.5-0.8,0.9
				v3.2c0,0.3,0.1,0.5,0.2,0.6c0.1,0.1,0.4,0.2,0.8,0.2v0.3h-3.2v-0.3c0.5,0,0.7-0.1,0.9-0.2c0.1-0.1,0.2-0.4,0.2-0.9V49
				c0-0.4-0.1-0.6-0.2-0.7c-0.1-0.1-0.4-0.2-0.9-0.2v-0.3l1.9-0.2h0.3v5.6c0.4-0.4,0.7-0.7,1-0.9s0.7-0.3,1-0.3c0.6,0,1,0.2,1.4,0.6
				s0.6,0.9,0.6,1.5v2.6c0,0.5,0.1,0.8,0.2,0.9c0.1,0.1,0.4,0.2,0.8,0.2v0.3h-3.1v-0.3c0.4,0,0.7-0.1,0.8-0.2
				C108.6,57.5,108.6,57.3,108.6,56.9z"/>
		</g>
		<g class="st2">
			<path class="st3" d="M114.4,52.1h0.3v5c0,0.3,0.1,0.5,0.2,0.7c0.1,0.1,0.4,0.2,0.8,0.2v0.3h-3.2v-0.3c0.5,0,0.8-0.1,0.9-0.2
				s0.2-0.3,0.2-0.7v-3.6c0-0.4-0.1-0.6-0.2-0.7c-0.1-0.1-0.4-0.2-0.9-0.2v-0.3L114.4,52.1z M114.2,49c0.2,0,0.4,0.1,0.5,0.2
				s0.2,0.3,0.2,0.5s-0.1,0.4-0.2,0.5c-0.1,0.1-0.3,0.2-0.5,0.2c-0.2,0-0.4-0.1-0.5-0.2c-0.1-0.1-0.2-0.3-0.2-0.5s0.1-0.4,0.2-0.5
				S113.9,49,114.2,49z"/>
		</g>
		<g class="st2">
			<path class="st3" d="M121,57.9h0.2v0.3h-3.3v-0.3h0.3c0.3,0,0.5-0.1,0.6-0.2c0.1-0.2,0.2-0.5,0.2-0.9v-7.8c0-0.3-0.1-0.5-0.2-0.6
				c-0.1-0.1-0.3-0.2-0.6-0.2h-0.4v-0.3l2-0.2h0.3V57c0,0.3,0.1,0.5,0.2,0.7C120.4,57.8,120.6,57.9,121,57.9z"/>
		</g>
		<g class="st2">
			<path class="st3" d="M124.2,51.5v-0.3c0.7-0.4,1-1,1-1.8c0-0.1,0-0.2-0.1-0.2c0-0.1-0.2-0.1-0.3-0.2c-0.2-0.1-0.4-0.1-0.4-0.2
				c-0.1-0.1-0.1-0.2-0.1-0.4c0-0.2,0.1-0.4,0.2-0.5c0.1-0.1,0.3-0.2,0.5-0.2c0.3,0,0.6,0.1,0.7,0.3s0.3,0.5,0.3,0.9
				c0,0.6-0.2,1.2-0.5,1.6C125.2,51,124.8,51.3,124.2,51.5z"/>
		</g>
		<g class="st2">
			<path class="st3" d="M134.8,48.4h0.3v2.2h-0.3c-0.1-0.6-0.3-1.1-0.7-1.5s-0.9-0.5-1.4-0.5c-0.5,0-0.9,0.1-1.2,0.4s-0.5,0.6-0.5,1
				c0,0.4,0.1,0.8,0.4,1.1c0.3,0.3,0.8,0.8,1.7,1.3c1,0.6,1.7,1.1,2,1.6s0.5,1,0.5,1.5c0,0.8-0.3,1.4-0.8,1.9
				c-0.5,0.5-1.2,0.8-1.9,0.8c-0.4,0-1-0.1-1.7-0.4c-0.3-0.1-0.5-0.1-0.5-0.1c-0.2,0-0.3,0.1-0.4,0.4H130v-2.6h0.3
				c0,0.7,0.2,1.3,0.7,1.7c0.5,0.4,1,0.6,1.6,0.6c0.6,0,1-0.2,1.4-0.5c0.3-0.3,0.5-0.7,0.5-1.2c0-0.4-0.1-0.8-0.4-1.1
				c-0.3-0.4-0.9-0.8-1.8-1.4c-0.7-0.5-1.2-0.8-1.5-1.1s-0.4-0.6-0.6-0.9c-0.1-0.3-0.2-0.7-0.2-1c0-0.7,0.2-1.3,0.7-1.8
				c0.5-0.5,1.1-0.7,1.9-0.7c0.4,0,0.9,0.1,1.4,0.3c0.2,0.1,0.4,0.1,0.5,0.1c0.1,0,0.1,0,0.2,0C134.7,48.6,134.7,48.5,134.8,48.4z"
				/>
		</g>
	</g>
	<g transform="matrix(0.99109 0 0 1 550.402 139.141)">
		<g class="st2">
			<path class="st3" d="M-409.5-81c-0.5,0-0.9-0.2-1.2-0.5c-0.3-0.3-0.5-0.7-0.5-1.1c0-0.4,0.1-0.8,0.4-1c0.3-0.3,0.9-0.5,1.7-0.8
				c0.5-0.2,0.9-0.3,1.1-0.4v-0.4c0-0.4-0.1-0.8-0.4-1c-0.2-0.3-0.6-0.4-1-0.4c-0.4,0-0.7,0.1-1,0.3c-0.3,0.2-0.5,0.5-0.6,0.9
				l-0.3-0.1c0.1-0.5,0.4-1,0.8-1.3c0.4-0.3,0.9-0.5,1.4-0.5c0.6,0,1.2,0.2,1.5,0.6c0.4,0.4,0.6,0.9,0.6,1.6v2.5
				c0,0.4,0,0.6,0.1,0.7c0,0.1,0.1,0.2,0.3,0.2c0.1,0,0.2,0,0.2-0.1c0.1-0.1,0.1-0.2,0.2-0.5h0.3c0,0.4-0.1,0.7-0.3,0.9
				c-0.2,0.2-0.5,0.3-0.8,0.3c-0.5,0-0.8-0.3-1-0.8c-0.3,0.3-0.6,0.5-0.8,0.7C-408.9-81.1-409.2-81-409.5-81z M-407.9-82.4v-2
				c-0.2,0.1-0.4,0.2-0.7,0.3c-0.6,0.2-1,0.4-1.1,0.6c-0.2,0.2-0.2,0.5-0.2,0.8c0,0.3,0.1,0.5,0.3,0.8c0.2,0.2,0.4,0.3,0.6,0.3
				c0.2,0,0.5-0.1,0.7-0.2C-408.2-82-408-82.2-407.9-82.4z"/>
		</g>
		<g class="st2">
			<path class="st3" d="M-401.9-87.3v1.2c0.7-0.8,1.4-1.2,2.1-1.2c0.6,0,1,0.2,1.4,0.6s0.6,0.9,0.6,1.5v2.7c0,0.4,0.1,0.7,0.2,0.8
				c0.1,0.1,0.4,0.2,0.8,0.2v0.3h-3.2v-0.3c0.4,0,0.7-0.1,0.8-0.2s0.2-0.3,0.2-0.6v-3.1c0-0.4-0.1-0.7-0.4-1
				c-0.2-0.2-0.6-0.4-0.9-0.4c-0.6,0-1.1,0.4-1.7,1.2v2.9c0,0.5,0.1,0.8,0.2,0.9c0.1,0.1,0.4,0.2,0.8,0.2v0.3h-3.1v-0.3
				c0.5,0,0.7-0.1,0.8-0.2c0.1-0.1,0.2-0.5,0.2-0.9V-86c0-0.4-0.1-0.6-0.2-0.7c-0.1-0.1-0.4-0.2-0.8-0.2v-0.3l1.8-0.2H-401.9z"/>
		</g>
		<g class="st2">
			<path class="st3" d="M-390.3-87.2h1.9v0.7h-1.6c0.4,0.5,0.7,1.1,0.7,1.7c0,0.6-0.2,1.1-0.6,1.6c-0.4,0.5-0.9,0.7-1.6,0.7
				c-0.4,0-0.9,0.2-1.3,0.4c-0.4,0.3-0.6,0.5-0.6,0.7c0,0.2,0.1,0.4,0.3,0.5c0.2,0.1,0.8,0.2,1.6,0.4c0.9,0.2,1.6,0.3,1.9,0.5
				c0.4,0.1,0.6,0.3,0.8,0.6c0.2,0.3,0.3,0.5,0.3,0.9c0,0.7-0.4,1.3-1.1,1.8c-0.7,0.5-1.6,0.7-2.6,0.7c-0.9,0-1.6-0.2-2.1-0.5
				c-0.5-0.3-0.8-0.8-0.8-1.3c0-0.4,0.2-0.7,0.5-1c0.3-0.3,0.8-0.6,1.5-0.9v0c-0.4-0.1-0.7-0.2-0.9-0.4c-0.2-0.2-0.3-0.4-0.3-0.7
				c0-0.7,0.6-1.2,1.8-1.6v0c-0.6-0.2-1.1-0.4-1.4-0.8c-0.3-0.4-0.5-0.9-0.5-1.4c0-0.7,0.2-1.3,0.7-1.8c0.5-0.5,1.1-0.7,1.8-0.7
				c0.1,0,0.4,0,0.8,0C-390.7-87.2-390.4-87.2-390.3-87.2z M-389-78.1c0-0.4-0.2-0.7-0.7-0.9c-0.5-0.2-1.4-0.4-2.7-0.7
				c-1.1,0.3-1.7,0.8-1.7,1.4c0,0.4,0.3,0.8,0.8,1.1c0.6,0.3,1.3,0.4,2.1,0.4c0.7,0,1.2-0.1,1.6-0.4C-389.2-77.4-389-77.7-389-78.1z
				 M-393.3-84.9c0,0.6,0.1,1.2,0.4,1.5c0.3,0.4,0.6,0.6,1.1,0.6c0.5,0,0.8-0.2,1.1-0.6c0.3-0.4,0.4-0.9,0.4-1.6
				c0-0.6-0.1-1.1-0.4-1.5c-0.3-0.4-0.6-0.6-1-0.6c-0.4,0-0.8,0.2-1.1,0.6C-393.2-86-393.3-85.5-393.3-84.9z"/>
		</g>
		<g class="st2">
			<path class="st3" d="M-383.3-81.5h0.2v0.3h-3.3v-0.3h0.3c0.3,0,0.5-0.1,0.6-0.2c0.1-0.2,0.2-0.5,0.2-0.9v-7.8
				c0-0.3-0.1-0.5-0.2-0.6c-0.1-0.1-0.3-0.2-0.6-0.2h-0.4v-0.3l2-0.2h0.3v9.4c0,0.3,0.1,0.5,0.2,0.7
				C-383.9-81.5-383.6-81.5-383.3-81.5z"/>
		</g>
		<g class="st2">
			<path class="st3" d="M-375.2-82.7v0.4c-0.4,0.5-0.7,0.8-1.1,1s-0.8,0.3-1.3,0.3c-0.9,0-1.7-0.3-2.3-0.9c-0.6-0.6-0.9-1.3-0.9-2.2
				c0-0.9,0.3-1.7,0.9-2.3c0.6-0.6,1.3-0.9,2.1-0.9c0.7,0,1.3,0.2,1.8,0.7c0.5,0.5,0.8,1,0.8,1.7v0.1h-4.3v0.1
				c0,0.7,0.1,1.2,0.3,1.7c0.2,0.5,0.5,0.9,0.9,1.1c0.4,0.3,0.8,0.4,1.2,0.4c0.4,0,0.7-0.1,1-0.2C-376-81.9-375.6-82.2-375.2-82.7z
				 M-379.6-85.1h3.2v-0.1c0-0.5-0.2-0.9-0.5-1.3c-0.3-0.3-0.7-0.5-1.1-0.5c-0.5,0-0.9,0.2-1.2,0.5S-379.6-85.7-379.6-85.1z"/>
		</g>
	</g>
</g>
<text transform="matrix(1 0 0 1 97.8656 91.0972)" class="st3 st4 st5">Wedding, Events, Portraits &amp; More...</text>
<text transform="matrix(1 0 0 1 94.4735 114.3726)" class="st6 st7 st8">Website is under construction</text>
<text transform="matrix(1 0 0 1 117.4418 123.437)" class="st6 st7 st9">For more details</text>
<text transform="matrix(1 0 0 1 108.2293 134.1626)" class="st6 st7 st9">contact@nikhils-angle.com</text>
<g>
	<text transform="matrix(1 0 0 1 105.5252 129.441)" class="st6 st7 st9">9773008795</text>
	<text transform="matrix(1 0 0 1 134.0708 129.441)" class="st6 st7 st9">8169139217</text>
</g>
</svg>
