<?xml version="1.0" encoding="utf-8"?>
<!-- Generator: Adobe Illustrator 21.1.0, SVG Export Plug-In . SVG Version: 6.00 Build 0)  -->
<svg version="1.1" id="Layer_1" xmlns="http://www.w3.org/2000/svg" xmlns:xlink="http://www.w3.org/1999/xlink" x="0px" y="0px"
	 viewBox="0 0 260.8 153.1" style="enable-background:new 0 0 260.8 153.1;" xml:space="preserve">
<style type="text/css">
	.st0{fill:none;}
	.st1{fill:#FFE0BD;}
	.st2{fill:#FFD135;}
	.st3{font-family:'Perpetua';}
	.st4{font-size:16.6959px;}
	.st5{font-size:4.8382px;}
	.st6{fill:#FFFFFF;}
	.st7{font-family:'Aller';}
	.st8{font-size:5.3662px;}
	.st9{font-size:3.6px;}
</style>
<path class="st0" d="M97.7,20.9"/>
<path class="st0" d="M147.4,27.3"/>
<g>
	<path class="st1" d="M177,47.4l-27.4-0.1c-1.9-0.4-2-2.5,0.1-3l14.8,0.1c0.8,0,0.8-1.3,0-1.4l-6.8-0.1c-2.2-0.3-1.9-2.7-0.1-2.9
		l6.9-0.1c1-0.1,0.8-1.3,0-1.4h-5.1c-2-0.6-1.7-2.7,0.2-3h4.8c1.2-0.1,0.8-1.3,0-1.3H161c-1.9-0.2-2.1-2.8-0.1-3l12.6,0.1
		c5.5,0.5,9.5,5.3,10.3,9.1l0.1,14.5c-0.8,2-3.6,2.1-4.1,0v-5.1C179.9,48.7,178.2,47.4,177,47.4L177,47.4z"/>
	<path class="st1" d="M143.8,67.4l27.4,0.1c1.9,0.4,2,2.5-0.1,3h-14.8c-0.8,0-0.8,1.3,0,1.4l6.8,0.1c2.2,0.3,1.9,2.7,0.1,2.9
		l-6.9,0.1c-1,0.1-0.8,1.3,0,1.4h5.1c2,0.6,1.7,2.7-0.2,3h-4.8c-1.2,0.1-0.8,1.3,0,1.3h3.2c1.9,0.2,2.1,2.8,0.1,3l-12.7-0.1
		c-5.5-0.5-9.5-5.3-10.3-9.1l-0.1-14.5c0.8-2,3.6-2.1,4.1,0V65C140.8,66.1,142.5,67.5,143.8,67.4L143.8,67.4z"/>
	<g>
		<text transform="matrix(1 0 0 1 76.8681 60.8025)" class="st2 st3 st4">N</text>
		<text transform="matrix(1 0 0 1 89.3944 60.8025)" class="st2 st3 st4">i</text>
		<text transform="matrix(1 0 0 1 94.6063 60.8025)" class="st2 st3 st4">k</text>
		<text transform="matrix(1 0 0 1 103.2919 60.8025)" class="st2 st3 st4">h</text>
		<text transform="matrix(1 0 0 1 112.0004 60.8025)" class="st2 st3 st4">i</text>
		<text transform="matrix(1 0 0 1 117.2123 60.8025)" class="st2 st3 st4">l</text>
		<text transform="matrix(1 0 0 1 122.6068 60.8025)" class="st2 st3 st4">’</text>
		<text transform="matrix(1 0 0 1 128.8695 60.8025)" class="st2 st3 st4">S </text>
	</g>
	<g transform="matrix(0.99109 0 0 1 550.402 139.141)">
		<text transform="matrix(1 0 0 1 -411.8899 -78.5406)" class="st2 st3 st4">a</text>
		<text transform="matrix(1 0 0 1 -404.4151 -78.5406)" class="st2 st3 st4">n</text>
		<text transform="matrix(1 0 0 1 -395.3864 -78.5406)" class="st2 st3 st4">g</text>
		<text transform="matrix(1 0 0 1 -387.0208 -78.5406)" class="st2 st3 st4">l</text>
		<text transform="matrix(1 0 0 1 -381.6271 -78.5406)" class="st2 st3 st4">e</text>
	</g>
</g>
<text transform="matrix(1 0 0 1 96.9425 93.7665)" class="st2 st3 st5">Wedding, Events, Portraits &amp; More...</text>
<path class="st0" d="M310.9,33.8"/>
<path class="st0" d="M210.9-23.7"/>
<g>
	<text transform="matrix(1 0 0 1 90.8019 113.042)" class="st6 st7 st8">Website is under construction</text>
	<text transform="matrix(1 0 0 1 113.7705 121.6064)" class="st6 st7 st9">For more details</text>
	<text transform="matrix(1 0 0 1 104.7241 132.082)" class="st6 st7 st9">contact@nikhils-angle.com</text>
	<g>
		<text transform="matrix(1 0 0 1 101.854 127.3604)" class="st6 st7 st9">9773008795</text>
		<text transform="matrix(1 0 0 1 130.3996 127.3604)" class="st6 st7 st9">8169139217</text>
	</g>
</g>
</svg>
