<?xml version="1.0" encoding="utf-8"?>
<!-- Generator: Adobe Illustrator 21.1.0, SVG Export Plug-In . SVG Version: 6.00 Build 0)  -->
<svg version="1.1" id="Layer_1" xmlns="http://www.w3.org/2000/svg" xmlns:xlink="http://www.w3.org/1999/xlink" x="0px" y="0px"
	 viewBox="0 0 300 100" style="enable-background:new 0 0 300 100;" xml:space="preserve">
<style type="text/css">
	.st0{fill:#FFE0BD;}
	.st1{fill:#FFD135;}
	.st2{font-family:'Perpetua';}
	.st3{font-size:15.1104px;}
	.st4{font-size:4.3787px;}
	.st5{fill:#FFFFFF;}
	.st6{font-family:'Aller';}
	.st7{font-size:4.8566px;}
	.st8{font-size:3.2581px;}
</style>
<g>
	<g>
		<g>
			<path class="st0" d="M189.8,16.2L165,16.1c-1.7-0.4-1.8-2.3,0.1-2.7l13.4,0.1c0.7,0,0.7-1.2,0-1.3l-6.2-0.1
				c-2-0.3-1.7-2.4-0.1-2.6l6.2-0.1c0.9-0.1,0.7-1.2,0-1.3h-4.6c-1.8-0.5-1.5-2.4,0.2-2.7h4.3c1.1-0.1,0.7-1.2,0-1.2h-3.1
				c-1.7-0.2-1.9-2.5-0.1-2.7l11.4,0.1c5,0.5,8.6,4.8,9.3,8.2L196,23c-0.7,1.8-3.3,1.9-3.7,0v-4.6C192.4,17.4,190.9,16.2,189.8,16.2
				L189.8,16.2z"/>
			<path class="st0" d="M159.7,34.3l24.8,0.1c1.7,0.4,1.8,2.3-0.1,2.7H171c-0.7,0-0.7,1.2,0,1.3l6.2,0.1c2,0.3,1.7,2.4,0.1,2.6
				l-6.2,0.1c-0.9,0.1-0.7,1.2,0,1.3h4.6c1.8,0.5,1.5,2.4-0.2,2.7h-4.3c-1.1,0.1-0.7,1.2,0,1.2h2.9c1.7,0.2,1.9,2.5,0.1,2.7
				L162.6,49c-5-0.5-8.6-4.8-9.3-8.2l-0.1-13.1c0.7-1.8,3.3-1.9,3.7,0v4.5C157,33.1,158.6,34.4,159.7,34.3L159.7,34.3z"/>
			<g>
				<text transform="matrix(1 0 0 1 99.1636 28.3789)" class="st1 st2 st3">N</text>
				<text transform="matrix(1 0 0 1 110.5005 28.3789)" class="st1 st2 st3">i</text>
				<text transform="matrix(1 0 0 1 115.2173 28.3789)" class="st1 st2 st3">k</text>
				<text transform="matrix(1 0 0 1 123.0786 28.3789)" class="st1 st2 st3">h</text>
				<text transform="matrix(1 0 0 1 130.9595 28.3789)" class="st1 st2 st3">i</text>
				<text transform="matrix(1 0 0 1 135.6763 28.3789)" class="st1 st2 st3">l</text>
				<text transform="matrix(1 0 0 1 140.5591 28.3789)" class="st1 st2 st3">’</text>
				<text transform="matrix(1 0 0 1 146.2271 28.3789)" class="st1 st2 st3">S </text>
			</g>
			<g transform="matrix(0.99109 0 0 1 550.402 139.141)">
				<text transform="matrix(1 0 0 1 -395.6519 -110.9447)" class="st1 st2 st3">a</text>
				<text transform="matrix(1 0 0 1 -388.8875 -110.9447)" class="st1 st2 st3">n</text>
				<text transform="matrix(1 0 0 1 -380.716 -110.9447)" class="st1 st2 st3">g</text>
				<text transform="matrix(1 0 0 1 -373.1457 -110.9447)" class="st1 st2 st3">l</text>
				<text transform="matrix(1 0 0 1 -368.2633 -110.9447)" class="st1 st2 st3">e</text>
			</g>
		</g>
		<text transform="matrix(1 0 0 1 117.9741 58.2119)" class="st1 st2 st4">Wedding, Events, Portraits &amp; More...</text>
	</g>
	<text transform="matrix(1 0 0 1 114.9038 79.2773)" class="st5 st6 st7">Website is under construction</text>
	<text transform="matrix(1 0 0 1 135.6909 87.4814)" class="st5 st6 st8">For more details</text>
	<text transform="matrix(1 0 0 1 127.353 97.1885)" class="st5 st6 st8">contact@nikhils-angle.com</text>
	<g>
		<text transform="matrix(1 0 0 1 124.9058 92.916)" class="st5 st6 st8">9773008795</text>
		<text transform="matrix(1 0 0 1 150.7407 92.916)" class="st5 st6 st8">8169139217</text>
	</g>
</g>
</svg>
