<?xml version="1.0" encoding="utf-8"?>
<!-- Generator: Adobe Illustrator 21.1.0, SVG Export Plug-In . SVG Version: 6.00 Build 0)  -->
<svg version="1.1" id="Layer_1" xmlns="http://www.w3.org/2000/svg" xmlns:xlink="http://www.w3.org/1999/xlink" x="0px" y="0px"
	 viewBox="0 0 300 300" style="enable-background:new 0 0 300 300;" xml:space="preserve">
<style type="text/css">
	.st0{fill:#FFE0BD;}
	.st1{fill:#FFD135;}
	.st2{font-family:'Perpetua';}
	.st3{font-size:16.6959px;}
	.st4{font-size:4.8382px;}
	.st5{fill:#FFFFFF;}
	.st6{font-family:'Aller';}
	.st7{font-size:5.3662px;}
	.st8{font-size:3.6px;}
</style>
<g>
	<g>
		<g>
			<path class="st0" d="M194.2,34.7l-27.4-0.1c-1.9-0.4-2-2.5,0.1-3l14.8,0.1c0.8,0,0.8-1.3,0-1.4l-6.8-0.1
				c-2.2-0.3-1.9-2.7-0.1-2.9l6.9-0.1c1-0.1,0.8-1.3,0-1.4h-5.1c-2-0.6-1.7-2.7,0.2-3h4.8c1.2-0.1,0.8-1.3,0-1.3h-3.4
				c-1.9-0.2-2.1-2.8-0.1-3l12.6,0.1c5.5,0.5,9.5,5.3,10.3,9.1l0.1,14.5c-0.8,2-3.6,2.1-4.1,0v-5.1C197.1,36,195.4,34.7,194.2,34.7
				L194.2,34.7z"/>
			<path class="st0" d="M161,54.7l27.4,0.1c1.9,0.4,2,2.5-0.1,3h-14.8c-0.8,0-0.8,1.3,0,1.4l6.8,0.1c2.2,0.3,1.9,2.7,0.1,2.9
				l-6.9,0.1c-1,0.1-0.8,1.3,0,1.4h5.1c2,0.6,1.7,2.7-0.2,3h-4.8c-1.2,0.1-0.8,1.3,0,1.3h3.2c1.9,0.2,2.1,2.8,0.1,3l-12.7-0.1
				c-5.5-0.5-9.5-5.3-10.3-9.1l-0.1-14.5c0.8-2,3.6-2.1,4.1,0v5C158,53.4,159.7,54.8,161,54.7L161,54.7z"/>
			<g>
				<text transform="matrix(1 0 0 1 94.0819 48.1331)" class="st1 st2 st3">N</text>
				<text transform="matrix(1 0 0 1 106.6082 48.1331)" class="st1 st2 st3">i</text>
				<text transform="matrix(1 0 0 1 111.8201 48.1331)" class="st1 st2 st3">k</text>
				<text transform="matrix(1 0 0 1 120.5057 48.1331)" class="st1 st2 st3">h</text>
				<text transform="matrix(1 0 0 1 129.2142 48.1331)" class="st1 st2 st3">i</text>
				<text transform="matrix(1 0 0 1 134.4261 48.1331)" class="st1 st2 st3">l</text>
				<text transform="matrix(1 0 0 1 139.8206 48.1331)" class="st1 st2 st3">’</text>
				<text transform="matrix(1 0 0 1 146.0833 48.1331)" class="st1 st2 st3">S </text>
			</g>
			<g transform="matrix(0.99109 0 0 1 550.402 139.141)">
				<text transform="matrix(1 0 0 1 -394.5212 -91.2099)" class="st1 st2 st3">a</text>
				<text transform="matrix(1 0 0 1 -387.0464 -91.2099)" class="st1 st2 st3">n</text>
				<text transform="matrix(1 0 0 1 -378.0182 -91.2099)" class="st1 st2 st3">g</text>
				<text transform="matrix(1 0 0 1 -369.6526 -91.2099)" class="st1 st2 st3">l</text>
				<text transform="matrix(1 0 0 1 -364.2589 -91.2099)" class="st1 st2 st3">e</text>
			</g>
		</g>
		<text transform="matrix(1 0 0 1 114.8656 81.0972)" class="st1 st2 st4">Wedding, Events, Portraits &amp; More...</text>
	</g>
	<text transform="matrix(1 0 0 1 111.4735 104.3726)" class="st5 st6 st7">Website is under construction</text>
	<text transform="matrix(1 0 0 1 134.4418 113.437)" class="st5 st6 st8">For more details</text>
	<text transform="matrix(1 0 0 1 125.2293 124.1626)" class="st5 st6 st8">contact@nikhils-angle.com</text>
	<g>
		<text transform="matrix(1 0 0 1 122.5252 119.441)" class="st5 st6 st8">9773008795</text>
		<text transform="matrix(1 0 0 1 151.0708 119.441)" class="st5 st6 st8">8169139217</text>
	</g>
</g>
</svg>
