<?xml version="1.0" encoding="utf-8"?>
<!-- Generator: Adobe Illustrator 21.1.0, SVG Export Plug-In . SVG Version: 6.00 Build 0)  -->
<svg version="1.1" id="Layer_1" xmlns="http://www.w3.org/2000/svg" xmlns:xlink="http://www.w3.org/1999/xlink" x="0px" y="0px"
	 viewBox="0 0 50 50" style="enable-background:new 0 0 50 50;" xml:space="preserve">
<style type="text/css">
	.st0{fill:#FFE0BD;}
	.st1{fill:#FFD135;}
	.st2{font-family:'Perpetua';}
	.st3{font-size:7.0489px;}
	.st4{font-size:2.0426px;}
	.st5{fill:#FFFFFF;}
	.st6{font-family:'Aller';}
	.st7{font-size:2.2656px;}
	.st8{font-size:1.5199px;}
</style>
<g>
	<g>
		<g>
			<path class="st0" d="M44.3,9.1l-11.6,0c-0.8-0.2-0.8-1.1,0-1.3l6.2,0c0.3,0,0.3-0.5,0-0.6l-2.9,0c-0.9-0.1-0.8-1.1,0-1.2L39,6
				c0.4,0,0.3-0.5,0-0.6h-2.2c-0.8-0.3-0.7-1.1,0.1-1.3h2c0.5,0,0.3-0.5,0-0.5h-1.4c-0.8-0.1-0.9-1.2,0-1.3l5.3,0
				c2.3,0.2,4,2.2,4.3,3.8l0,6.1c-0.3,0.8-1.5,0.9-1.7,0v-2.2C45.5,9.7,44.8,9.1,44.3,9.1L44.3,9.1z"/>
			<path class="st0" d="M30.3,17.6l11.6,0c0.8,0.2,0.8,1.1,0,1.3h-6.2c-0.3,0-0.3,0.5,0,0.6l2.9,0c0.9,0.1,0.8,1.1,0,1.2l-2.9,0
				c-0.4,0-0.3,0.5,0,0.6h2.2c0.8,0.3,0.7,1.1-0.1,1.3h-2c-0.5,0-0.3,0.5,0,0.5h1.4c0.8,0.1,0.9,1.2,0,1.3l-5.4,0
				c-2.3-0.2-4-2.2-4.3-3.8l0-6.1c0.3-0.8,1.5-0.9,1.7,0v2.1C29,17,29.7,17.6,30.3,17.6L30.3,17.6z"/>
			<g>
				<text transform="matrix(1 0 0 1 2 14.7959)" class="st1 st2 st3">N</text>
				<text transform="matrix(1 0 0 1 7.2881 14.7959)" class="st1 st2 st3">i</text>
				<text transform="matrix(1 0 0 1 9.4893 14.7959)" class="st1 st2 st3">k</text>
				<text transform="matrix(1 0 0 1 13.1563 14.7959)" class="st1 st2 st3">h</text>
				<text transform="matrix(1 0 0 1 16.833 14.7959)" class="st1 st2 st3">i</text>
				<text transform="matrix(1 0 0 1 19.0332 14.7959)" class="st1 st2 st3">l</text>
				<text transform="matrix(1 0 0 1 21.3105 14.7959)" class="st1 st2 st3">’</text>
				<text transform="matrix(1 0 0 1 23.9541 14.7959)" class="st1 st2 st3">S </text>
			</g>
			<g transform="matrix(0.99109 0 0 1 550.402 139.141)">
				<text transform="matrix(1 0 0 1 -525.5091 -124.4301)" class="st1 st2 st3">a</text>
				<text transform="matrix(1 0 0 1 -522.353 -124.4301)" class="st1 st2 st3">n</text>
				<text transform="matrix(1 0 0 1 -518.5417 -124.4301)" class="st1 st2 st3">g</text>
				<text transform="matrix(1 0 0 1 -515.0103 -124.4301)" class="st1 st2 st3">l</text>
				<text transform="matrix(1 0 0 1 -512.7321 -124.4301)" class="st1 st2 st3">e</text>
			</g>
		</g>
		<text transform="matrix(1 0 0 1 10.7744 28.7129)" class="st1 st2 st4">Wedding, Events, Portraits &amp; More...</text>
	</g>
	<text transform="matrix(1 0 0 1 9.3428 38.54)" class="st5 st6 st7">Website is under construction</text>
	<text transform="matrix(1 0 0 1 19.04 42.3672)" class="st5 st6 st8">For more details</text>
	<text transform="matrix(1 0 0 1 15.1504 46.8955)" class="st5 st6 st8">contact@nikhils-angle.com</text>
	<g>
		<text transform="matrix(1 0 0 1 14.0088 44.9014)" class="st5 st6 st8">9773008795</text>
		<text transform="matrix(1 0 0 1 26.0605 44.9014)" class="st5 st6 st8">8169139217</text>
	</g>
</g>
</svg>
