<?xml version="1.0" encoding="utf-8"?>
<!-- Generator: Adobe Illustrator 21.1.0, SVG Export Plug-In . SVG Version: 6.00 Build 0)  -->
<svg version="1.1" id="Layer_1" xmlns="http://www.w3.org/2000/svg" xmlns:xlink="http://www.w3.org/1999/xlink" x="0px" y="0px"
	 viewBox="0 0 130.6 130.6" style="enable-background:new 0 0 130.6 130.6;" xml:space="preserve">
<style type="text/css">
	.st0{fill:#FFE0BD;}
	.st1{fill:#FFD135;}
	.st2{font-family:'Perpetua';}
	.st3{font-size:16.6959px;}
	.st4{font-size:4.8382px;}
	.st5{fill:#FFFFFF;}
	.st6{font-family:'Aller';}
	.st7{font-size:5.3662px;}
	.st8{font-size:3.6px;}
</style>
<g>
	<g>
		<g>
			<path class="st0" d="M112.2,29.7l-27.4-0.1c-1.9-0.4-2-2.5,0.1-3l14.8,0.1c0.8,0,0.8-1.3,0-1.4l-6.8-0.1
				c-2.2-0.3-1.9-2.7-0.1-2.9l6.9-0.1c1-0.1,0.8-1.3,0-1.4h-5.1c-2-0.6-1.7-2.7,0.2-3h4.8c1.2-0.1,0.8-1.3,0-1.3h-3.4
				c-1.9-0.2-2.1-2.8-0.1-3l12.6,0.1c5.5,0.5,9.5,5.3,10.3,9.1l0.1,14.5c-0.8,2-3.6,2.1-4.1,0v-5.1C115.1,31,113.4,29.7,112.2,29.7
				L112.2,29.7z"/>
			<path class="st0" d="M79,49.7l27.4,0.1c1.9,0.4,2,2.5-0.1,3H91.5c-0.8,0-0.8,1.3,0,1.4l6.8,0.1c2.2,0.3,1.9,2.7,0.1,2.9l-6.9,0.1
				c-1,0.1-0.8,1.3,0,1.4h5.1c2,0.6,1.7,2.7-0.2,3h-4.8c-1.2,0.1-0.8,1.3,0,1.3h3.2c1.9,0.2,2.1,2.8,0.1,3l-12.7-0.1
				c-5.5-0.5-9.5-5.3-10.3-9.1l-0.1-14.5c0.8-2,3.6-2.1,4.1,0v5C76,48.4,77.7,49.8,79,49.7L79,49.7z"/>
			<g>
				<text transform="matrix(1 0 0 1 12.0819 43.1331)" class="st1 st2 st3">N</text>
				<text transform="matrix(1 0 0 1 24.6082 43.1331)" class="st1 st2 st3">i</text>
				<text transform="matrix(1 0 0 1 29.8201 43.1331)" class="st1 st2 st3">k</text>
				<text transform="matrix(1 0 0 1 38.5057 43.1331)" class="st1 st2 st3">h</text>
				<text transform="matrix(1 0 0 1 47.2142 43.1331)" class="st1 st2 st3">i</text>
				<text transform="matrix(1 0 0 1 52.4261 43.1331)" class="st1 st2 st3">l</text>
				<text transform="matrix(1 0 0 1 57.8206 43.1331)" class="st1 st2 st3">’</text>
				<text transform="matrix(1 0 0 1 64.0833 43.1331)" class="st1 st2 st3">S </text>
			</g>
			<g transform="matrix(0.99109 0 0 1 550.402 139.141)">
				<text transform="matrix(1 0 0 1 -477.2584 -96.2099)" class="st1 st2 st3">a</text>
				<text transform="matrix(1 0 0 1 -469.7835 -96.2099)" class="st1 st2 st3">n</text>
				<text transform="matrix(1 0 0 1 -460.7553 -96.2099)" class="st1 st2 st3">g</text>
				<text transform="matrix(1 0 0 1 -452.3898 -96.2099)" class="st1 st2 st3">l</text>
				<text transform="matrix(1 0 0 1 -446.996 -96.2099)" class="st1 st2 st3">e</text>
			</g>
		</g>
		<text transform="matrix(1 0 0 1 32.8656 76.0972)" class="st1 st2 st4">Wedding, Events, Portraits &amp; More...</text>
	</g>
	<text transform="matrix(1 0 0 1 29.4735 99.3726)" class="st5 st6 st7">Website is under construction</text>
	<text transform="matrix(1 0 0 1 52.4418 108.437)" class="st5 st6 st8">For more details</text>
	<text transform="matrix(1 0 0 1 43.2293 119.1626)" class="st5 st6 st8">contact@nikhils-angle.com</text>
	<g>
		<text transform="matrix(1 0 0 1 40.5252 114.441)" class="st5 st6 st8">9773008795</text>
		<text transform="matrix(1 0 0 1 69.0708 114.441)" class="st5 st6 st8">8169139217</text>
	</g>
</g>
</svg>
