<?xml version="1.0" encoding="utf-8"?>
<!-- Generator: Adobe Illustrator 21.1.0, SVG Export Plug-In . SVG Version: 6.00 Build 0)  -->
<svg version="1.1" id="Layer_1" xmlns="http://www.w3.org/2000/svg" xmlns:xlink="http://www.w3.org/1999/xlink" x="0px" y="0px"
	 viewBox="0 0 300 150" style="enable-background:new 0 0 300 150;" xml:space="preserve">
<style type="text/css">
	.st0{fill:#FFE0BD;}
	.st1{fill:#FFD135;}
	.st2{font-family:'Perpetua';}
	.st3{font-size:20.1246px;}
	.st4{font-size:5.8318px;}
	.st5{fill:#FFFFFF;}
	.st6{font-family:'Aller';}
	.st7{font-size:6.4682px;}
	.st8{font-size:4.3393px;}
</style>
<g>
	<g>
		<g>
			<path class="st0" d="M203.8,30.1l-33-0.1c-2.3-0.5-2.4-3,0.1-3.6l17.8,0.1c1,0,1-1.6,0-1.7l-8.2-0.1c-2.7-0.4-2.3-3.3-0.1-3.5
				l8.3-0.1c1.2-0.1,1-1.6,0-1.7h-6.1c-2.4-0.7-2-3.3,0.2-3.6h5.8c1.4-0.1,1-1.6,0-1.6h-4.1c-2.3-0.2-2.5-3.4-0.1-3.6l15.2,0.1
				c6.6,0.6,11.5,6.4,12.4,11l0.1,17.5c-1,2.4-4.3,2.5-4.9,0V33C207.3,31.7,205.2,30.1,203.8,30.1L203.8,30.1z"/>
			<path class="st0" d="M163.8,54.2l33,0.1c2.3,0.5,2.4,3-0.1,3.6h-17.8c-1,0-1,1.6,0,1.7l8.2,0.1c2.7,0.4,2.3,3.3,0.1,3.5l-8.3,0.1
				c-1.2,0.1-1,1.6,0,1.7h6.1c2.4,0.7,2,3.3-0.2,3.6h-5.8c-1.4,0.1-1,1.6,0,1.6h3.9c2.3,0.2,2.5,3.4,0.1,3.6l-15.3-0.1
				c-6.6-0.6-11.5-6.4-12.4-11l-0.1-17.5c1-2.4,4.3-2.5,4.9,0v6C160.1,52.6,162.2,54.3,163.8,54.2L163.8,54.2z"/>
			<g>
				<text transform="matrix(1 0 0 1 83.0938 46.2773)" class="st1 st2 st3">N</text>
				<text transform="matrix(1 0 0 1 98.1924 46.2773)" class="st1 st2 st3">i</text>
				<text transform="matrix(1 0 0 1 104.4746 46.2773)" class="st1 st2 st3">k</text>
				<text transform="matrix(1 0 0 1 114.9438 46.2773)" class="st1 st2 st3">h</text>
				<text transform="matrix(1 0 0 1 125.4409 46.2773)" class="st1 st2 st3">i</text>
				<text transform="matrix(1 0 0 1 131.7231 46.2773)" class="st1 st2 st3">l</text>
				<text transform="matrix(1 0 0 1 138.2256 46.2773)" class="st1 st2 st3">’</text>
				<text transform="matrix(1 0 0 1 145.7739 46.2773)" class="st1 st2 st3">S </text>
			</g>
			<g transform="matrix(0.99109 0 0 1 550.402 139.141)">
				<text transform="matrix(1 0 0 1 -392.075 -93.1068)" class="st1 st2 st3">a</text>
				<text transform="matrix(1 0 0 1 -383.0651 -93.1068)" class="st1 st2 st3">n</text>
				<text transform="matrix(1 0 0 1 -372.183 -93.1068)" class="st1 st2 st3">g</text>
				<text transform="matrix(1 0 0 1 -362.099 -93.1068)" class="st1 st2 st3">l</text>
				<text transform="matrix(1 0 0 1 -355.5977 -93.1068)" class="st1 st2 st3">e</text>
			</g>
		</g>
		<text transform="matrix(1 0 0 1 108.1455 86.0107)" class="st1 st2 st4">Wedding, Events, Portraits &amp; More...</text>
	</g>
	<text transform="matrix(1 0 0 1 104.0566 114.0664)" class="st5 st6 st7">Website is under construction</text>
	<text transform="matrix(1 0 0 1 131.7422 124.9922)" class="st5 st6 st8">For more details</text>
	<text transform="matrix(1 0 0 1 120.6377 137.9199)" class="st5 st6 st8">contact@nikhils-angle.com</text>
	<g>
		<text transform="matrix(1 0 0 1 117.3779 132.2285)" class="st5 st6 st8">9773008795</text>
		<text transform="matrix(1 0 0 1 151.7861 132.2285)" class="st5 st6 st8">8169139217</text>
	</g>
</g>
</svg>
