<?xml version="1.0" encoding="utf-8"?>
<!-- Generator: Adobe Illustrator 21.1.0, SVG Export Plug-In . SVG Version: 6.00 Build 0)  -->
<svg version="1.1" id="Layer_1" xmlns="http://www.w3.org/2000/svg" xmlns:xlink="http://www.w3.org/1999/xlink" x="0px" y="0px"
	 viewBox="0 0 260.8 153.1" style="enable-background:new 0 0 260.8 153.1;" xml:space="preserve">
<style type="text/css">
	.st0{fill:none;}
	.st1{fill:#FFE0BD;}
	.st2{fill:#FFD135;}
	.st3{font-family:'Perpetua';}
	.st4{font-size:16.6959px;}
	.st5{font-size:4.8382px;}
	.st6{fill:#FFFFFF;}
	.st7{font-family:'Aller';}
	.st8{font-size:5.3662px;}
	.st9{font-size:3.6px;}
</style>
<path class="st0" d="M125.2,9.9"/>
<path class="st0" d="M125.2,16.3"/>
<path class="st0" d="M310.9,33.8"/>
<path class="st0" d="M210.9-23.7"/>
<g>
	<g>
		<g>
			<path class="st1" d="M177.2,44.7l-27.4-0.1c-1.9-0.4-2-2.5,0.1-3l14.8,0.1c0.8,0,0.8-1.3,0-1.4l-6.8-0.1
				c-2.2-0.3-1.9-2.7-0.1-2.9l6.9-0.1c1-0.1,0.8-1.3,0-1.4h-5.1c-2-0.6-1.7-2.7,0.2-3h4.8c1.2-0.1,0.8-1.3,0-1.3h-3.4
				c-1.9-0.2-2.1-2.8-0.1-3l12.6,0.1c5.5,0.5,9.5,5.3,10.3,9.1l0.1,14.5c-0.8,2-3.6,2.1-4.1,0v-5.1C180.1,46,178.4,44.7,177.2,44.7
				L177.2,44.7z"/>
			<path class="st1" d="M144,64.7l27.4,0.1c1.9,0.4,2,2.5-0.1,3h-14.8c-0.8,0-0.8,1.3,0,1.4l6.8,0.1c2.2,0.3,1.9,2.7,0.1,2.9
				l-6.9,0.1c-1,0.1-0.8,1.3,0,1.4h5.1c2,0.6,1.7,2.7-0.2,3h-4.8c-1.2,0.1-0.8,1.3,0,1.3h3.2c1.9,0.2,2.1,2.8,0.1,3l-12.7-0.1
				c-5.5-0.5-9.5-5.3-10.3-9.1l-0.1-14.5c0.8-2,3.6-2.1,4.1,0v5C141,63.4,142.7,64.8,144,64.7L144,64.7z"/>
			<g>
				<text transform="matrix(1 0 0 1 77.0819 58.1331)" class="st2 st3 st4">N</text>
				<text transform="matrix(1 0 0 1 89.6082 58.1331)" class="st2 st3 st4">i</text>
				<text transform="matrix(1 0 0 1 94.8201 58.1331)" class="st2 st3 st4">k</text>
				<text transform="matrix(1 0 0 1 103.5057 58.1331)" class="st2 st3 st4">h</text>
				<text transform="matrix(1 0 0 1 112.2142 58.1331)" class="st2 st3 st4">i</text>
				<text transform="matrix(1 0 0 1 117.4261 58.1331)" class="st2 st3 st4">l</text>
				<text transform="matrix(1 0 0 1 122.8206 58.1331)" class="st2 st3 st4">’</text>
				<text transform="matrix(1 0 0 1 129.0833 58.1331)" class="st2 st3 st4">S </text>
			</g>
			<g transform="matrix(0.99109 0 0 1 550.402 139.141)">
				<text transform="matrix(1 0 0 1 -411.674 -81.2099)" class="st2 st3 st4">a</text>
				<text transform="matrix(1 0 0 1 -404.1992 -81.2099)" class="st2 st3 st4">n</text>
				<text transform="matrix(1 0 0 1 -395.171 -81.2099)" class="st2 st3 st4">g</text>
				<text transform="matrix(1 0 0 1 -386.8055 -81.2099)" class="st2 st3 st4">l</text>
				<text transform="matrix(1 0 0 1 -381.4117 -81.2099)" class="st2 st3 st4">e</text>
			</g>
		</g>
		<text transform="matrix(1 0 0 1 97.8656 91.0972)" class="st2 st3 st5">Wedding, Events, Portraits &amp; More...</text>
	</g>
	<text transform="matrix(1 0 0 1 94.4735 114.3726)" class="st6 st7 st8">Website is under construction</text>
	<text transform="matrix(1 0 0 1 117.4418 123.437)" class="st6 st7 st9">For more details</text>
	<text transform="matrix(1 0 0 1 108.2293 134.1626)" class="st6 st7 st9">contact@nikhils-angle.com</text>
	<g>
		<text transform="matrix(1 0 0 1 105.5252 129.441)" class="st6 st7 st9">9773008795</text>
		<text transform="matrix(1 0 0 1 134.0708 129.441)" class="st6 st7 st9">8169139217</text>
	</g>
</g>
</svg>
