<?xml version="1.0" encoding="utf-8"?>
<!-- Generator: Adobe Illustrator 21.1.0, SVG Export Plug-In . SVG Version: 6.00 Build 0)  -->
<svg version="1.1" id="Layer_1" xmlns="http://www.w3.org/2000/svg" xmlns:xlink="http://www.w3.org/1999/xlink" x="0px" y="0px"
	 viewBox="0 0 300 200" style="enable-background:new 0 0 300 200;" xml:space="preserve">
<style type="text/css">
	.st0{fill:#FFE0BD;}
	.st1{fill:#FFD135;}
	.st2{font-family:'Perpetua';}
	.st3{font-size:27.9587px;}
	.st4{font-size:8.102px;}
	.st5{fill:#FFFFFF;}
	.st6{font-family:'Aller';}
	.st7{font-size:8.9862px;}
	.st8{font-size:6.0285px;}
</style>
<g>
	<g>
		<g>
			<path class="st0" d="M225.6,37.7l-45.9-0.2c-3.2-0.7-3.3-4.2,0.2-5l24.8,0.2c1.3,0,1.3-2.2,0-2.3l-11.4-0.2
				c-3.7-0.5-3.2-4.5-0.2-4.9l11.6-0.2c1.7-0.2,1.3-2.2,0-2.3h-8.5c-3.3-1-2.8-4.5,0.3-5h8c2-0.2,1.3-2.2,0-2.2h-5.7
				c-3.2-0.3-3.5-4.7-0.2-5l21.1,0.2c9.2,0.8,15.9,8.9,17.2,15.2l0.2,24.3c-1.3,3.3-6,3.5-6.9,0v-8.5
				C230.5,39.9,227.7,37.7,225.6,37.7L225.6,37.7z"/>
			<path class="st0" d="M170,71.2l45.9,0.2c3.2,0.7,3.3,4.2-0.2,5H191c-1.3,0-1.3,2.2,0,2.3l11.4,0.2c3.7,0.5,3.2,4.5,0.2,4.9
				L191,83.9c-1.7,0.2-1.3,2.2,0,2.3h8.5c3.3,1,2.8,4.5-0.3,5h-8c-2,0.2-1.3,2.2,0,2.2h5.4c3.2,0.3,3.5,4.7,0.2,5l-21.3-0.2
				c-9.2-0.8-15.9-8.9-17.2-15.2L158,58.8c1.3-3.3,6-3.5,6.9,0v8.4C165,69,167.9,71.3,170,71.2L170,71.2z"/>
			<g>
				<text transform="matrix(1 0 0 1 57.9858 60.1816)" class="st1 st2 st3">N</text>
				<text transform="matrix(1 0 0 1 78.9624 60.1816)" class="st1 st2 st3">i</text>
				<text transform="matrix(1 0 0 1 87.6899 60.1816)" class="st1 st2 st3">k</text>
				<text transform="matrix(1 0 0 1 102.2349 60.1816)" class="st1 st2 st3">h</text>
				<text transform="matrix(1 0 0 1 116.8179 60.1816)" class="st1 st2 st3">i</text>
				<text transform="matrix(1 0 0 1 125.5454 60.1816)" class="st1 st2 st3">l</text>
				<text transform="matrix(1 0 0 1 134.5791 60.1816)" class="st1 st2 st3">’</text>
				<text transform="matrix(1 0 0 1 145.0664 60.1816)" class="st1 st2 st3">S </text>
			</g>
			<g transform="matrix(0.99109 0 0 1 550.402 139.141)">
				<text transform="matrix(1 0 0 1 -386.4862 -79.2968)" class="st1 st2 st3">a</text>
				<text transform="matrix(1 0 0 1 -373.9684 -79.2968)" class="st1 st2 st3">n</text>
				<text transform="matrix(1 0 0 1 -358.8493 -79.2968)" class="st1 st2 st3">g</text>
				<text transform="matrix(1 0 0 1 -344.8417 -79.2968)" class="st1 st2 st3">l</text>
				<text transform="matrix(1 0 0 1 -335.8081 -79.2968)" class="st1 st2 st3">e</text>
			</g>
		</g>
		<text transform="matrix(1 0 0 1 92.79 115.3828)" class="st1 st2 st4">Wedding, Events, Portraits &amp; More...</text>
	</g>
	<text transform="matrix(1 0 0 1 87.1094 154.3594)" class="st5 st6 st7">Website is under construction</text>
	<text transform="matrix(1 0 0 1 125.5718 169.5391)" class="st5 st6 st8">For more details</text>
	<text transform="matrix(1 0 0 1 110.145 187.5)" class="st5 st6 st8">contact@nikhils-angle.com</text>
	<g>
		<text transform="matrix(1 0 0 1 105.6167 179.5928)" class="st5 st6 st8">9773008795</text>
		<text transform="matrix(1 0 0 1 153.418 179.5928)" class="st5 st6 st8">8169139217</text>
	</g>
</g>
</svg>
