<?xml version="1.0" encoding="utf-8"?>
<!-- Generator: Adobe Illustrator 21.1.0, SVG Export Plug-In . SVG Version: 6.00 Build 0)  -->
<svg version="1.1" id="Layer_1" xmlns="http://www.w3.org/2000/svg" xmlns:xlink="http://www.w3.org/1999/xlink" x="0px" y="0px"
	 viewBox="0 0 1920 520" style="enable-background:new 0 0 1920 520;" xml:space="preserve">
<style type="text/css">
	.st0{fill:#FFE0BD;}
	.st1{fill:#FFD135;}
	.st2{font-family:'Perpetua';}
	.st3{font-size:130.9711px;}
	.st4{font-size:37.9534px;}
</style>
<g>
	<g>
		<path class="st0" d="M1258.1,146.7l-215.1-1.1c-14.7-3.2-15.8-19.7,0.4-23.3l116,0.4c6.8,0,6.5-10.1,0-10.8l-53.5-0.4
			c-17.6-2.5-15.1-20.8-0.7-22.6l54.2-0.4c8.3-1.1,6.5-10.4,0-10.8h-39.9c-15.8-4.7-13.3-21.5,1.4-23.7h38.1c9-0.4,6.5-10.1,0-10.1
			h-25.1c-15.1-1.4-16.2-21.9-1.1-23.3l98.7,0.4c42.7,4.3,74.7,42,80.8,71.1l0.7,114.2c-6.1,15.8-28,16.2-32.3,0v-40.6
			C1281.1,157.2,1267.8,146,1258.1,146.7L1258.1,146.7z"/>
		<path class="st0" d="M997.8,303.3l215.1,1.1c14.7,3.2,15.8,19.7-0.4,23.3h-116.3c-6.8,0-6.5,10.1,0,10.8l53.5,0.4
			c17.6,2.5,15.1,20.8,0.7,22.6l-54.2,0.4c-8.3,1.1-6.5,10.4,0,10.8h39.9c15.8,4.7,13.3,21.5-1.4,23.7h-38.1c-9,0.4-6.5,10.1,0,10.1
			h25.1c15.1,1.4,16.2,21.9,1.1,23.3l-98.7-0.4c-42.7-4.3-74.7-42-80.8-71.1L942.6,244c6.1-15.8,28-16.2,32.3,0v40.6
			C974.9,293.2,987.8,304,997.8,303.3L997.8,303.3z"/>
		<text transform="matrix(1 0 0 1 473.1396 251.6387)" class="st1 st2 st3">N</text>
		<text transform="matrix(1 0 0 1 571.4014 251.6387)" class="st1 st2 st3">i</text>
		<text transform="matrix(1 0 0 1 612.2847 251.6387)" class="st1 st2 st3">k</text>
		<text transform="matrix(1 0 0 1 680.418 251.6387)" class="st1 st2 st3">h</text>
		<text transform="matrix(1 0 0 1 748.7363 251.6387)" class="st1 st2 st3">i</text>
		<text transform="matrix(1 0 0 1 789.6177 251.6387)" class="st1 st2 st3">l</text>
		<text transform="matrix(1 0 0 1 831.9341 251.6387)" class="st1 st2 st3">’</text>
		<text transform="matrix(1 0 0 1 881.0625 251.6387)" class="st1 st2 st3">S </text>
		<g transform="matrix(0.99109 0 0 1 550.402 139.141)">
			<text transform="matrix(1 0 0 1 439.0027 110.9112)" class="st1 st2 st3">a</text>
			<text transform="matrix(1 0 0 1 497.6394 110.9112)" class="st1 st2 st3">n</text>
			<text transform="matrix(1 0 0 1 568.4628 110.9112)" class="st1 st2 st3">g</text>
			<text transform="matrix(1 0 0 1 634.0895 110.9112)" class="st1 st2 st3">l</text>
			<text transform="matrix(1 0 0 1 676.4041 110.9112)" class="st1 st2 st3">e</text>
		</g>
	</g>
	<text transform="matrix(1 0 0 1 636.2197 499.9385)" class="st1 st2 st4">Wedding, Events, Portraits &amp; More...</text>
</g>
</svg>
