<?xml version="1.0" encoding="utf-8"?>
<!-- Generator: Adobe Illustrator 21.1.0, SVG Export Plug-In . SVG Version: 6.00 Build 0)  -->
<svg version="1.1" id="Layer_1" xmlns="http://www.w3.org/2000/svg" xmlns:xlink="http://www.w3.org/1999/xlink" x="0px" y="0px"
	 viewBox="0 0 260.8 153.1" style="enable-background:new 0 0 260.8 153.1;" xml:space="preserve">
<style type="text/css">
	.st0{fill:#FFE0BD;}
	.st1{fill:#FFD135;}
	.st2{font-family:'Perpetua';}
	.st3{font-size:36.4792px;}
	.st4{font-size:10.5711px;}
</style>
<g>
	<g>
		<path class="st0" d="M232.1,43.4l-59.9-0.3c-4.1-0.9-4.4-5.5,0.1-6.5l32.3,0.1c1.9,0,1.8-2.8,0-3l-14.9-0.1
			c-4.9-0.7-4.2-5.8-0.2-6.3l15.1-0.1c2.3-0.3,1.8-2.9,0-3l-11.1,0c-4.4-1.3-3.7-6,0.4-6.6l10.6,0c2.5-0.1,1.8-2.8,0-2.8h-7
			c-4.2-0.4-4.5-6.1-0.3-6.5l27.5,0.1c11.9,1.2,20.8,11.7,22.5,19.8l0.2,31.8c-1.7,4.4-7.8,4.5-9,0l0-11.3
			C238.5,46.3,234.8,43.2,232.1,43.4L232.1,43.4z"/>
		<path class="st0" d="M159.6,87l59.9,0.3c4.1,0.9,4.4,5.5-0.1,6.5L187,93.8c-1.9,0-1.8,2.8,0,3l14.9,0.1c4.9,0.7,4.2,5.8,0.2,6.3
			l-15.1,0.1c-2.3,0.3-1.8,2.9,0,3l11.1,0c4.4,1.3,3.7,6-0.4,6.6l-10.6,0c-2.5,0.1-1.8,2.8,0,2.8h7c4.2,0.4,4.5,6.1,0.3,6.5
			l-27.5-0.1c-11.9-1.2-20.8-11.7-22.5-19.8l-0.2-31.8c1.7-4.4,7.8-4.5,9,0l0,11.3C153.2,84.2,156.8,87.2,159.6,87L159.6,87z"/>
		<text transform="matrix(1 0 0 1 13.4541 72.6167)" class="st1 st2 st3">N</text>
		<text transform="matrix(1 0 0 1 40.8232 72.6167)" class="st1 st2 st3">i</text>
		<text transform="matrix(1 0 0 1 52.21 72.6167)" class="st1 st2 st3">k</text>
		<text transform="matrix(1 0 0 1 71.1875 72.6167)" class="st1 st2 st3">h</text>
		<text transform="matrix(1 0 0 1 90.2158 72.6167)" class="st1 st2 st3">i</text>
		<text transform="matrix(1 0 0 1 101.6025 72.6167)" class="st1 st2 st3">l</text>
		<text transform="matrix(1 0 0 1 113.3887 72.6167)" class="st1 st2 st3">’</text>
		<text transform="matrix(1 0 0 1 127.0723 72.6167)" class="st1 st2 st3">S </text>
		<g transform="matrix(0.99109 0 0 1 550.402 139.141)">
			<text transform="matrix(1 0 0 1 -397.7871 -66.9667)" class="st1 st2 st3">a</text>
			<text transform="matrix(1 0 0 1 -381.455 -66.9667)" class="st1 st2 st3">n</text>
			<text transform="matrix(1 0 0 1 -361.7285 -66.9667)" class="st1 st2 st3">g</text>
			<text transform="matrix(1 0 0 1 -343.4494 -66.9667)" class="st1 st2 st3">l</text>
			<text transform="matrix(1 0 0 1 -331.6638 -66.9667)" class="st1 st2 st3">e</text>
		</g>
	</g>
	<text transform="matrix(1 0 0 1 58.8765 141.7754)" class="st1 st2 st4">Wedding, Events, Portraits &amp; More...</text>
</g>
</svg>
