<?xml version="1.0" encoding="utf-8"?>
<!-- Generator: Adobe Illustrator 21.1.0, SVG Export Plug-In . SVG Version: 6.00 Build 0)  -->
<svg version="1.1" id="Layer_1" xmlns="http://www.w3.org/2000/svg" xmlns:xlink="http://www.w3.org/1999/xlink" x="0px" y="0px"
	 viewBox="0 0 260.8 153.1" style="enable-background:new 0 0 260.8 153.1;" xml:space="preserve">
<style type="text/css">
	.st0{fill:#FFE0BD;}
	.st1{fill:#FFD135;}
	.st2{font-family:'Perpetua';}
	.st3{font-size:27.5649px;}
	.st4{font-size:7.9879px;}
</style>
<g>
	<g>
		<path class="st0" d="M207.3,51.5L162,51.3c-3.1-0.7-3.3-4.2,0.1-4.9l24.4,0.1c1.4,0,1.4-2.1,0-2.3l-11.3-0.1
			c-3.7-0.5-3.2-4.4-0.2-4.8l11.4-0.1c1.7-0.2,1.4-2.2,0-2.3h-8.4c-3.3-1-2.8-4.5,0.3-5h8c1.9-0.1,1.4-2.1,0-2.1h-5.3
			c-3.2-0.3-3.4-4.6-0.2-4.9l20.8,0.1c9,0.9,15.7,8.8,17,15l0.2,24c-1.3,3.3-5.9,3.4-6.8,0v-8.5C212.1,53.7,209.3,51.4,207.3,51.5
			L207.3,51.5z"/>
		<path class="st0" d="M152.5,84.5l45.3,0.2c3.1,0.7,3.3,4.2-0.1,4.9h-24.5c-1.4,0-1.4,2.1,0,2.3l11.3,0.1c3.7,0.5,3.2,4.4,0.2,4.8
			l-11.4,0.1c-1.7,0.2-1.4,2.2,0,2.3h8.4c3.3,1,2.8,4.5-0.3,5h-8c-1.9,0.1-1.4,2.1,0,2.1h5.3c3.2,0.3,3.4,4.6,0.2,4.9L158,111
			c-9-0.9-15.7-8.8-17-15l-0.2-24c1.3-3.3,5.9-3.4,6.8,0v8.5C147.6,82.4,150.4,84.6,152.5,84.5L152.5,84.5z"/>
		<text transform="matrix(1 0 0 1 42.0386 73.6001)" class="st1 st2 st3">N</text>
		<text transform="matrix(1 0 0 1 62.7197 73.6001)" class="st1 st2 st3">i</text>
		<text transform="matrix(1 0 0 1 71.3237 73.6001)" class="st1 st2 st3">k</text>
		<text transform="matrix(1 0 0 1 85.6641 73.6001)" class="st1 st2 st3">h</text>
		<text transform="matrix(1 0 0 1 100.042 73.6001)" class="st1 st2 st3">i</text>
		<text transform="matrix(1 0 0 1 108.6465 73.6001)" class="st1 st2 st3">l</text>
		<text transform="matrix(1 0 0 1 117.5527 73.6001)" class="st1 st2 st3">’</text>
		<text transform="matrix(1 0 0 1 127.8926 73.6001)" class="st1 st2 st3">S </text>
		<g transform="matrix(0.99109 0 0 1 550.402 139.141)">
			<text transform="matrix(1 0 0 1 -404.1317 -65.8754)" class="st1 st2 st3">a</text>
			<text transform="matrix(1 0 0 1 -391.7903 -65.8754)" class="st1 st2 st3">n</text>
			<text transform="matrix(1 0 0 1 -376.885 -65.8754)" class="st1 st2 st3">g</text>
			<text transform="matrix(1 0 0 1 -363.0725 -65.8754)" class="st1 st2 st3">l</text>
			<text transform="matrix(1 0 0 1 -354.167 -65.8754)" class="st1 st2 st3">e</text>
		</g>
	</g>
	<text transform="matrix(1 0 0 1 76.3613 125.8594)" class="st1 st2 st4">Wedding, Events, Portraits &amp; More...</text>
</g>
</svg>
